G04 #@! TF.FileFunction,Copper,L1,Top,Signal*
%FSLAX46Y46*%
G04 Gerber Fmt 4.6, Leading zero omitted, Abs format (unit mm)*
G04 Created by KiCad (PCBNEW 4.0.7) date 07/31/18 09:39:55*
%MOMM*%
%LPD*%
G01*
G04 APERTURE LIST*
%ADD10C,0.100000*%
%ADD11R,1.600000X1.000000*%
%ADD12R,0.600000X1.800000*%
%ADD13R,1.000000X2.800000*%
%ADD14R,0.500000X0.900000*%
%ADD15C,1.800000*%
%ADD16R,1.651000X1.651000*%
%ADD17C,1.651000*%
%ADD18R,2.500000X2.300000*%
%ADD19C,0.500000*%
%ADD20R,2.550000X2.500000*%
%ADD21R,0.400000X0.500000*%
%ADD22C,0.500000*%
%ADD23C,0.800000*%
%ADD24C,0.600000*%
%ADD25C,0.700000*%
%ADD26C,0.152400*%
%ADD27C,0.600000*%
%ADD28C,0.300000*%
%ADD29C,0.200000*%
%ADD30C,0.254000*%
G04 APERTURE END LIST*
D10*
D11*
X141100000Y-119500000D03*
X141100000Y-122500000D03*
D12*
X153125000Y-119225000D03*
X151875000Y-119225000D03*
X150625000Y-119225000D03*
X149375000Y-119225000D03*
X148125000Y-119225000D03*
X146875000Y-119225000D03*
D13*
X145150000Y-122575000D03*
X154850000Y-122575000D03*
D14*
X142000000Y-117300000D03*
X143500000Y-117300000D03*
D15*
X144666000Y-79880000D03*
X147206000Y-79880000D03*
X144666000Y-84960000D03*
X147206000Y-84960000D03*
D16*
X155080000Y-78410000D03*
D17*
X155080000Y-80950000D03*
X155080000Y-83490000D03*
X155080000Y-86030000D03*
X155080000Y-88570000D03*
X155080000Y-91110000D03*
X155080000Y-93650000D03*
X155080000Y-96190000D03*
D16*
X157620000Y-78410000D03*
D17*
X157620000Y-80950000D03*
X157620000Y-83490000D03*
X157620000Y-86030000D03*
X157620000Y-88570000D03*
X157620000Y-91110000D03*
X157620000Y-93650000D03*
X157620000Y-96190000D03*
D16*
X152540000Y-78410000D03*
D17*
X152540000Y-80950000D03*
X152540000Y-83490000D03*
X152540000Y-86030000D03*
X152540000Y-88570000D03*
X152540000Y-91110000D03*
X152540000Y-93650000D03*
X152540000Y-96190000D03*
D18*
X145850000Y-89800000D03*
X141550000Y-89800000D03*
X145850000Y-94400000D03*
X141550000Y-94400000D03*
D19*
X144838121Y-109202081D02*
X145545227Y-108494975D01*
X145403806Y-109767767D02*
X146110912Y-109060661D01*
X145969492Y-110333452D02*
X146676598Y-109626346D01*
X146535177Y-110899137D02*
X147242283Y-110192031D01*
X147100863Y-111464823D02*
X147807969Y-110757717D01*
X147666548Y-112030508D02*
X148373654Y-111323402D01*
X148232233Y-112596194D02*
X148939339Y-111889088D01*
X148797919Y-113161879D02*
X149505025Y-112454773D01*
X150494975Y-112454773D02*
X151202081Y-113161879D01*
X151060661Y-111889088D02*
X151767767Y-112596194D01*
X151626346Y-111323402D02*
X152333452Y-112030508D01*
X152192031Y-110757717D02*
X152899137Y-111464823D01*
X152757717Y-110192031D02*
X153464823Y-110899137D01*
X153323402Y-109626346D02*
X154030508Y-110333452D01*
X153889088Y-109060661D02*
X154596194Y-109767767D01*
X154454773Y-108494975D02*
X155161879Y-109202081D01*
X154454773Y-107505025D02*
X155161879Y-106797919D01*
X153889088Y-106939339D02*
X154596194Y-106232233D01*
X153323402Y-106373654D02*
X154030508Y-105666548D01*
X152757717Y-105807969D02*
X153464823Y-105100863D01*
X152192031Y-105242283D02*
X152899137Y-104535177D01*
X151626346Y-104676598D02*
X152333452Y-103969492D01*
X151060661Y-104110912D02*
X151767767Y-103403806D01*
X150494975Y-103545227D02*
X151202081Y-102838121D01*
X148797919Y-102838121D02*
X149505025Y-103545227D01*
X148232233Y-103403806D02*
X148939339Y-104110912D01*
X147666548Y-103969492D02*
X148373654Y-104676598D01*
X147100863Y-104535177D02*
X147807969Y-105242283D01*
X146535177Y-105100863D02*
X147242283Y-105807969D01*
X145969492Y-105666548D02*
X146676598Y-106373654D01*
X145403806Y-106232233D02*
X146110912Y-106939339D01*
X144838121Y-106797919D02*
X145545227Y-107505025D01*
D20*
X145225000Y-98700000D03*
X140175000Y-98700000D03*
D10*
G36*
X144768198Y-112414645D02*
X145051041Y-112697488D01*
X144697488Y-113051041D01*
X144414645Y-112768198D01*
X144768198Y-112414645D01*
X144768198Y-112414645D01*
G37*
G36*
X144202512Y-111848959D02*
X144485355Y-112131802D01*
X144131802Y-112485355D01*
X143848959Y-112202512D01*
X144202512Y-111848959D01*
X144202512Y-111848959D01*
G37*
D21*
X142150000Y-114900000D03*
X142950000Y-114900000D03*
D10*
G36*
X149361701Y-115418198D02*
X148018198Y-116761701D01*
X147735355Y-116478858D01*
X149078858Y-115135355D01*
X149361701Y-115418198D01*
X149361701Y-115418198D01*
G37*
G36*
X148513173Y-114569670D02*
X147169670Y-115913173D01*
X146886827Y-115630330D01*
X148230330Y-114286827D01*
X148513173Y-114569670D01*
X148513173Y-114569670D01*
G37*
G36*
X147664645Y-113721142D02*
X146321142Y-115064645D01*
X146038299Y-114781802D01*
X147381802Y-113438299D01*
X147664645Y-113721142D01*
X147664645Y-113721142D01*
G37*
D22*
X148300000Y-121000000D03*
X149000000Y-121000000D03*
X153600000Y-121200000D03*
X155600000Y-110500000D03*
X155500000Y-113200000D03*
X151200000Y-120900000D03*
D23*
X139100000Y-101100000D03*
X145700000Y-117600000D03*
X142700000Y-122500000D03*
D24*
X143400000Y-112900000D03*
X153500000Y-103900000D03*
X146400000Y-112100000D03*
X148700000Y-114100000D03*
D22*
X145700000Y-104500000D03*
X142400000Y-104500000D03*
X144400000Y-115200000D03*
X154100000Y-118700000D03*
X153900000Y-115700000D03*
X145100000Y-105000000D03*
X154800000Y-114800000D03*
X155100000Y-118700000D03*
X144600000Y-105500000D03*
D23*
X139300000Y-96200000D03*
D25*
X150500000Y-121500000D03*
D22*
X149200000Y-99200000D03*
X149700000Y-98600000D03*
X150000000Y-111800000D03*
X150500000Y-111300000D03*
X151000000Y-110700000D03*
X151600000Y-110200000D03*
X152200000Y-109600000D03*
X148300000Y-99500000D03*
D26*
X148125000Y-119225000D02*
X148125000Y-120825000D01*
X148125000Y-120825000D02*
X148300000Y-121000000D01*
X154500000Y-112300000D02*
X154500000Y-110802944D01*
X154500000Y-110802944D02*
X153676955Y-109979899D01*
X151700000Y-115100000D02*
X154500000Y-112300000D01*
X151197600Y-115100000D02*
X151700000Y-115100000D01*
X148125000Y-119225000D02*
X148125000Y-118172600D01*
X148125000Y-118172600D02*
X151197600Y-115100000D01*
X149375000Y-119225000D02*
X149375000Y-120625000D01*
X149375000Y-120625000D02*
X149000000Y-121000000D01*
X154900000Y-112500000D02*
X154900000Y-110071573D01*
X154900000Y-110071573D02*
X154242641Y-109414214D01*
X151800000Y-115600000D02*
X154900000Y-112500000D01*
X151400000Y-115600000D02*
X151800000Y-115600000D01*
X149375000Y-117625000D02*
X151400000Y-115600000D01*
X149375000Y-119225000D02*
X149375000Y-117625000D01*
X153125000Y-119225000D02*
X153125000Y-120725000D01*
X153125000Y-120725000D02*
X153600000Y-121200000D01*
X155600000Y-109640202D02*
X155600000Y-110500000D01*
X154808326Y-108848528D02*
X155600000Y-109640202D01*
X152900000Y-117947600D02*
X152900000Y-115800000D01*
X152900000Y-115800000D02*
X155500000Y-113200000D01*
X153125000Y-119225000D02*
X153125000Y-118172600D01*
X153125000Y-118172600D02*
X152900000Y-117947600D01*
X151200000Y-120900000D02*
X150846447Y-120900000D01*
X150846447Y-120900000D02*
X150625000Y-120678553D01*
X150625000Y-120678553D02*
X150625000Y-119225000D01*
X154808326Y-107151472D02*
X156100000Y-108443146D01*
X151700000Y-116000000D02*
X150625000Y-117075000D01*
X156100000Y-108443146D02*
X156100000Y-111800000D01*
X156100000Y-111800000D02*
X151900000Y-116000000D01*
X151900000Y-116000000D02*
X151700000Y-116000000D01*
X150625000Y-117075000D02*
X150625000Y-119225000D01*
D27*
X139100000Y-101100000D02*
X139100000Y-99775000D01*
X139100000Y-99775000D02*
X140175000Y-98700000D01*
X145700000Y-117600000D02*
X146265685Y-117600000D01*
X146265685Y-117600000D02*
X146875000Y-118209315D01*
X146875000Y-118209315D02*
X146875000Y-118275000D01*
X146875000Y-119225000D02*
X146875000Y-118275000D01*
X141100000Y-122500000D02*
X142700000Y-122500000D01*
D28*
X144169670Y-112169670D02*
X144130330Y-112169670D01*
X144130330Y-112169670D02*
X143400000Y-112900000D01*
X152545584Y-104888730D02*
X152545584Y-104854416D01*
X152545584Y-104854416D02*
X153500000Y-103900000D01*
X147454416Y-111111270D02*
X147388730Y-111111270D01*
X147388730Y-111111270D02*
X146400000Y-112100000D01*
X147700000Y-115100000D02*
X148700000Y-114100000D01*
X146323045Y-109979899D02*
X144169670Y-112133274D01*
X144169670Y-112133274D02*
X144169670Y-112169670D01*
D29*
X144732843Y-112732843D02*
X144944974Y-112944974D01*
X144944974Y-112944974D02*
X145230330Y-113230330D01*
D26*
X141550000Y-114900000D02*
X141100000Y-115350000D01*
X141100000Y-115350000D02*
X141100000Y-116600000D01*
X142150000Y-114900000D02*
X141550000Y-114900000D01*
D19*
X142000000Y-116100000D02*
X144600000Y-116100000D01*
X144600000Y-116100000D02*
X145100000Y-115600000D01*
X145100000Y-115600000D02*
X145100000Y-114800000D01*
X144500000Y-113960660D02*
X145230330Y-113230330D01*
X145100000Y-114800000D02*
X144500000Y-114200000D01*
X144500000Y-114200000D02*
X144500000Y-113960660D01*
X141600000Y-116100000D02*
X142000000Y-116100000D01*
X141100000Y-119500000D02*
X141100000Y-117300000D01*
X141100000Y-117300000D02*
X141100000Y-116600000D01*
X142000000Y-117300000D02*
X141100000Y-117300000D01*
X141100000Y-116600000D02*
X141600000Y-116100000D01*
D28*
X148020101Y-111676955D02*
X148621140Y-111075916D01*
X148621140Y-111075916D02*
X149752511Y-111075916D01*
X149752511Y-111075916D02*
X153641602Y-107186825D01*
X153641602Y-107186825D02*
X154242641Y-106585786D01*
X148020101Y-111676955D02*
X146802601Y-112894455D01*
X146802601Y-112894455D02*
X145566205Y-112894455D01*
X145230330Y-113230330D02*
X145566205Y-112894455D01*
X145566205Y-111868109D02*
X146287691Y-111146623D01*
X145566205Y-112894455D02*
X145566205Y-111868109D01*
X146287691Y-111146623D02*
X146888730Y-110545584D01*
D26*
X143500000Y-114900000D02*
X142950000Y-114900000D01*
X145700000Y-104500000D02*
X145934314Y-104500000D01*
X145934314Y-104500000D02*
X145955712Y-104521398D01*
X142400000Y-112800000D02*
X142400000Y-104500000D01*
X143500000Y-114297600D02*
X143500000Y-114900000D01*
X143500000Y-113900000D02*
X143500000Y-114297600D01*
X146888730Y-105454416D02*
X145955712Y-104521398D01*
X142400000Y-112800000D02*
X143500000Y-113900000D01*
X143500000Y-114900000D02*
X144100000Y-114900000D01*
X144100000Y-114900000D02*
X144400000Y-115200000D01*
X154100000Y-118700000D02*
X154100000Y-115900000D01*
X154100000Y-115900000D02*
X153900000Y-115700000D01*
X145502944Y-105200000D02*
X145300000Y-105200000D01*
X145300000Y-105200000D02*
X145100000Y-105000000D01*
X146323045Y-106020101D02*
X145502944Y-105200000D01*
X155100000Y-118700000D02*
X154800000Y-118400000D01*
X154800000Y-118400000D02*
X154800000Y-114800000D01*
X145757359Y-106585786D02*
X144671573Y-105500000D01*
X144671573Y-105500000D02*
X144600000Y-105500000D01*
D28*
X146852264Y-114252264D02*
X146852264Y-113976163D01*
X146852264Y-113976163D02*
X148585786Y-112242641D01*
X149398958Y-115096514D02*
X149219225Y-115276247D01*
X149398958Y-113055812D02*
X149398958Y-115096514D01*
X149151472Y-112808326D02*
X149398958Y-113055812D01*
X149219225Y-115276247D02*
X148547736Y-115947736D01*
D27*
X139300000Y-94700000D02*
X139600000Y-94400000D01*
X139600000Y-94400000D02*
X141550000Y-94400000D01*
X139300000Y-96200000D02*
X139300000Y-94700000D01*
D19*
X150500000Y-121500000D02*
X151100000Y-122100000D01*
X151100000Y-122100000D02*
X151100000Y-122300000D01*
X143500000Y-117300000D02*
X144250000Y-117300000D01*
X144250000Y-117300000D02*
X144500000Y-117550000D01*
X144500000Y-117550000D02*
X144500000Y-119000000D01*
X147800000Y-122300000D02*
X144500000Y-119000000D01*
X151100000Y-122300000D02*
X147800000Y-122300000D01*
X151875000Y-121525000D02*
X151100000Y-122300000D01*
X151875000Y-119225000D02*
X151875000Y-121525000D01*
D27*
X147800000Y-89800000D02*
X148000000Y-90000000D01*
X148000000Y-90000000D02*
X148000000Y-94700000D01*
X145850000Y-89800000D02*
X147800000Y-89800000D01*
X146900000Y-97800000D02*
X148000000Y-97800000D01*
X148000000Y-97800000D02*
X153470000Y-97800000D01*
X145850000Y-94400000D02*
X147700000Y-94400000D01*
X147700000Y-94400000D02*
X148000000Y-94700000D01*
X148000000Y-94700000D02*
X148000000Y-97800000D01*
X145225000Y-98700000D02*
X146000000Y-98700000D01*
X146000000Y-98700000D02*
X146900000Y-97800000D01*
X153470000Y-97800000D02*
X155080000Y-96190000D01*
X155080000Y-88570000D02*
X155080000Y-91110000D01*
X155080000Y-86030000D02*
X155080000Y-88570000D01*
X155080000Y-83490000D02*
X155080000Y-86030000D01*
X155080000Y-80950000D02*
X155080000Y-83490000D01*
X155080000Y-78410000D02*
X155080000Y-80950000D01*
X155080000Y-93650000D02*
X155080000Y-91110000D01*
X155080000Y-96190000D02*
X155080000Y-93650000D01*
D26*
X147700000Y-99400000D02*
X148149999Y-98950001D01*
X148149999Y-98950001D02*
X148950001Y-98950001D01*
X147700000Y-100700000D02*
X147700000Y-99400000D01*
X143700000Y-104700000D02*
X147700000Y-100700000D01*
X143700000Y-107356854D02*
X143700000Y-104700000D01*
X148950001Y-98950001D02*
X149200000Y-99200000D01*
X145191674Y-108848528D02*
X143700000Y-107356854D01*
X147300000Y-99300000D02*
X148000000Y-98600000D01*
X148000000Y-98600000D02*
X149700000Y-98600000D01*
X147300000Y-100600000D02*
X147300000Y-99300000D01*
X143300000Y-104600000D02*
X147300000Y-100600000D01*
X143300000Y-108900000D02*
X143300000Y-104600000D01*
X144600000Y-110200000D02*
X143300000Y-108900000D01*
X144971573Y-110200000D02*
X144600000Y-110200000D01*
X145757359Y-109414214D02*
X144971573Y-110200000D01*
X150000000Y-111800000D02*
X150000000Y-111959798D01*
X150000000Y-111959798D02*
X150848528Y-112808326D01*
X151414214Y-112242641D02*
X151414214Y-112214214D01*
X151414214Y-112214214D02*
X150500000Y-111300000D01*
X151979899Y-111676955D02*
X151976955Y-111676955D01*
X151976955Y-111676955D02*
X151000000Y-110700000D01*
X152545584Y-111111270D02*
X152511270Y-111111270D01*
X152511270Y-111111270D02*
X151600000Y-110200000D01*
X153111270Y-110545584D02*
X153111270Y-110511270D01*
X153111270Y-110511270D02*
X152200000Y-109600000D01*
X148300000Y-100600000D02*
X148300000Y-99500000D01*
X144100000Y-104800000D02*
X148300000Y-100600000D01*
X144100000Y-106059798D02*
X144100000Y-104800000D01*
X145191674Y-107151472D02*
X144100000Y-106059798D01*
D27*
X144666000Y-84960000D02*
X143393208Y-84960000D01*
X141550000Y-86803208D02*
X141550000Y-88050000D01*
X143393208Y-84960000D02*
X141550000Y-86803208D01*
X141550000Y-88050000D02*
X141550000Y-89800000D01*
D30*
G36*
X161373000Y-84947394D02*
X159910197Y-86410197D01*
X159883006Y-86450590D01*
X159873000Y-86500000D01*
X159873000Y-88500000D01*
X159882334Y-88547789D01*
X159910197Y-88589803D01*
X161373000Y-90052606D01*
X161373000Y-99873000D01*
X149344037Y-99873000D01*
X149582989Y-99774267D01*
X149773598Y-99583990D01*
X149876882Y-99335254D01*
X149876948Y-99259401D01*
X150082989Y-99174267D01*
X150273598Y-98983990D01*
X150376882Y-98735254D01*
X150377064Y-98527000D01*
X153469995Y-98527000D01*
X153470000Y-98527001D01*
X153702052Y-98480842D01*
X153748211Y-98471660D01*
X153984067Y-98314067D01*
X154855829Y-97442305D01*
X155328045Y-97442717D01*
X155788557Y-97252437D01*
X156007754Y-97033622D01*
X156808905Y-97033622D01*
X156888105Y-97236497D01*
X157344294Y-97436921D01*
X157842457Y-97447513D01*
X158306753Y-97266660D01*
X158351895Y-97236497D01*
X158431095Y-97033622D01*
X157620000Y-96222527D01*
X156808905Y-97033622D01*
X156007754Y-97033622D01*
X156141199Y-96900411D01*
X156332282Y-96440231D01*
X156332306Y-96412457D01*
X156362487Y-96412457D01*
X156543340Y-96876753D01*
X156573503Y-96921895D01*
X156776378Y-97001095D01*
X157587473Y-96190000D01*
X157652527Y-96190000D01*
X158463622Y-97001095D01*
X158666497Y-96921895D01*
X158866921Y-96465706D01*
X158877513Y-95967543D01*
X158696660Y-95503247D01*
X158666497Y-95458105D01*
X158463622Y-95378905D01*
X157652527Y-96190000D01*
X157587473Y-96190000D01*
X156776378Y-95378905D01*
X156573503Y-95458105D01*
X156373079Y-95914294D01*
X156362487Y-96412457D01*
X156332306Y-96412457D01*
X156332717Y-95941955D01*
X156142437Y-95481443D01*
X156007608Y-95346378D01*
X156808905Y-95346378D01*
X157620000Y-96157473D01*
X158431095Y-95346378D01*
X158351895Y-95143503D01*
X157895706Y-94943079D01*
X157397543Y-94932487D01*
X156933247Y-95113340D01*
X156888105Y-95143503D01*
X156808905Y-95346378D01*
X156007608Y-95346378D01*
X155807000Y-95145419D01*
X155807000Y-94694026D01*
X156007754Y-94493622D01*
X156808905Y-94493622D01*
X156888105Y-94696497D01*
X157344294Y-94896921D01*
X157842457Y-94907513D01*
X158306753Y-94726660D01*
X158351895Y-94696497D01*
X158431095Y-94493622D01*
X157620000Y-93682527D01*
X156808905Y-94493622D01*
X156007754Y-94493622D01*
X156141199Y-94360411D01*
X156332282Y-93900231D01*
X156332306Y-93872457D01*
X156362487Y-93872457D01*
X156543340Y-94336753D01*
X156573503Y-94381895D01*
X156776378Y-94461095D01*
X157587473Y-93650000D01*
X157652527Y-93650000D01*
X158463622Y-94461095D01*
X158666497Y-94381895D01*
X158866921Y-93925706D01*
X158877513Y-93427543D01*
X158696660Y-92963247D01*
X158666497Y-92918105D01*
X158463622Y-92838905D01*
X157652527Y-93650000D01*
X157587473Y-93650000D01*
X156776378Y-92838905D01*
X156573503Y-92918105D01*
X156373079Y-93374294D01*
X156362487Y-93872457D01*
X156332306Y-93872457D01*
X156332717Y-93401955D01*
X156142437Y-92941443D01*
X156007608Y-92806378D01*
X156808905Y-92806378D01*
X157620000Y-93617473D01*
X158431095Y-92806378D01*
X158351895Y-92603503D01*
X157895706Y-92403079D01*
X157397543Y-92392487D01*
X156933247Y-92573340D01*
X156888105Y-92603503D01*
X156808905Y-92806378D01*
X156007608Y-92806378D01*
X155807000Y-92605419D01*
X155807000Y-92154026D01*
X156007754Y-91953622D01*
X156808905Y-91953622D01*
X156888105Y-92156497D01*
X157344294Y-92356921D01*
X157842457Y-92367513D01*
X158306753Y-92186660D01*
X158351895Y-92156497D01*
X158431095Y-91953622D01*
X157620000Y-91142527D01*
X156808905Y-91953622D01*
X156007754Y-91953622D01*
X156141199Y-91820411D01*
X156332282Y-91360231D01*
X156332306Y-91332457D01*
X156362487Y-91332457D01*
X156543340Y-91796753D01*
X156573503Y-91841895D01*
X156776378Y-91921095D01*
X157587473Y-91110000D01*
X157652527Y-91110000D01*
X158463622Y-91921095D01*
X158666497Y-91841895D01*
X158866921Y-91385706D01*
X158877513Y-90887543D01*
X158696660Y-90423247D01*
X158666497Y-90378105D01*
X158463622Y-90298905D01*
X157652527Y-91110000D01*
X157587473Y-91110000D01*
X156776378Y-90298905D01*
X156573503Y-90378105D01*
X156373079Y-90834294D01*
X156362487Y-91332457D01*
X156332306Y-91332457D01*
X156332717Y-90861955D01*
X156142437Y-90401443D01*
X156007608Y-90266378D01*
X156808905Y-90266378D01*
X157620000Y-91077473D01*
X158431095Y-90266378D01*
X158351895Y-90063503D01*
X157895706Y-89863079D01*
X157397543Y-89852487D01*
X156933247Y-90033340D01*
X156888105Y-90063503D01*
X156808905Y-90266378D01*
X156007608Y-90266378D01*
X155807000Y-90065419D01*
X155807000Y-89614026D01*
X156007754Y-89413622D01*
X156808905Y-89413622D01*
X156888105Y-89616497D01*
X157344294Y-89816921D01*
X157842457Y-89827513D01*
X158306753Y-89646660D01*
X158351895Y-89616497D01*
X158431095Y-89413622D01*
X157620000Y-88602527D01*
X156808905Y-89413622D01*
X156007754Y-89413622D01*
X156141199Y-89280411D01*
X156332282Y-88820231D01*
X156332306Y-88792457D01*
X156362487Y-88792457D01*
X156543340Y-89256753D01*
X156573503Y-89301895D01*
X156776378Y-89381095D01*
X157587473Y-88570000D01*
X157652527Y-88570000D01*
X158463622Y-89381095D01*
X158666497Y-89301895D01*
X158866921Y-88845706D01*
X158877513Y-88347543D01*
X158696660Y-87883247D01*
X158666497Y-87838105D01*
X158463622Y-87758905D01*
X157652527Y-88570000D01*
X157587473Y-88570000D01*
X156776378Y-87758905D01*
X156573503Y-87838105D01*
X156373079Y-88294294D01*
X156362487Y-88792457D01*
X156332306Y-88792457D01*
X156332717Y-88321955D01*
X156142437Y-87861443D01*
X156007608Y-87726378D01*
X156808905Y-87726378D01*
X157620000Y-88537473D01*
X158431095Y-87726378D01*
X158351895Y-87523503D01*
X157895706Y-87323079D01*
X157397543Y-87312487D01*
X156933247Y-87493340D01*
X156888105Y-87523503D01*
X156808905Y-87726378D01*
X156007608Y-87726378D01*
X155807000Y-87525419D01*
X155807000Y-87074026D01*
X156007754Y-86873622D01*
X156808905Y-86873622D01*
X156888105Y-87076497D01*
X157344294Y-87276921D01*
X157842457Y-87287513D01*
X158306753Y-87106660D01*
X158351895Y-87076497D01*
X158431095Y-86873622D01*
X157620000Y-86062527D01*
X156808905Y-86873622D01*
X156007754Y-86873622D01*
X156141199Y-86740411D01*
X156332282Y-86280231D01*
X156332306Y-86252457D01*
X156362487Y-86252457D01*
X156543340Y-86716753D01*
X156573503Y-86761895D01*
X156776378Y-86841095D01*
X157587473Y-86030000D01*
X157652527Y-86030000D01*
X158463622Y-86841095D01*
X158666497Y-86761895D01*
X158866921Y-86305706D01*
X158877513Y-85807543D01*
X158696660Y-85343247D01*
X158666497Y-85298105D01*
X158463622Y-85218905D01*
X157652527Y-86030000D01*
X157587473Y-86030000D01*
X156776378Y-85218905D01*
X156573503Y-85298105D01*
X156373079Y-85754294D01*
X156362487Y-86252457D01*
X156332306Y-86252457D01*
X156332717Y-85781955D01*
X156142437Y-85321443D01*
X156007608Y-85186378D01*
X156808905Y-85186378D01*
X157620000Y-85997473D01*
X158431095Y-85186378D01*
X158351895Y-84983503D01*
X157895706Y-84783079D01*
X157397543Y-84772487D01*
X156933247Y-84953340D01*
X156888105Y-84983503D01*
X156808905Y-85186378D01*
X156007608Y-85186378D01*
X155807000Y-84985419D01*
X155807000Y-84534026D01*
X156007754Y-84333622D01*
X156808905Y-84333622D01*
X156888105Y-84536497D01*
X157344294Y-84736921D01*
X157842457Y-84747513D01*
X158306753Y-84566660D01*
X158351895Y-84536497D01*
X158431095Y-84333622D01*
X157620000Y-83522527D01*
X156808905Y-84333622D01*
X156007754Y-84333622D01*
X156141199Y-84200411D01*
X156332282Y-83740231D01*
X156332306Y-83712457D01*
X156362487Y-83712457D01*
X156543340Y-84176753D01*
X156573503Y-84221895D01*
X156776378Y-84301095D01*
X157587473Y-83490000D01*
X157652527Y-83490000D01*
X158463622Y-84301095D01*
X158666497Y-84221895D01*
X158866921Y-83765706D01*
X158877513Y-83267543D01*
X158696660Y-82803247D01*
X158666497Y-82758105D01*
X158463622Y-82678905D01*
X157652527Y-83490000D01*
X157587473Y-83490000D01*
X156776378Y-82678905D01*
X156573503Y-82758105D01*
X156373079Y-83214294D01*
X156362487Y-83712457D01*
X156332306Y-83712457D01*
X156332717Y-83241955D01*
X156142437Y-82781443D01*
X156007608Y-82646378D01*
X156808905Y-82646378D01*
X157620000Y-83457473D01*
X158431095Y-82646378D01*
X158351895Y-82443503D01*
X157895706Y-82243079D01*
X157397543Y-82232487D01*
X156933247Y-82413340D01*
X156888105Y-82443503D01*
X156808905Y-82646378D01*
X156007608Y-82646378D01*
X155807000Y-82445419D01*
X155807000Y-81994026D01*
X156007754Y-81793622D01*
X156808905Y-81793622D01*
X156888105Y-81996497D01*
X157344294Y-82196921D01*
X157842457Y-82207513D01*
X158306753Y-82026660D01*
X158351895Y-81996497D01*
X158431095Y-81793622D01*
X157620000Y-80982527D01*
X156808905Y-81793622D01*
X156007754Y-81793622D01*
X156141199Y-81660411D01*
X156332282Y-81200231D01*
X156332306Y-81172457D01*
X156362487Y-81172457D01*
X156543340Y-81636753D01*
X156573503Y-81681895D01*
X156776378Y-81761095D01*
X157587473Y-80950000D01*
X157652527Y-80950000D01*
X158463622Y-81761095D01*
X158666497Y-81681895D01*
X158866921Y-81225706D01*
X158877513Y-80727543D01*
X158696660Y-80263247D01*
X158666497Y-80218105D01*
X158463622Y-80138905D01*
X157652527Y-80950000D01*
X157587473Y-80950000D01*
X156776378Y-80138905D01*
X156573503Y-80218105D01*
X156373079Y-80674294D01*
X156362487Y-81172457D01*
X156332306Y-81172457D01*
X156332717Y-80701955D01*
X156142437Y-80241443D01*
X156007608Y-80106378D01*
X156808905Y-80106378D01*
X157620000Y-80917473D01*
X158431095Y-80106378D01*
X158351895Y-79903503D01*
X157895706Y-79703079D01*
X157397543Y-79692487D01*
X156933247Y-79873340D01*
X156888105Y-79903503D01*
X156808905Y-80106378D01*
X156007608Y-80106378D01*
X155807000Y-79905419D01*
X155807000Y-79670865D01*
X155905500Y-79670865D01*
X156063737Y-79641091D01*
X156209067Y-79547573D01*
X156306564Y-79404881D01*
X156340865Y-79235500D01*
X156340865Y-78539750D01*
X156367500Y-78539750D01*
X156367500Y-79320436D01*
X156432507Y-79477376D01*
X156552624Y-79597493D01*
X156709565Y-79662500D01*
X157490250Y-79662500D01*
X157597000Y-79555750D01*
X157597000Y-78433000D01*
X157643000Y-78433000D01*
X157643000Y-79555750D01*
X157749750Y-79662500D01*
X158530435Y-79662500D01*
X158687376Y-79597493D01*
X158807493Y-79477376D01*
X158872500Y-79320436D01*
X158872500Y-78539750D01*
X158765750Y-78433000D01*
X157643000Y-78433000D01*
X157597000Y-78433000D01*
X156474250Y-78433000D01*
X156367500Y-78539750D01*
X156340865Y-78539750D01*
X156340865Y-77584500D01*
X156324884Y-77499564D01*
X156367500Y-77499564D01*
X156367500Y-78280250D01*
X156474250Y-78387000D01*
X157597000Y-78387000D01*
X157597000Y-77264250D01*
X157643000Y-77264250D01*
X157643000Y-78387000D01*
X158765750Y-78387000D01*
X158872500Y-78280250D01*
X158872500Y-77499564D01*
X158807493Y-77342624D01*
X158687376Y-77222507D01*
X158530435Y-77157500D01*
X157749750Y-77157500D01*
X157643000Y-77264250D01*
X157597000Y-77264250D01*
X157490250Y-77157500D01*
X156709565Y-77157500D01*
X156552624Y-77222507D01*
X156432507Y-77342624D01*
X156367500Y-77499564D01*
X156324884Y-77499564D01*
X156311091Y-77426263D01*
X156217573Y-77280933D01*
X156074881Y-77183436D01*
X155905500Y-77149135D01*
X154254500Y-77149135D01*
X154096263Y-77178909D01*
X153950933Y-77272427D01*
X153853436Y-77415119D01*
X153819135Y-77584500D01*
X153819135Y-79235500D01*
X153848909Y-79393737D01*
X153942427Y-79539067D01*
X154085119Y-79636564D01*
X154254500Y-79670865D01*
X154353000Y-79670865D01*
X154353000Y-79905974D01*
X154018801Y-80239589D01*
X153827718Y-80699769D01*
X153827283Y-81198045D01*
X154017563Y-81658557D01*
X154353000Y-81994581D01*
X154353000Y-82445974D01*
X154018801Y-82779589D01*
X153827718Y-83239769D01*
X153827283Y-83738045D01*
X154017563Y-84198557D01*
X154353000Y-84534581D01*
X154353000Y-84985974D01*
X154018801Y-85319589D01*
X153827718Y-85779769D01*
X153827283Y-86278045D01*
X154017563Y-86738557D01*
X154353000Y-87074581D01*
X154353000Y-87525974D01*
X154018801Y-87859589D01*
X153827718Y-88319769D01*
X153827283Y-88818045D01*
X154017563Y-89278557D01*
X154353000Y-89614581D01*
X154353000Y-90065974D01*
X154018801Y-90399589D01*
X153827718Y-90859769D01*
X153827283Y-91358045D01*
X154017563Y-91818557D01*
X154353000Y-92154581D01*
X154353000Y-92605974D01*
X154018801Y-92939589D01*
X153827718Y-93399769D01*
X153827283Y-93898045D01*
X154017563Y-94358557D01*
X154353000Y-94694581D01*
X154353000Y-95145974D01*
X154018801Y-95479589D01*
X153827718Y-95939769D01*
X153827304Y-96414562D01*
X153785641Y-96456225D01*
X153792282Y-96440231D01*
X153792717Y-95941955D01*
X153602437Y-95481443D01*
X153250411Y-95128801D01*
X152790231Y-94937718D01*
X152291955Y-94937283D01*
X151831443Y-95127563D01*
X151478801Y-95479589D01*
X151287718Y-95939769D01*
X151287283Y-96438045D01*
X151477563Y-96898557D01*
X151651701Y-97073000D01*
X148727000Y-97073000D01*
X148727000Y-93898045D01*
X151287283Y-93898045D01*
X151477563Y-94358557D01*
X151829589Y-94711199D01*
X152289769Y-94902282D01*
X152788045Y-94902717D01*
X153248557Y-94712437D01*
X153601199Y-94360411D01*
X153792282Y-93900231D01*
X153792717Y-93401955D01*
X153602437Y-92941443D01*
X153250411Y-92588801D01*
X152790231Y-92397718D01*
X152291955Y-92397283D01*
X151831443Y-92587563D01*
X151478801Y-92939589D01*
X151287718Y-93399769D01*
X151287283Y-93898045D01*
X148727000Y-93898045D01*
X148727000Y-91358045D01*
X151287283Y-91358045D01*
X151477563Y-91818557D01*
X151829589Y-92171199D01*
X152289769Y-92362282D01*
X152788045Y-92362717D01*
X153248557Y-92172437D01*
X153601199Y-91820411D01*
X153792282Y-91360231D01*
X153792717Y-90861955D01*
X153602437Y-90401443D01*
X153250411Y-90048801D01*
X152790231Y-89857718D01*
X152291955Y-89857283D01*
X151831443Y-90047563D01*
X151478801Y-90399589D01*
X151287718Y-90859769D01*
X151287283Y-91358045D01*
X148727000Y-91358045D01*
X148727000Y-90000005D01*
X148727001Y-90000000D01*
X148671660Y-89721790D01*
X148671660Y-89721789D01*
X148514067Y-89485933D01*
X148514064Y-89485931D01*
X148314067Y-89285933D01*
X148212716Y-89218213D01*
X148078211Y-89128340D01*
X148032052Y-89119158D01*
X147800000Y-89072999D01*
X147799995Y-89073000D01*
X147535365Y-89073000D01*
X147535365Y-88818045D01*
X151287283Y-88818045D01*
X151477563Y-89278557D01*
X151829589Y-89631199D01*
X152289769Y-89822282D01*
X152788045Y-89822717D01*
X153248557Y-89632437D01*
X153601199Y-89280411D01*
X153792282Y-88820231D01*
X153792717Y-88321955D01*
X153602437Y-87861443D01*
X153250411Y-87508801D01*
X152790231Y-87317718D01*
X152291955Y-87317283D01*
X151831443Y-87507563D01*
X151478801Y-87859589D01*
X151287718Y-88319769D01*
X151287283Y-88818045D01*
X147535365Y-88818045D01*
X147535365Y-88650000D01*
X147505591Y-88491763D01*
X147412073Y-88346433D01*
X147269381Y-88248936D01*
X147100000Y-88214635D01*
X144600000Y-88214635D01*
X144441763Y-88244409D01*
X144296433Y-88337927D01*
X144198936Y-88480619D01*
X144164635Y-88650000D01*
X144164635Y-90950000D01*
X144194409Y-91108237D01*
X144287927Y-91253567D01*
X144430619Y-91351064D01*
X144600000Y-91385365D01*
X147100000Y-91385365D01*
X147258237Y-91355591D01*
X147273000Y-91346091D01*
X147273000Y-92851409D01*
X147269381Y-92848936D01*
X147100000Y-92814635D01*
X144600000Y-92814635D01*
X144441763Y-92844409D01*
X144296433Y-92937927D01*
X144198936Y-93080619D01*
X144164635Y-93250000D01*
X144164635Y-95550000D01*
X144194409Y-95708237D01*
X144287927Y-95853567D01*
X144430619Y-95951064D01*
X144600000Y-95985365D01*
X147100000Y-95985365D01*
X147258237Y-95955591D01*
X147273000Y-95946091D01*
X147273000Y-97073000D01*
X146900000Y-97073000D01*
X146748659Y-97103104D01*
X146669381Y-97048936D01*
X146500000Y-97014635D01*
X143950000Y-97014635D01*
X143791763Y-97044409D01*
X143646433Y-97137927D01*
X143548936Y-97280619D01*
X143514635Y-97450000D01*
X143514635Y-99950000D01*
X143544409Y-100108237D01*
X143637927Y-100253567D01*
X143780619Y-100351064D01*
X143950000Y-100385365D01*
X146500000Y-100385365D01*
X146658237Y-100355591D01*
X146796800Y-100266427D01*
X146796800Y-100391568D01*
X144315368Y-102873000D01*
X138627000Y-102873000D01*
X138627000Y-100280869D01*
X138658124Y-100311993D01*
X138815065Y-100377000D01*
X140045250Y-100377000D01*
X140152000Y-100270250D01*
X140152000Y-98723000D01*
X140198000Y-98723000D01*
X140198000Y-100270250D01*
X140304750Y-100377000D01*
X141534935Y-100377000D01*
X141691876Y-100311993D01*
X141811993Y-100191876D01*
X141877000Y-100034936D01*
X141877000Y-98829750D01*
X141770250Y-98723000D01*
X140198000Y-98723000D01*
X140152000Y-98723000D01*
X140132000Y-98723000D01*
X140132000Y-98677000D01*
X140152000Y-98677000D01*
X140152000Y-97129750D01*
X140198000Y-97129750D01*
X140198000Y-98677000D01*
X141770250Y-98677000D01*
X141877000Y-98570250D01*
X141877000Y-97365064D01*
X141811993Y-97208124D01*
X141691876Y-97088007D01*
X141534935Y-97023000D01*
X140304750Y-97023000D01*
X140198000Y-97129750D01*
X140152000Y-97129750D01*
X140045250Y-97023000D01*
X139473806Y-97023000D01*
X139767846Y-96901505D01*
X140000688Y-96669070D01*
X140126856Y-96365222D01*
X140127143Y-96036221D01*
X140076748Y-95914256D01*
X140130619Y-95951064D01*
X140300000Y-95985365D01*
X142800000Y-95985365D01*
X142958237Y-95955591D01*
X143103567Y-95862073D01*
X143201064Y-95719381D01*
X143235365Y-95550000D01*
X143235365Y-93250000D01*
X143205591Y-93091763D01*
X143112073Y-92946433D01*
X142969381Y-92848936D01*
X142800000Y-92814635D01*
X140300000Y-92814635D01*
X140141763Y-92844409D01*
X139996433Y-92937927D01*
X139898936Y-93080619D01*
X139864635Y-93250000D01*
X139864635Y-93673000D01*
X139600000Y-93673000D01*
X139321789Y-93728340D01*
X139085933Y-93885933D01*
X138785933Y-94185933D01*
X138628340Y-94421789D01*
X138627000Y-94428525D01*
X138627000Y-90052606D01*
X139864635Y-88814971D01*
X139864635Y-90950000D01*
X139894409Y-91108237D01*
X139987927Y-91253567D01*
X140130619Y-91351064D01*
X140300000Y-91385365D01*
X142800000Y-91385365D01*
X142958237Y-91355591D01*
X143103567Y-91262073D01*
X143201064Y-91119381D01*
X143235365Y-90950000D01*
X143235365Y-88650000D01*
X143205591Y-88491763D01*
X143112073Y-88346433D01*
X142969381Y-88248936D01*
X142800000Y-88214635D01*
X142277000Y-88214635D01*
X142277000Y-87104342D01*
X143605447Y-85775894D01*
X143913334Y-86084319D01*
X144400885Y-86286769D01*
X144928798Y-86287229D01*
X145416703Y-86085631D01*
X145645389Y-85857343D01*
X146341184Y-85857343D01*
X146429451Y-86067959D01*
X146912560Y-86280793D01*
X147440342Y-86292548D01*
X147477686Y-86278045D01*
X151287283Y-86278045D01*
X151477563Y-86738557D01*
X151829589Y-87091199D01*
X152289769Y-87282282D01*
X152788045Y-87282717D01*
X153248557Y-87092437D01*
X153601199Y-86740411D01*
X153792282Y-86280231D01*
X153792717Y-85781955D01*
X153602437Y-85321443D01*
X153250411Y-84968801D01*
X152790231Y-84777718D01*
X152291955Y-84777283D01*
X151831443Y-84967563D01*
X151478801Y-85319589D01*
X151287718Y-85779769D01*
X151287283Y-86278045D01*
X147477686Y-86278045D01*
X147932448Y-86101435D01*
X147982549Y-86067959D01*
X148070816Y-85857343D01*
X147206000Y-84992527D01*
X146341184Y-85857343D01*
X145645389Y-85857343D01*
X145790319Y-85712666D01*
X145937290Y-85358722D01*
X146064565Y-85686448D01*
X146098041Y-85736549D01*
X146308657Y-85824816D01*
X147173473Y-84960000D01*
X147238527Y-84960000D01*
X148103343Y-85824816D01*
X148313959Y-85736549D01*
X148526793Y-85253440D01*
X148538548Y-84725658D01*
X148347435Y-84233552D01*
X148313959Y-84183451D01*
X148103343Y-84095184D01*
X147238527Y-84960000D01*
X147173473Y-84960000D01*
X146308657Y-84095184D01*
X146098041Y-84183451D01*
X145934416Y-84554862D01*
X145791631Y-84209297D01*
X145645247Y-84062657D01*
X146341184Y-84062657D01*
X147206000Y-84927473D01*
X148070816Y-84062657D01*
X147982549Y-83852041D01*
X147723792Y-83738045D01*
X151287283Y-83738045D01*
X151477563Y-84198557D01*
X151829589Y-84551199D01*
X152289769Y-84742282D01*
X152788045Y-84742717D01*
X153248557Y-84552437D01*
X153601199Y-84200411D01*
X153792282Y-83740231D01*
X153792717Y-83241955D01*
X153602437Y-82781443D01*
X153250411Y-82428801D01*
X152790231Y-82237718D01*
X152291955Y-82237283D01*
X151831443Y-82427563D01*
X151478801Y-82779589D01*
X151287718Y-83239769D01*
X151287283Y-83738045D01*
X147723792Y-83738045D01*
X147499440Y-83639207D01*
X146971658Y-83627452D01*
X146479552Y-83818565D01*
X146429451Y-83852041D01*
X146341184Y-84062657D01*
X145645247Y-84062657D01*
X145418666Y-83835681D01*
X144931115Y-83633231D01*
X144403202Y-83632771D01*
X143915297Y-83834369D01*
X143541681Y-84207334D01*
X143531023Y-84233000D01*
X143393213Y-84233000D01*
X143393208Y-84232999D01*
X143161156Y-84279158D01*
X143114997Y-84288340D01*
X142879141Y-84445933D01*
X142879139Y-84445936D01*
X141035933Y-86289141D01*
X140878340Y-86524997D01*
X140878340Y-86524998D01*
X140822999Y-86803208D01*
X140823000Y-86803213D01*
X140823000Y-88214635D01*
X140300000Y-88214635D01*
X140141763Y-88244409D01*
X140127000Y-88253909D01*
X140127000Y-86500000D01*
X140117666Y-86452211D01*
X140089803Y-86410197D01*
X138627000Y-84947394D01*
X138627000Y-80142798D01*
X143338771Y-80142798D01*
X143540369Y-80630703D01*
X143913334Y-81004319D01*
X144400885Y-81206769D01*
X144928798Y-81207229D01*
X145416703Y-81005631D01*
X145645389Y-80777343D01*
X146341184Y-80777343D01*
X146429451Y-80987959D01*
X146912560Y-81200793D01*
X147440342Y-81212548D01*
X147477686Y-81198045D01*
X151287283Y-81198045D01*
X151477563Y-81658557D01*
X151829589Y-82011199D01*
X152289769Y-82202282D01*
X152788045Y-82202717D01*
X153248557Y-82012437D01*
X153601199Y-81660411D01*
X153792282Y-81200231D01*
X153792717Y-80701955D01*
X153602437Y-80241443D01*
X153250411Y-79888801D01*
X152790231Y-79697718D01*
X152291955Y-79697283D01*
X151831443Y-79887563D01*
X151478801Y-80239589D01*
X151287718Y-80699769D01*
X151287283Y-81198045D01*
X147477686Y-81198045D01*
X147932448Y-81021435D01*
X147982549Y-80987959D01*
X148070816Y-80777343D01*
X147206000Y-79912527D01*
X146341184Y-80777343D01*
X145645389Y-80777343D01*
X145790319Y-80632666D01*
X145937290Y-80278722D01*
X146064565Y-80606448D01*
X146098041Y-80656549D01*
X146308657Y-80744816D01*
X147173473Y-79880000D01*
X147238527Y-79880000D01*
X148103343Y-80744816D01*
X148313959Y-80656549D01*
X148526793Y-80173440D01*
X148538548Y-79645658D01*
X148347435Y-79153552D01*
X148313959Y-79103451D01*
X148103343Y-79015184D01*
X147238527Y-79880000D01*
X147173473Y-79880000D01*
X146308657Y-79015184D01*
X146098041Y-79103451D01*
X145934416Y-79474862D01*
X145791631Y-79129297D01*
X145645247Y-78982657D01*
X146341184Y-78982657D01*
X147206000Y-79847473D01*
X148070816Y-78982657D01*
X147982549Y-78772041D01*
X147499440Y-78559207D01*
X146971658Y-78547452D01*
X146479552Y-78738565D01*
X146429451Y-78772041D01*
X146341184Y-78982657D01*
X145645247Y-78982657D01*
X145418666Y-78755681D01*
X144931115Y-78553231D01*
X144403202Y-78552771D01*
X143915297Y-78754369D01*
X143541681Y-79127334D01*
X143339231Y-79614885D01*
X143338771Y-80142798D01*
X138627000Y-80142798D01*
X138627000Y-77584500D01*
X151279135Y-77584500D01*
X151279135Y-79235500D01*
X151308909Y-79393737D01*
X151402427Y-79539067D01*
X151545119Y-79636564D01*
X151714500Y-79670865D01*
X153365500Y-79670865D01*
X153523737Y-79641091D01*
X153669067Y-79547573D01*
X153766564Y-79404881D01*
X153800865Y-79235500D01*
X153800865Y-77584500D01*
X153771091Y-77426263D01*
X153677573Y-77280933D01*
X153534881Y-77183436D01*
X153365500Y-77149135D01*
X151714500Y-77149135D01*
X151556263Y-77178909D01*
X151410933Y-77272427D01*
X151313436Y-77415119D01*
X151279135Y-77584500D01*
X138627000Y-77584500D01*
X138627000Y-76127000D01*
X161373000Y-76127000D01*
X161373000Y-84947394D01*
X161373000Y-84947394D01*
G37*
X161373000Y-84947394D02*
X159910197Y-86410197D01*
X159883006Y-86450590D01*
X159873000Y-86500000D01*
X159873000Y-88500000D01*
X159882334Y-88547789D01*
X159910197Y-88589803D01*
X161373000Y-90052606D01*
X161373000Y-99873000D01*
X149344037Y-99873000D01*
X149582989Y-99774267D01*
X149773598Y-99583990D01*
X149876882Y-99335254D01*
X149876948Y-99259401D01*
X150082989Y-99174267D01*
X150273598Y-98983990D01*
X150376882Y-98735254D01*
X150377064Y-98527000D01*
X153469995Y-98527000D01*
X153470000Y-98527001D01*
X153702052Y-98480842D01*
X153748211Y-98471660D01*
X153984067Y-98314067D01*
X154855829Y-97442305D01*
X155328045Y-97442717D01*
X155788557Y-97252437D01*
X156007754Y-97033622D01*
X156808905Y-97033622D01*
X156888105Y-97236497D01*
X157344294Y-97436921D01*
X157842457Y-97447513D01*
X158306753Y-97266660D01*
X158351895Y-97236497D01*
X158431095Y-97033622D01*
X157620000Y-96222527D01*
X156808905Y-97033622D01*
X156007754Y-97033622D01*
X156141199Y-96900411D01*
X156332282Y-96440231D01*
X156332306Y-96412457D01*
X156362487Y-96412457D01*
X156543340Y-96876753D01*
X156573503Y-96921895D01*
X156776378Y-97001095D01*
X157587473Y-96190000D01*
X157652527Y-96190000D01*
X158463622Y-97001095D01*
X158666497Y-96921895D01*
X158866921Y-96465706D01*
X158877513Y-95967543D01*
X158696660Y-95503247D01*
X158666497Y-95458105D01*
X158463622Y-95378905D01*
X157652527Y-96190000D01*
X157587473Y-96190000D01*
X156776378Y-95378905D01*
X156573503Y-95458105D01*
X156373079Y-95914294D01*
X156362487Y-96412457D01*
X156332306Y-96412457D01*
X156332717Y-95941955D01*
X156142437Y-95481443D01*
X156007608Y-95346378D01*
X156808905Y-95346378D01*
X157620000Y-96157473D01*
X158431095Y-95346378D01*
X158351895Y-95143503D01*
X157895706Y-94943079D01*
X157397543Y-94932487D01*
X156933247Y-95113340D01*
X156888105Y-95143503D01*
X156808905Y-95346378D01*
X156007608Y-95346378D01*
X155807000Y-95145419D01*
X155807000Y-94694026D01*
X156007754Y-94493622D01*
X156808905Y-94493622D01*
X156888105Y-94696497D01*
X157344294Y-94896921D01*
X157842457Y-94907513D01*
X158306753Y-94726660D01*
X158351895Y-94696497D01*
X158431095Y-94493622D01*
X157620000Y-93682527D01*
X156808905Y-94493622D01*
X156007754Y-94493622D01*
X156141199Y-94360411D01*
X156332282Y-93900231D01*
X156332306Y-93872457D01*
X156362487Y-93872457D01*
X156543340Y-94336753D01*
X156573503Y-94381895D01*
X156776378Y-94461095D01*
X157587473Y-93650000D01*
X157652527Y-93650000D01*
X158463622Y-94461095D01*
X158666497Y-94381895D01*
X158866921Y-93925706D01*
X158877513Y-93427543D01*
X158696660Y-92963247D01*
X158666497Y-92918105D01*
X158463622Y-92838905D01*
X157652527Y-93650000D01*
X157587473Y-93650000D01*
X156776378Y-92838905D01*
X156573503Y-92918105D01*
X156373079Y-93374294D01*
X156362487Y-93872457D01*
X156332306Y-93872457D01*
X156332717Y-93401955D01*
X156142437Y-92941443D01*
X156007608Y-92806378D01*
X156808905Y-92806378D01*
X157620000Y-93617473D01*
X158431095Y-92806378D01*
X158351895Y-92603503D01*
X157895706Y-92403079D01*
X157397543Y-92392487D01*
X156933247Y-92573340D01*
X156888105Y-92603503D01*
X156808905Y-92806378D01*
X156007608Y-92806378D01*
X155807000Y-92605419D01*
X155807000Y-92154026D01*
X156007754Y-91953622D01*
X156808905Y-91953622D01*
X156888105Y-92156497D01*
X157344294Y-92356921D01*
X157842457Y-92367513D01*
X158306753Y-92186660D01*
X158351895Y-92156497D01*
X158431095Y-91953622D01*
X157620000Y-91142527D01*
X156808905Y-91953622D01*
X156007754Y-91953622D01*
X156141199Y-91820411D01*
X156332282Y-91360231D01*
X156332306Y-91332457D01*
X156362487Y-91332457D01*
X156543340Y-91796753D01*
X156573503Y-91841895D01*
X156776378Y-91921095D01*
X157587473Y-91110000D01*
X157652527Y-91110000D01*
X158463622Y-91921095D01*
X158666497Y-91841895D01*
X158866921Y-91385706D01*
X158877513Y-90887543D01*
X158696660Y-90423247D01*
X158666497Y-90378105D01*
X158463622Y-90298905D01*
X157652527Y-91110000D01*
X157587473Y-91110000D01*
X156776378Y-90298905D01*
X156573503Y-90378105D01*
X156373079Y-90834294D01*
X156362487Y-91332457D01*
X156332306Y-91332457D01*
X156332717Y-90861955D01*
X156142437Y-90401443D01*
X156007608Y-90266378D01*
X156808905Y-90266378D01*
X157620000Y-91077473D01*
X158431095Y-90266378D01*
X158351895Y-90063503D01*
X157895706Y-89863079D01*
X157397543Y-89852487D01*
X156933247Y-90033340D01*
X156888105Y-90063503D01*
X156808905Y-90266378D01*
X156007608Y-90266378D01*
X155807000Y-90065419D01*
X155807000Y-89614026D01*
X156007754Y-89413622D01*
X156808905Y-89413622D01*
X156888105Y-89616497D01*
X157344294Y-89816921D01*
X157842457Y-89827513D01*
X158306753Y-89646660D01*
X158351895Y-89616497D01*
X158431095Y-89413622D01*
X157620000Y-88602527D01*
X156808905Y-89413622D01*
X156007754Y-89413622D01*
X156141199Y-89280411D01*
X156332282Y-88820231D01*
X156332306Y-88792457D01*
X156362487Y-88792457D01*
X156543340Y-89256753D01*
X156573503Y-89301895D01*
X156776378Y-89381095D01*
X157587473Y-88570000D01*
X157652527Y-88570000D01*
X158463622Y-89381095D01*
X158666497Y-89301895D01*
X158866921Y-88845706D01*
X158877513Y-88347543D01*
X158696660Y-87883247D01*
X158666497Y-87838105D01*
X158463622Y-87758905D01*
X157652527Y-88570000D01*
X157587473Y-88570000D01*
X156776378Y-87758905D01*
X156573503Y-87838105D01*
X156373079Y-88294294D01*
X156362487Y-88792457D01*
X156332306Y-88792457D01*
X156332717Y-88321955D01*
X156142437Y-87861443D01*
X156007608Y-87726378D01*
X156808905Y-87726378D01*
X157620000Y-88537473D01*
X158431095Y-87726378D01*
X158351895Y-87523503D01*
X157895706Y-87323079D01*
X157397543Y-87312487D01*
X156933247Y-87493340D01*
X156888105Y-87523503D01*
X156808905Y-87726378D01*
X156007608Y-87726378D01*
X155807000Y-87525419D01*
X155807000Y-87074026D01*
X156007754Y-86873622D01*
X156808905Y-86873622D01*
X156888105Y-87076497D01*
X157344294Y-87276921D01*
X157842457Y-87287513D01*
X158306753Y-87106660D01*
X158351895Y-87076497D01*
X158431095Y-86873622D01*
X157620000Y-86062527D01*
X156808905Y-86873622D01*
X156007754Y-86873622D01*
X156141199Y-86740411D01*
X156332282Y-86280231D01*
X156332306Y-86252457D01*
X156362487Y-86252457D01*
X156543340Y-86716753D01*
X156573503Y-86761895D01*
X156776378Y-86841095D01*
X157587473Y-86030000D01*
X157652527Y-86030000D01*
X158463622Y-86841095D01*
X158666497Y-86761895D01*
X158866921Y-86305706D01*
X158877513Y-85807543D01*
X158696660Y-85343247D01*
X158666497Y-85298105D01*
X158463622Y-85218905D01*
X157652527Y-86030000D01*
X157587473Y-86030000D01*
X156776378Y-85218905D01*
X156573503Y-85298105D01*
X156373079Y-85754294D01*
X156362487Y-86252457D01*
X156332306Y-86252457D01*
X156332717Y-85781955D01*
X156142437Y-85321443D01*
X156007608Y-85186378D01*
X156808905Y-85186378D01*
X157620000Y-85997473D01*
X158431095Y-85186378D01*
X158351895Y-84983503D01*
X157895706Y-84783079D01*
X157397543Y-84772487D01*
X156933247Y-84953340D01*
X156888105Y-84983503D01*
X156808905Y-85186378D01*
X156007608Y-85186378D01*
X155807000Y-84985419D01*
X155807000Y-84534026D01*
X156007754Y-84333622D01*
X156808905Y-84333622D01*
X156888105Y-84536497D01*
X157344294Y-84736921D01*
X157842457Y-84747513D01*
X158306753Y-84566660D01*
X158351895Y-84536497D01*
X158431095Y-84333622D01*
X157620000Y-83522527D01*
X156808905Y-84333622D01*
X156007754Y-84333622D01*
X156141199Y-84200411D01*
X156332282Y-83740231D01*
X156332306Y-83712457D01*
X156362487Y-83712457D01*
X156543340Y-84176753D01*
X156573503Y-84221895D01*
X156776378Y-84301095D01*
X157587473Y-83490000D01*
X157652527Y-83490000D01*
X158463622Y-84301095D01*
X158666497Y-84221895D01*
X158866921Y-83765706D01*
X158877513Y-83267543D01*
X158696660Y-82803247D01*
X158666497Y-82758105D01*
X158463622Y-82678905D01*
X157652527Y-83490000D01*
X157587473Y-83490000D01*
X156776378Y-82678905D01*
X156573503Y-82758105D01*
X156373079Y-83214294D01*
X156362487Y-83712457D01*
X156332306Y-83712457D01*
X156332717Y-83241955D01*
X156142437Y-82781443D01*
X156007608Y-82646378D01*
X156808905Y-82646378D01*
X157620000Y-83457473D01*
X158431095Y-82646378D01*
X158351895Y-82443503D01*
X157895706Y-82243079D01*
X157397543Y-82232487D01*
X156933247Y-82413340D01*
X156888105Y-82443503D01*
X156808905Y-82646378D01*
X156007608Y-82646378D01*
X155807000Y-82445419D01*
X155807000Y-81994026D01*
X156007754Y-81793622D01*
X156808905Y-81793622D01*
X156888105Y-81996497D01*
X157344294Y-82196921D01*
X157842457Y-82207513D01*
X158306753Y-82026660D01*
X158351895Y-81996497D01*
X158431095Y-81793622D01*
X157620000Y-80982527D01*
X156808905Y-81793622D01*
X156007754Y-81793622D01*
X156141199Y-81660411D01*
X156332282Y-81200231D01*
X156332306Y-81172457D01*
X156362487Y-81172457D01*
X156543340Y-81636753D01*
X156573503Y-81681895D01*
X156776378Y-81761095D01*
X157587473Y-80950000D01*
X157652527Y-80950000D01*
X158463622Y-81761095D01*
X158666497Y-81681895D01*
X158866921Y-81225706D01*
X158877513Y-80727543D01*
X158696660Y-80263247D01*
X158666497Y-80218105D01*
X158463622Y-80138905D01*
X157652527Y-80950000D01*
X157587473Y-80950000D01*
X156776378Y-80138905D01*
X156573503Y-80218105D01*
X156373079Y-80674294D01*
X156362487Y-81172457D01*
X156332306Y-81172457D01*
X156332717Y-80701955D01*
X156142437Y-80241443D01*
X156007608Y-80106378D01*
X156808905Y-80106378D01*
X157620000Y-80917473D01*
X158431095Y-80106378D01*
X158351895Y-79903503D01*
X157895706Y-79703079D01*
X157397543Y-79692487D01*
X156933247Y-79873340D01*
X156888105Y-79903503D01*
X156808905Y-80106378D01*
X156007608Y-80106378D01*
X155807000Y-79905419D01*
X155807000Y-79670865D01*
X155905500Y-79670865D01*
X156063737Y-79641091D01*
X156209067Y-79547573D01*
X156306564Y-79404881D01*
X156340865Y-79235500D01*
X156340865Y-78539750D01*
X156367500Y-78539750D01*
X156367500Y-79320436D01*
X156432507Y-79477376D01*
X156552624Y-79597493D01*
X156709565Y-79662500D01*
X157490250Y-79662500D01*
X157597000Y-79555750D01*
X157597000Y-78433000D01*
X157643000Y-78433000D01*
X157643000Y-79555750D01*
X157749750Y-79662500D01*
X158530435Y-79662500D01*
X158687376Y-79597493D01*
X158807493Y-79477376D01*
X158872500Y-79320436D01*
X158872500Y-78539750D01*
X158765750Y-78433000D01*
X157643000Y-78433000D01*
X157597000Y-78433000D01*
X156474250Y-78433000D01*
X156367500Y-78539750D01*
X156340865Y-78539750D01*
X156340865Y-77584500D01*
X156324884Y-77499564D01*
X156367500Y-77499564D01*
X156367500Y-78280250D01*
X156474250Y-78387000D01*
X157597000Y-78387000D01*
X157597000Y-77264250D01*
X157643000Y-77264250D01*
X157643000Y-78387000D01*
X158765750Y-78387000D01*
X158872500Y-78280250D01*
X158872500Y-77499564D01*
X158807493Y-77342624D01*
X158687376Y-77222507D01*
X158530435Y-77157500D01*
X157749750Y-77157500D01*
X157643000Y-77264250D01*
X157597000Y-77264250D01*
X157490250Y-77157500D01*
X156709565Y-77157500D01*
X156552624Y-77222507D01*
X156432507Y-77342624D01*
X156367500Y-77499564D01*
X156324884Y-77499564D01*
X156311091Y-77426263D01*
X156217573Y-77280933D01*
X156074881Y-77183436D01*
X155905500Y-77149135D01*
X154254500Y-77149135D01*
X154096263Y-77178909D01*
X153950933Y-77272427D01*
X153853436Y-77415119D01*
X153819135Y-77584500D01*
X153819135Y-79235500D01*
X153848909Y-79393737D01*
X153942427Y-79539067D01*
X154085119Y-79636564D01*
X154254500Y-79670865D01*
X154353000Y-79670865D01*
X154353000Y-79905974D01*
X154018801Y-80239589D01*
X153827718Y-80699769D01*
X153827283Y-81198045D01*
X154017563Y-81658557D01*
X154353000Y-81994581D01*
X154353000Y-82445974D01*
X154018801Y-82779589D01*
X153827718Y-83239769D01*
X153827283Y-83738045D01*
X154017563Y-84198557D01*
X154353000Y-84534581D01*
X154353000Y-84985974D01*
X154018801Y-85319589D01*
X153827718Y-85779769D01*
X153827283Y-86278045D01*
X154017563Y-86738557D01*
X154353000Y-87074581D01*
X154353000Y-87525974D01*
X154018801Y-87859589D01*
X153827718Y-88319769D01*
X153827283Y-88818045D01*
X154017563Y-89278557D01*
X154353000Y-89614581D01*
X154353000Y-90065974D01*
X154018801Y-90399589D01*
X153827718Y-90859769D01*
X153827283Y-91358045D01*
X154017563Y-91818557D01*
X154353000Y-92154581D01*
X154353000Y-92605974D01*
X154018801Y-92939589D01*
X153827718Y-93399769D01*
X153827283Y-93898045D01*
X154017563Y-94358557D01*
X154353000Y-94694581D01*
X154353000Y-95145974D01*
X154018801Y-95479589D01*
X153827718Y-95939769D01*
X153827304Y-96414562D01*
X153785641Y-96456225D01*
X153792282Y-96440231D01*
X153792717Y-95941955D01*
X153602437Y-95481443D01*
X153250411Y-95128801D01*
X152790231Y-94937718D01*
X152291955Y-94937283D01*
X151831443Y-95127563D01*
X151478801Y-95479589D01*
X151287718Y-95939769D01*
X151287283Y-96438045D01*
X151477563Y-96898557D01*
X151651701Y-97073000D01*
X148727000Y-97073000D01*
X148727000Y-93898045D01*
X151287283Y-93898045D01*
X151477563Y-94358557D01*
X151829589Y-94711199D01*
X152289769Y-94902282D01*
X152788045Y-94902717D01*
X153248557Y-94712437D01*
X153601199Y-94360411D01*
X153792282Y-93900231D01*
X153792717Y-93401955D01*
X153602437Y-92941443D01*
X153250411Y-92588801D01*
X152790231Y-92397718D01*
X152291955Y-92397283D01*
X151831443Y-92587563D01*
X151478801Y-92939589D01*
X151287718Y-93399769D01*
X151287283Y-93898045D01*
X148727000Y-93898045D01*
X148727000Y-91358045D01*
X151287283Y-91358045D01*
X151477563Y-91818557D01*
X151829589Y-92171199D01*
X152289769Y-92362282D01*
X152788045Y-92362717D01*
X153248557Y-92172437D01*
X153601199Y-91820411D01*
X153792282Y-91360231D01*
X153792717Y-90861955D01*
X153602437Y-90401443D01*
X153250411Y-90048801D01*
X152790231Y-89857718D01*
X152291955Y-89857283D01*
X151831443Y-90047563D01*
X151478801Y-90399589D01*
X151287718Y-90859769D01*
X151287283Y-91358045D01*
X148727000Y-91358045D01*
X148727000Y-90000005D01*
X148727001Y-90000000D01*
X148671660Y-89721790D01*
X148671660Y-89721789D01*
X148514067Y-89485933D01*
X148514064Y-89485931D01*
X148314067Y-89285933D01*
X148212716Y-89218213D01*
X148078211Y-89128340D01*
X148032052Y-89119158D01*
X147800000Y-89072999D01*
X147799995Y-89073000D01*
X147535365Y-89073000D01*
X147535365Y-88818045D01*
X151287283Y-88818045D01*
X151477563Y-89278557D01*
X151829589Y-89631199D01*
X152289769Y-89822282D01*
X152788045Y-89822717D01*
X153248557Y-89632437D01*
X153601199Y-89280411D01*
X153792282Y-88820231D01*
X153792717Y-88321955D01*
X153602437Y-87861443D01*
X153250411Y-87508801D01*
X152790231Y-87317718D01*
X152291955Y-87317283D01*
X151831443Y-87507563D01*
X151478801Y-87859589D01*
X151287718Y-88319769D01*
X151287283Y-88818045D01*
X147535365Y-88818045D01*
X147535365Y-88650000D01*
X147505591Y-88491763D01*
X147412073Y-88346433D01*
X147269381Y-88248936D01*
X147100000Y-88214635D01*
X144600000Y-88214635D01*
X144441763Y-88244409D01*
X144296433Y-88337927D01*
X144198936Y-88480619D01*
X144164635Y-88650000D01*
X144164635Y-90950000D01*
X144194409Y-91108237D01*
X144287927Y-91253567D01*
X144430619Y-91351064D01*
X144600000Y-91385365D01*
X147100000Y-91385365D01*
X147258237Y-91355591D01*
X147273000Y-91346091D01*
X147273000Y-92851409D01*
X147269381Y-92848936D01*
X147100000Y-92814635D01*
X144600000Y-92814635D01*
X144441763Y-92844409D01*
X144296433Y-92937927D01*
X144198936Y-93080619D01*
X144164635Y-93250000D01*
X144164635Y-95550000D01*
X144194409Y-95708237D01*
X144287927Y-95853567D01*
X144430619Y-95951064D01*
X144600000Y-95985365D01*
X147100000Y-95985365D01*
X147258237Y-95955591D01*
X147273000Y-95946091D01*
X147273000Y-97073000D01*
X146900000Y-97073000D01*
X146748659Y-97103104D01*
X146669381Y-97048936D01*
X146500000Y-97014635D01*
X143950000Y-97014635D01*
X143791763Y-97044409D01*
X143646433Y-97137927D01*
X143548936Y-97280619D01*
X143514635Y-97450000D01*
X143514635Y-99950000D01*
X143544409Y-100108237D01*
X143637927Y-100253567D01*
X143780619Y-100351064D01*
X143950000Y-100385365D01*
X146500000Y-100385365D01*
X146658237Y-100355591D01*
X146796800Y-100266427D01*
X146796800Y-100391568D01*
X144315368Y-102873000D01*
X138627000Y-102873000D01*
X138627000Y-100280869D01*
X138658124Y-100311993D01*
X138815065Y-100377000D01*
X140045250Y-100377000D01*
X140152000Y-100270250D01*
X140152000Y-98723000D01*
X140198000Y-98723000D01*
X140198000Y-100270250D01*
X140304750Y-100377000D01*
X141534935Y-100377000D01*
X141691876Y-100311993D01*
X141811993Y-100191876D01*
X141877000Y-100034936D01*
X141877000Y-98829750D01*
X141770250Y-98723000D01*
X140198000Y-98723000D01*
X140152000Y-98723000D01*
X140132000Y-98723000D01*
X140132000Y-98677000D01*
X140152000Y-98677000D01*
X140152000Y-97129750D01*
X140198000Y-97129750D01*
X140198000Y-98677000D01*
X141770250Y-98677000D01*
X141877000Y-98570250D01*
X141877000Y-97365064D01*
X141811993Y-97208124D01*
X141691876Y-97088007D01*
X141534935Y-97023000D01*
X140304750Y-97023000D01*
X140198000Y-97129750D01*
X140152000Y-97129750D01*
X140045250Y-97023000D01*
X139473806Y-97023000D01*
X139767846Y-96901505D01*
X140000688Y-96669070D01*
X140126856Y-96365222D01*
X140127143Y-96036221D01*
X140076748Y-95914256D01*
X140130619Y-95951064D01*
X140300000Y-95985365D01*
X142800000Y-95985365D01*
X142958237Y-95955591D01*
X143103567Y-95862073D01*
X143201064Y-95719381D01*
X143235365Y-95550000D01*
X143235365Y-93250000D01*
X143205591Y-93091763D01*
X143112073Y-92946433D01*
X142969381Y-92848936D01*
X142800000Y-92814635D01*
X140300000Y-92814635D01*
X140141763Y-92844409D01*
X139996433Y-92937927D01*
X139898936Y-93080619D01*
X139864635Y-93250000D01*
X139864635Y-93673000D01*
X139600000Y-93673000D01*
X139321789Y-93728340D01*
X139085933Y-93885933D01*
X138785933Y-94185933D01*
X138628340Y-94421789D01*
X138627000Y-94428525D01*
X138627000Y-90052606D01*
X139864635Y-88814971D01*
X139864635Y-90950000D01*
X139894409Y-91108237D01*
X139987927Y-91253567D01*
X140130619Y-91351064D01*
X140300000Y-91385365D01*
X142800000Y-91385365D01*
X142958237Y-91355591D01*
X143103567Y-91262073D01*
X143201064Y-91119381D01*
X143235365Y-90950000D01*
X143235365Y-88650000D01*
X143205591Y-88491763D01*
X143112073Y-88346433D01*
X142969381Y-88248936D01*
X142800000Y-88214635D01*
X142277000Y-88214635D01*
X142277000Y-87104342D01*
X143605447Y-85775894D01*
X143913334Y-86084319D01*
X144400885Y-86286769D01*
X144928798Y-86287229D01*
X145416703Y-86085631D01*
X145645389Y-85857343D01*
X146341184Y-85857343D01*
X146429451Y-86067959D01*
X146912560Y-86280793D01*
X147440342Y-86292548D01*
X147477686Y-86278045D01*
X151287283Y-86278045D01*
X151477563Y-86738557D01*
X151829589Y-87091199D01*
X152289769Y-87282282D01*
X152788045Y-87282717D01*
X153248557Y-87092437D01*
X153601199Y-86740411D01*
X153792282Y-86280231D01*
X153792717Y-85781955D01*
X153602437Y-85321443D01*
X153250411Y-84968801D01*
X152790231Y-84777718D01*
X152291955Y-84777283D01*
X151831443Y-84967563D01*
X151478801Y-85319589D01*
X151287718Y-85779769D01*
X151287283Y-86278045D01*
X147477686Y-86278045D01*
X147932448Y-86101435D01*
X147982549Y-86067959D01*
X148070816Y-85857343D01*
X147206000Y-84992527D01*
X146341184Y-85857343D01*
X145645389Y-85857343D01*
X145790319Y-85712666D01*
X145937290Y-85358722D01*
X146064565Y-85686448D01*
X146098041Y-85736549D01*
X146308657Y-85824816D01*
X147173473Y-84960000D01*
X147238527Y-84960000D01*
X148103343Y-85824816D01*
X148313959Y-85736549D01*
X148526793Y-85253440D01*
X148538548Y-84725658D01*
X148347435Y-84233552D01*
X148313959Y-84183451D01*
X148103343Y-84095184D01*
X147238527Y-84960000D01*
X147173473Y-84960000D01*
X146308657Y-84095184D01*
X146098041Y-84183451D01*
X145934416Y-84554862D01*
X145791631Y-84209297D01*
X145645247Y-84062657D01*
X146341184Y-84062657D01*
X147206000Y-84927473D01*
X148070816Y-84062657D01*
X147982549Y-83852041D01*
X147723792Y-83738045D01*
X151287283Y-83738045D01*
X151477563Y-84198557D01*
X151829589Y-84551199D01*
X152289769Y-84742282D01*
X152788045Y-84742717D01*
X153248557Y-84552437D01*
X153601199Y-84200411D01*
X153792282Y-83740231D01*
X153792717Y-83241955D01*
X153602437Y-82781443D01*
X153250411Y-82428801D01*
X152790231Y-82237718D01*
X152291955Y-82237283D01*
X151831443Y-82427563D01*
X151478801Y-82779589D01*
X151287718Y-83239769D01*
X151287283Y-83738045D01*
X147723792Y-83738045D01*
X147499440Y-83639207D01*
X146971658Y-83627452D01*
X146479552Y-83818565D01*
X146429451Y-83852041D01*
X146341184Y-84062657D01*
X145645247Y-84062657D01*
X145418666Y-83835681D01*
X144931115Y-83633231D01*
X144403202Y-83632771D01*
X143915297Y-83834369D01*
X143541681Y-84207334D01*
X143531023Y-84233000D01*
X143393213Y-84233000D01*
X143393208Y-84232999D01*
X143161156Y-84279158D01*
X143114997Y-84288340D01*
X142879141Y-84445933D01*
X142879139Y-84445936D01*
X141035933Y-86289141D01*
X140878340Y-86524997D01*
X140878340Y-86524998D01*
X140822999Y-86803208D01*
X140823000Y-86803213D01*
X140823000Y-88214635D01*
X140300000Y-88214635D01*
X140141763Y-88244409D01*
X140127000Y-88253909D01*
X140127000Y-86500000D01*
X140117666Y-86452211D01*
X140089803Y-86410197D01*
X138627000Y-84947394D01*
X138627000Y-80142798D01*
X143338771Y-80142798D01*
X143540369Y-80630703D01*
X143913334Y-81004319D01*
X144400885Y-81206769D01*
X144928798Y-81207229D01*
X145416703Y-81005631D01*
X145645389Y-80777343D01*
X146341184Y-80777343D01*
X146429451Y-80987959D01*
X146912560Y-81200793D01*
X147440342Y-81212548D01*
X147477686Y-81198045D01*
X151287283Y-81198045D01*
X151477563Y-81658557D01*
X151829589Y-82011199D01*
X152289769Y-82202282D01*
X152788045Y-82202717D01*
X153248557Y-82012437D01*
X153601199Y-81660411D01*
X153792282Y-81200231D01*
X153792717Y-80701955D01*
X153602437Y-80241443D01*
X153250411Y-79888801D01*
X152790231Y-79697718D01*
X152291955Y-79697283D01*
X151831443Y-79887563D01*
X151478801Y-80239589D01*
X151287718Y-80699769D01*
X151287283Y-81198045D01*
X147477686Y-81198045D01*
X147932448Y-81021435D01*
X147982549Y-80987959D01*
X148070816Y-80777343D01*
X147206000Y-79912527D01*
X146341184Y-80777343D01*
X145645389Y-80777343D01*
X145790319Y-80632666D01*
X145937290Y-80278722D01*
X146064565Y-80606448D01*
X146098041Y-80656549D01*
X146308657Y-80744816D01*
X147173473Y-79880000D01*
X147238527Y-79880000D01*
X148103343Y-80744816D01*
X148313959Y-80656549D01*
X148526793Y-80173440D01*
X148538548Y-79645658D01*
X148347435Y-79153552D01*
X148313959Y-79103451D01*
X148103343Y-79015184D01*
X147238527Y-79880000D01*
X147173473Y-79880000D01*
X146308657Y-79015184D01*
X146098041Y-79103451D01*
X145934416Y-79474862D01*
X145791631Y-79129297D01*
X145645247Y-78982657D01*
X146341184Y-78982657D01*
X147206000Y-79847473D01*
X148070816Y-78982657D01*
X147982549Y-78772041D01*
X147499440Y-78559207D01*
X146971658Y-78547452D01*
X146479552Y-78738565D01*
X146429451Y-78772041D01*
X146341184Y-78982657D01*
X145645247Y-78982657D01*
X145418666Y-78755681D01*
X144931115Y-78553231D01*
X144403202Y-78552771D01*
X143915297Y-78754369D01*
X143541681Y-79127334D01*
X143339231Y-79614885D01*
X143338771Y-80142798D01*
X138627000Y-80142798D01*
X138627000Y-77584500D01*
X151279135Y-77584500D01*
X151279135Y-79235500D01*
X151308909Y-79393737D01*
X151402427Y-79539067D01*
X151545119Y-79636564D01*
X151714500Y-79670865D01*
X153365500Y-79670865D01*
X153523737Y-79641091D01*
X153669067Y-79547573D01*
X153766564Y-79404881D01*
X153800865Y-79235500D01*
X153800865Y-77584500D01*
X153771091Y-77426263D01*
X153677573Y-77280933D01*
X153534881Y-77183436D01*
X153365500Y-77149135D01*
X151714500Y-77149135D01*
X151556263Y-77178909D01*
X151410933Y-77272427D01*
X151313436Y-77415119D01*
X151279135Y-77584500D01*
X138627000Y-77584500D01*
X138627000Y-76127000D01*
X161373000Y-76127000D01*
X161373000Y-84947394D01*
G36*
X142814635Y-116850000D02*
X142814635Y-117750000D01*
X142844409Y-117908237D01*
X142937927Y-118053567D01*
X143080619Y-118151064D01*
X143250000Y-118185365D01*
X143750000Y-118185365D01*
X143823000Y-118171629D01*
X143823000Y-119000000D01*
X143874534Y-119259077D01*
X143884237Y-119273598D01*
X144021289Y-119478711D01*
X145282213Y-120739635D01*
X144650000Y-120739635D01*
X144491763Y-120769409D01*
X144346433Y-120862927D01*
X144248936Y-121005619D01*
X144214635Y-121175000D01*
X144214635Y-123873000D01*
X140127000Y-123873000D01*
X140127000Y-123390523D01*
X140215064Y-123427000D01*
X140970250Y-123427000D01*
X141077000Y-123320250D01*
X141077000Y-122523000D01*
X141123000Y-122523000D01*
X141123000Y-123320250D01*
X141229750Y-123427000D01*
X141984936Y-123427000D01*
X142141876Y-123361993D01*
X142261993Y-123241876D01*
X142327000Y-123084935D01*
X142327000Y-122629750D01*
X142220250Y-122523000D01*
X141123000Y-122523000D01*
X141077000Y-122523000D01*
X141057000Y-122523000D01*
X141057000Y-122477000D01*
X141077000Y-122477000D01*
X141077000Y-121679750D01*
X141123000Y-121679750D01*
X141123000Y-122477000D01*
X142220250Y-122477000D01*
X142327000Y-122370250D01*
X142327000Y-121915065D01*
X142261993Y-121758124D01*
X142141876Y-121638007D01*
X141984936Y-121573000D01*
X141229750Y-121573000D01*
X141123000Y-121679750D01*
X141077000Y-121679750D01*
X140970250Y-121573000D01*
X140215064Y-121573000D01*
X140127000Y-121609477D01*
X140127000Y-120398591D01*
X140130619Y-120401064D01*
X140300000Y-120435365D01*
X141900000Y-120435365D01*
X142058237Y-120405591D01*
X142203567Y-120312073D01*
X142301064Y-120169381D01*
X142335365Y-120000000D01*
X142335365Y-119000000D01*
X142305591Y-118841763D01*
X142212073Y-118696433D01*
X142069381Y-118598936D01*
X141900000Y-118564635D01*
X141777000Y-118564635D01*
X141777000Y-118185365D01*
X142250000Y-118185365D01*
X142408237Y-118155591D01*
X142553567Y-118062073D01*
X142651064Y-117919381D01*
X142685365Y-117750000D01*
X142685365Y-116850000D01*
X142671629Y-116777000D01*
X142829418Y-116777000D01*
X142814635Y-116850000D01*
X142814635Y-116850000D01*
G37*
X142814635Y-116850000D02*
X142814635Y-117750000D01*
X142844409Y-117908237D01*
X142937927Y-118053567D01*
X143080619Y-118151064D01*
X143250000Y-118185365D01*
X143750000Y-118185365D01*
X143823000Y-118171629D01*
X143823000Y-119000000D01*
X143874534Y-119259077D01*
X143884237Y-119273598D01*
X144021289Y-119478711D01*
X145282213Y-120739635D01*
X144650000Y-120739635D01*
X144491763Y-120769409D01*
X144346433Y-120862927D01*
X144248936Y-121005619D01*
X144214635Y-121175000D01*
X144214635Y-123873000D01*
X140127000Y-123873000D01*
X140127000Y-123390523D01*
X140215064Y-123427000D01*
X140970250Y-123427000D01*
X141077000Y-123320250D01*
X141077000Y-122523000D01*
X141123000Y-122523000D01*
X141123000Y-123320250D01*
X141229750Y-123427000D01*
X141984936Y-123427000D01*
X142141876Y-123361993D01*
X142261993Y-123241876D01*
X142327000Y-123084935D01*
X142327000Y-122629750D01*
X142220250Y-122523000D01*
X141123000Y-122523000D01*
X141077000Y-122523000D01*
X141057000Y-122523000D01*
X141057000Y-122477000D01*
X141077000Y-122477000D01*
X141077000Y-121679750D01*
X141123000Y-121679750D01*
X141123000Y-122477000D01*
X142220250Y-122477000D01*
X142327000Y-122370250D01*
X142327000Y-121915065D01*
X142261993Y-121758124D01*
X142141876Y-121638007D01*
X141984936Y-121573000D01*
X141229750Y-121573000D01*
X141123000Y-121679750D01*
X141077000Y-121679750D01*
X140970250Y-121573000D01*
X140215064Y-121573000D01*
X140127000Y-121609477D01*
X140127000Y-120398591D01*
X140130619Y-120401064D01*
X140300000Y-120435365D01*
X141900000Y-120435365D01*
X142058237Y-120405591D01*
X142203567Y-120312073D01*
X142301064Y-120169381D01*
X142335365Y-120000000D01*
X142335365Y-119000000D01*
X142305591Y-118841763D01*
X142212073Y-118696433D01*
X142069381Y-118598936D01*
X141900000Y-118564635D01*
X141777000Y-118564635D01*
X141777000Y-118185365D01*
X142250000Y-118185365D01*
X142408237Y-118155591D01*
X142553567Y-118062073D01*
X142651064Y-117919381D01*
X142685365Y-117750000D01*
X142685365Y-116850000D01*
X142671629Y-116777000D01*
X142829418Y-116777000D01*
X142814635Y-116850000D01*
G36*
X161373000Y-109947394D02*
X159910197Y-111410197D01*
X159883006Y-111450590D01*
X159873000Y-111500000D01*
X159873000Y-123873000D01*
X155785365Y-123873000D01*
X155785365Y-121175000D01*
X155755591Y-121016763D01*
X155662073Y-120871433D01*
X155519381Y-120773936D01*
X155350000Y-120739635D01*
X154350000Y-120739635D01*
X154191763Y-120769409D01*
X154152177Y-120794882D01*
X153983990Y-120626402D01*
X153735254Y-120523118D01*
X153634662Y-120523030D01*
X153628200Y-120516568D01*
X153628200Y-120501658D01*
X153728567Y-120437073D01*
X153826064Y-120294381D01*
X153860365Y-120125000D01*
X153860365Y-119333539D01*
X153964746Y-119376882D01*
X154234073Y-119377117D01*
X154482989Y-119274267D01*
X154600037Y-119157423D01*
X154716010Y-119273598D01*
X154964746Y-119376882D01*
X155234073Y-119377117D01*
X155482989Y-119274267D01*
X155673598Y-119083990D01*
X155776882Y-118835254D01*
X155777117Y-118565927D01*
X155674267Y-118317011D01*
X155483990Y-118126402D01*
X155303200Y-118051332D01*
X155303200Y-115254265D01*
X155373598Y-115183990D01*
X155476882Y-114935254D01*
X155477117Y-114665927D01*
X155374267Y-114417011D01*
X155184609Y-114227023D01*
X155534602Y-113877030D01*
X155634073Y-113877117D01*
X155882989Y-113774267D01*
X156073598Y-113583990D01*
X156176882Y-113335254D01*
X156177117Y-113065927D01*
X156074267Y-112817011D01*
X155934566Y-112677066D01*
X156455816Y-112155816D01*
X156564896Y-111992566D01*
X156603200Y-111800000D01*
X156603200Y-108443146D01*
X156564896Y-108250580D01*
X156455816Y-108087330D01*
X155642853Y-107274367D01*
X155656896Y-107260324D01*
X155803651Y-107040689D01*
X155855184Y-106781613D01*
X155803651Y-106522537D01*
X155656896Y-106302902D01*
X155437261Y-106156147D01*
X155271031Y-106123082D01*
X155237966Y-105956851D01*
X155091211Y-105737216D01*
X154871576Y-105590461D01*
X154705345Y-105557396D01*
X154672280Y-105391166D01*
X154525525Y-105171531D01*
X154305890Y-105024776D01*
X154139660Y-104991711D01*
X154106595Y-104825481D01*
X153959840Y-104605846D01*
X153740205Y-104459091D01*
X153555056Y-104422263D01*
X153515802Y-104254851D01*
X153460045Y-104156083D01*
X153318300Y-104148541D01*
X152578111Y-104888730D01*
X152592253Y-104902872D01*
X152559726Y-104935399D01*
X152545584Y-104921257D01*
X151805395Y-105661446D01*
X151812937Y-105803191D01*
X151911705Y-105858948D01*
X152079116Y-105898201D01*
X152115945Y-106083351D01*
X152262700Y-106302986D01*
X152482335Y-106449741D01*
X152648565Y-106482806D01*
X152681630Y-106649036D01*
X152828385Y-106868671D01*
X153017436Y-106994990D01*
X149513509Y-110498916D01*
X148621145Y-110498916D01*
X148621140Y-110498915D01*
X148438213Y-110535303D01*
X148424634Y-110477391D01*
X148368877Y-110378623D01*
X148227132Y-110371081D01*
X147486943Y-111111270D01*
X147501085Y-111125412D01*
X147468558Y-111157939D01*
X147454416Y-111143797D01*
X146714227Y-111883986D01*
X146721769Y-112025731D01*
X146807133Y-112073921D01*
X146563599Y-112317455D01*
X146143205Y-112317455D01*
X146143205Y-112107111D01*
X146491764Y-111758551D01*
X146539955Y-111843917D01*
X146681700Y-111851459D01*
X147421889Y-111111270D01*
X147407747Y-111097128D01*
X147440274Y-111064601D01*
X147454416Y-111078743D01*
X148194605Y-110338554D01*
X148187063Y-110196809D01*
X148088295Y-110141052D01*
X147920883Y-110101798D01*
X147884055Y-109916649D01*
X147737300Y-109697014D01*
X147517665Y-109550259D01*
X147332516Y-109513431D01*
X147293263Y-109346020D01*
X147237506Y-109247252D01*
X147095761Y-109239710D01*
X146355572Y-109979899D01*
X146369714Y-109994041D01*
X146337187Y-110026568D01*
X146323045Y-110012426D01*
X145582856Y-110752615D01*
X145590398Y-110894360D01*
X145675762Y-110942550D01*
X145158204Y-111460108D01*
X145033127Y-111647301D01*
X144989204Y-111868109D01*
X144989205Y-111868114D01*
X144989205Y-112047458D01*
X144943104Y-112015959D01*
X144895253Y-112005579D01*
X144847348Y-111889926D01*
X144727232Y-111769809D01*
X144737615Y-111780193D01*
X144586648Y-111780193D01*
X144199684Y-112167157D01*
X144213826Y-112181299D01*
X144181299Y-112213826D01*
X144167157Y-112199684D01*
X143780193Y-112586648D01*
X143780193Y-112737615D01*
X143769809Y-112727232D01*
X143889926Y-112847348D01*
X144004257Y-112894706D01*
X144011279Y-112932023D01*
X144106795Y-113076048D01*
X144266992Y-113236245D01*
X144021289Y-113481949D01*
X143917760Y-113636890D01*
X143855816Y-113544184D01*
X142903200Y-112591568D01*
X142903200Y-112117577D01*
X143421959Y-112117577D01*
X143421959Y-112287448D01*
X143486966Y-112444388D01*
X143607082Y-112564505D01*
X143596699Y-112554121D01*
X143747666Y-112554121D01*
X144134630Y-112167157D01*
X143783021Y-111815548D01*
X143632054Y-111815548D01*
X143486966Y-111960636D01*
X143421959Y-112117577D01*
X142903200Y-112117577D01*
X142903200Y-111632054D01*
X143815548Y-111632054D01*
X143815548Y-111783021D01*
X144167157Y-112134630D01*
X144554121Y-111747666D01*
X144554121Y-111596699D01*
X144563669Y-111606246D01*
X144444388Y-111486966D01*
X144287448Y-111421959D01*
X144117577Y-111421959D01*
X143960636Y-111486966D01*
X143815548Y-111632054D01*
X142903200Y-111632054D01*
X142903200Y-109194479D01*
X142944184Y-109255816D01*
X144244184Y-110555816D01*
X144407434Y-110664896D01*
X144600000Y-110703200D01*
X144971573Y-110703200D01*
X145164139Y-110664896D01*
X145327389Y-110555816D01*
X145336986Y-110546219D01*
X145352827Y-110613778D01*
X145408584Y-110712546D01*
X145550329Y-110720088D01*
X146290518Y-109979899D01*
X146276376Y-109965757D01*
X146308903Y-109933230D01*
X146323045Y-109947372D01*
X147063234Y-109207183D01*
X147055692Y-109065438D01*
X146956924Y-109009681D01*
X146789512Y-108970427D01*
X146752684Y-108785279D01*
X146605929Y-108565644D01*
X146386294Y-108418889D01*
X146220064Y-108385824D01*
X146186999Y-108219593D01*
X146040272Y-108000000D01*
X146186999Y-107780407D01*
X146220064Y-107614176D01*
X146386294Y-107581111D01*
X146605929Y-107434356D01*
X146752684Y-107214721D01*
X146785749Y-107048491D01*
X146951980Y-107015426D01*
X147171615Y-106868671D01*
X147318370Y-106649036D01*
X147351435Y-106482806D01*
X147517665Y-106449741D01*
X147737300Y-106302986D01*
X147884055Y-106083351D01*
X147917120Y-105917120D01*
X148083351Y-105884055D01*
X148302986Y-105737300D01*
X148449741Y-105517665D01*
X148482806Y-105351435D01*
X148649036Y-105318370D01*
X148868671Y-105171615D01*
X149015426Y-104951980D01*
X149048491Y-104785749D01*
X149214721Y-104752684D01*
X149434356Y-104605929D01*
X149581111Y-104386294D01*
X149614176Y-104220064D01*
X149780407Y-104186999D01*
X150000000Y-104040272D01*
X150219593Y-104186999D01*
X150385824Y-104220065D01*
X150418889Y-104386294D01*
X150565644Y-104605929D01*
X150785279Y-104752684D01*
X150951508Y-104785749D01*
X150984574Y-104951980D01*
X151131329Y-105171615D01*
X151350964Y-105318370D01*
X151536113Y-105355199D01*
X151575366Y-105522609D01*
X151631123Y-105621377D01*
X151772868Y-105628919D01*
X152513057Y-104888730D01*
X152498915Y-104874588D01*
X152531442Y-104842061D01*
X152545584Y-104856203D01*
X153285773Y-104116014D01*
X153278231Y-103974269D01*
X153179463Y-103918512D01*
X153012052Y-103879259D01*
X152975224Y-103694110D01*
X152828469Y-103474475D01*
X152608834Y-103327720D01*
X152442604Y-103294655D01*
X152409539Y-103128424D01*
X152262784Y-102908789D01*
X152043149Y-102762034D01*
X151876918Y-102728969D01*
X151843853Y-102562739D01*
X151697098Y-102343104D01*
X151477463Y-102196349D01*
X151218387Y-102144816D01*
X150959311Y-102196349D01*
X150739676Y-102343104D01*
X150000000Y-103082780D01*
X149260324Y-102343104D01*
X149040689Y-102196349D01*
X148992786Y-102186820D01*
X150052606Y-101127000D01*
X161373000Y-101127000D01*
X161373000Y-109947394D01*
X161373000Y-109947394D01*
G37*
X161373000Y-109947394D02*
X159910197Y-111410197D01*
X159883006Y-111450590D01*
X159873000Y-111500000D01*
X159873000Y-123873000D01*
X155785365Y-123873000D01*
X155785365Y-121175000D01*
X155755591Y-121016763D01*
X155662073Y-120871433D01*
X155519381Y-120773936D01*
X155350000Y-120739635D01*
X154350000Y-120739635D01*
X154191763Y-120769409D01*
X154152177Y-120794882D01*
X153983990Y-120626402D01*
X153735254Y-120523118D01*
X153634662Y-120523030D01*
X153628200Y-120516568D01*
X153628200Y-120501658D01*
X153728567Y-120437073D01*
X153826064Y-120294381D01*
X153860365Y-120125000D01*
X153860365Y-119333539D01*
X153964746Y-119376882D01*
X154234073Y-119377117D01*
X154482989Y-119274267D01*
X154600037Y-119157423D01*
X154716010Y-119273598D01*
X154964746Y-119376882D01*
X155234073Y-119377117D01*
X155482989Y-119274267D01*
X155673598Y-119083990D01*
X155776882Y-118835254D01*
X155777117Y-118565927D01*
X155674267Y-118317011D01*
X155483990Y-118126402D01*
X155303200Y-118051332D01*
X155303200Y-115254265D01*
X155373598Y-115183990D01*
X155476882Y-114935254D01*
X155477117Y-114665927D01*
X155374267Y-114417011D01*
X155184609Y-114227023D01*
X155534602Y-113877030D01*
X155634073Y-113877117D01*
X155882989Y-113774267D01*
X156073598Y-113583990D01*
X156176882Y-113335254D01*
X156177117Y-113065927D01*
X156074267Y-112817011D01*
X155934566Y-112677066D01*
X156455816Y-112155816D01*
X156564896Y-111992566D01*
X156603200Y-111800000D01*
X156603200Y-108443146D01*
X156564896Y-108250580D01*
X156455816Y-108087330D01*
X155642853Y-107274367D01*
X155656896Y-107260324D01*
X155803651Y-107040689D01*
X155855184Y-106781613D01*
X155803651Y-106522537D01*
X155656896Y-106302902D01*
X155437261Y-106156147D01*
X155271031Y-106123082D01*
X155237966Y-105956851D01*
X155091211Y-105737216D01*
X154871576Y-105590461D01*
X154705345Y-105557396D01*
X154672280Y-105391166D01*
X154525525Y-105171531D01*
X154305890Y-105024776D01*
X154139660Y-104991711D01*
X154106595Y-104825481D01*
X153959840Y-104605846D01*
X153740205Y-104459091D01*
X153555056Y-104422263D01*
X153515802Y-104254851D01*
X153460045Y-104156083D01*
X153318300Y-104148541D01*
X152578111Y-104888730D01*
X152592253Y-104902872D01*
X152559726Y-104935399D01*
X152545584Y-104921257D01*
X151805395Y-105661446D01*
X151812937Y-105803191D01*
X151911705Y-105858948D01*
X152079116Y-105898201D01*
X152115945Y-106083351D01*
X152262700Y-106302986D01*
X152482335Y-106449741D01*
X152648565Y-106482806D01*
X152681630Y-106649036D01*
X152828385Y-106868671D01*
X153017436Y-106994990D01*
X149513509Y-110498916D01*
X148621145Y-110498916D01*
X148621140Y-110498915D01*
X148438213Y-110535303D01*
X148424634Y-110477391D01*
X148368877Y-110378623D01*
X148227132Y-110371081D01*
X147486943Y-111111270D01*
X147501085Y-111125412D01*
X147468558Y-111157939D01*
X147454416Y-111143797D01*
X146714227Y-111883986D01*
X146721769Y-112025731D01*
X146807133Y-112073921D01*
X146563599Y-112317455D01*
X146143205Y-112317455D01*
X146143205Y-112107111D01*
X146491764Y-111758551D01*
X146539955Y-111843917D01*
X146681700Y-111851459D01*
X147421889Y-111111270D01*
X147407747Y-111097128D01*
X147440274Y-111064601D01*
X147454416Y-111078743D01*
X148194605Y-110338554D01*
X148187063Y-110196809D01*
X148088295Y-110141052D01*
X147920883Y-110101798D01*
X147884055Y-109916649D01*
X147737300Y-109697014D01*
X147517665Y-109550259D01*
X147332516Y-109513431D01*
X147293263Y-109346020D01*
X147237506Y-109247252D01*
X147095761Y-109239710D01*
X146355572Y-109979899D01*
X146369714Y-109994041D01*
X146337187Y-110026568D01*
X146323045Y-110012426D01*
X145582856Y-110752615D01*
X145590398Y-110894360D01*
X145675762Y-110942550D01*
X145158204Y-111460108D01*
X145033127Y-111647301D01*
X144989204Y-111868109D01*
X144989205Y-111868114D01*
X144989205Y-112047458D01*
X144943104Y-112015959D01*
X144895253Y-112005579D01*
X144847348Y-111889926D01*
X144727232Y-111769809D01*
X144737615Y-111780193D01*
X144586648Y-111780193D01*
X144199684Y-112167157D01*
X144213826Y-112181299D01*
X144181299Y-112213826D01*
X144167157Y-112199684D01*
X143780193Y-112586648D01*
X143780193Y-112737615D01*
X143769809Y-112727232D01*
X143889926Y-112847348D01*
X144004257Y-112894706D01*
X144011279Y-112932023D01*
X144106795Y-113076048D01*
X144266992Y-113236245D01*
X144021289Y-113481949D01*
X143917760Y-113636890D01*
X143855816Y-113544184D01*
X142903200Y-112591568D01*
X142903200Y-112117577D01*
X143421959Y-112117577D01*
X143421959Y-112287448D01*
X143486966Y-112444388D01*
X143607082Y-112564505D01*
X143596699Y-112554121D01*
X143747666Y-112554121D01*
X144134630Y-112167157D01*
X143783021Y-111815548D01*
X143632054Y-111815548D01*
X143486966Y-111960636D01*
X143421959Y-112117577D01*
X142903200Y-112117577D01*
X142903200Y-111632054D01*
X143815548Y-111632054D01*
X143815548Y-111783021D01*
X144167157Y-112134630D01*
X144554121Y-111747666D01*
X144554121Y-111596699D01*
X144563669Y-111606246D01*
X144444388Y-111486966D01*
X144287448Y-111421959D01*
X144117577Y-111421959D01*
X143960636Y-111486966D01*
X143815548Y-111632054D01*
X142903200Y-111632054D01*
X142903200Y-109194479D01*
X142944184Y-109255816D01*
X144244184Y-110555816D01*
X144407434Y-110664896D01*
X144600000Y-110703200D01*
X144971573Y-110703200D01*
X145164139Y-110664896D01*
X145327389Y-110555816D01*
X145336986Y-110546219D01*
X145352827Y-110613778D01*
X145408584Y-110712546D01*
X145550329Y-110720088D01*
X146290518Y-109979899D01*
X146276376Y-109965757D01*
X146308903Y-109933230D01*
X146323045Y-109947372D01*
X147063234Y-109207183D01*
X147055692Y-109065438D01*
X146956924Y-109009681D01*
X146789512Y-108970427D01*
X146752684Y-108785279D01*
X146605929Y-108565644D01*
X146386294Y-108418889D01*
X146220064Y-108385824D01*
X146186999Y-108219593D01*
X146040272Y-108000000D01*
X146186999Y-107780407D01*
X146220064Y-107614176D01*
X146386294Y-107581111D01*
X146605929Y-107434356D01*
X146752684Y-107214721D01*
X146785749Y-107048491D01*
X146951980Y-107015426D01*
X147171615Y-106868671D01*
X147318370Y-106649036D01*
X147351435Y-106482806D01*
X147517665Y-106449741D01*
X147737300Y-106302986D01*
X147884055Y-106083351D01*
X147917120Y-105917120D01*
X148083351Y-105884055D01*
X148302986Y-105737300D01*
X148449741Y-105517665D01*
X148482806Y-105351435D01*
X148649036Y-105318370D01*
X148868671Y-105171615D01*
X149015426Y-104951980D01*
X149048491Y-104785749D01*
X149214721Y-104752684D01*
X149434356Y-104605929D01*
X149581111Y-104386294D01*
X149614176Y-104220064D01*
X149780407Y-104186999D01*
X150000000Y-104040272D01*
X150219593Y-104186999D01*
X150385824Y-104220065D01*
X150418889Y-104386294D01*
X150565644Y-104605929D01*
X150785279Y-104752684D01*
X150951508Y-104785749D01*
X150984574Y-104951980D01*
X151131329Y-105171615D01*
X151350964Y-105318370D01*
X151536113Y-105355199D01*
X151575366Y-105522609D01*
X151631123Y-105621377D01*
X151772868Y-105628919D01*
X152513057Y-104888730D01*
X152498915Y-104874588D01*
X152531442Y-104842061D01*
X152545584Y-104856203D01*
X153285773Y-104116014D01*
X153278231Y-103974269D01*
X153179463Y-103918512D01*
X153012052Y-103879259D01*
X152975224Y-103694110D01*
X152828469Y-103474475D01*
X152608834Y-103327720D01*
X152442604Y-103294655D01*
X152409539Y-103128424D01*
X152262784Y-102908789D01*
X152043149Y-102762034D01*
X151876918Y-102728969D01*
X151843853Y-102562739D01*
X151697098Y-102343104D01*
X151477463Y-102196349D01*
X151218387Y-102144816D01*
X150959311Y-102196349D01*
X150739676Y-102343104D01*
X150000000Y-103082780D01*
X149260324Y-102343104D01*
X149040689Y-102196349D01*
X148992786Y-102186820D01*
X150052606Y-101127000D01*
X161373000Y-101127000D01*
X161373000Y-109947394D01*
G36*
X153996800Y-112091568D02*
X151491568Y-114596800D01*
X151197600Y-114596800D01*
X151005034Y-114635104D01*
X150841784Y-114744184D01*
X147769184Y-117816784D01*
X147705480Y-117912124D01*
X147666763Y-117919409D01*
X147521433Y-118012927D01*
X147499255Y-118045386D01*
X147416876Y-117963007D01*
X147259935Y-117898000D01*
X147004750Y-117898000D01*
X146898000Y-118004750D01*
X146898000Y-119202000D01*
X146918000Y-119202000D01*
X146918000Y-119248000D01*
X146898000Y-119248000D01*
X146898000Y-119268000D01*
X146852000Y-119268000D01*
X146852000Y-119248000D01*
X146254750Y-119248000D01*
X146148000Y-119354750D01*
X146148000Y-119690578D01*
X145177000Y-118719578D01*
X145177000Y-118240064D01*
X146148000Y-118240064D01*
X146148000Y-119095250D01*
X146254750Y-119202000D01*
X146852000Y-119202000D01*
X146852000Y-118004750D01*
X146745250Y-117898000D01*
X146490065Y-117898000D01*
X146333124Y-117963007D01*
X146213007Y-118083124D01*
X146148000Y-118240064D01*
X145177000Y-118240064D01*
X145177000Y-117550000D01*
X145125466Y-117290923D01*
X145041372Y-117165067D01*
X144978711Y-117071288D01*
X144728711Y-116821289D01*
X144662428Y-116777000D01*
X144648107Y-116767431D01*
X144859077Y-116725466D01*
X145078711Y-116578711D01*
X145578711Y-116078711D01*
X145725467Y-115859076D01*
X145777000Y-115600000D01*
X145777000Y-115136203D01*
X146013292Y-115372495D01*
X146146236Y-115463331D01*
X146315128Y-115499968D01*
X146484967Y-115468011D01*
X146494499Y-115461690D01*
X146459827Y-115545395D01*
X146459827Y-115715266D01*
X146524834Y-115872207D01*
X146634567Y-115981939D01*
X146785534Y-115981939D01*
X147667473Y-115100000D01*
X147653331Y-115085858D01*
X147685858Y-115053331D01*
X147700000Y-115067473D01*
X148581939Y-114185534D01*
X148581939Y-114034567D01*
X148472207Y-113924834D01*
X148315266Y-113859827D01*
X148145395Y-113859827D01*
X148063862Y-113893599D01*
X148099968Y-113727156D01*
X148071036Y-113573393D01*
X148176583Y-113467846D01*
X148302902Y-113656896D01*
X148522537Y-113803651D01*
X148781613Y-113855185D01*
X148821958Y-113847160D01*
X148821958Y-114274585D01*
X148765433Y-114218061D01*
X148614466Y-114218061D01*
X147732527Y-115100000D01*
X147746669Y-115114142D01*
X147714142Y-115146669D01*
X147700000Y-115132527D01*
X146818061Y-116014466D01*
X146818061Y-116165433D01*
X146927793Y-116275166D01*
X147084734Y-116340173D01*
X147254605Y-116340173D01*
X147336138Y-116306401D01*
X147300032Y-116472844D01*
X147331989Y-116642683D01*
X147427505Y-116786708D01*
X147710348Y-117069551D01*
X147843292Y-117160387D01*
X148012184Y-117197024D01*
X148182023Y-117165067D01*
X148326048Y-117069551D01*
X149669551Y-115726048D01*
X149760387Y-115593104D01*
X149772026Y-115539448D01*
X149806959Y-115504515D01*
X149932036Y-115317322D01*
X149975959Y-115096514D01*
X149975958Y-115096509D01*
X149975958Y-113055817D01*
X149975959Y-113055812D01*
X149956953Y-112960267D01*
X150000000Y-112917220D01*
X150739676Y-113656896D01*
X150959311Y-113803651D01*
X151218387Y-113855184D01*
X151477463Y-113803651D01*
X151697098Y-113656896D01*
X151843853Y-113437261D01*
X151876918Y-113271031D01*
X152043149Y-113237966D01*
X152262784Y-113091211D01*
X152409539Y-112871576D01*
X152442604Y-112705345D01*
X152608834Y-112672280D01*
X152828469Y-112525525D01*
X152975224Y-112305890D01*
X153008289Y-112139660D01*
X153174519Y-112106595D01*
X153394154Y-111959840D01*
X153540909Y-111740205D01*
X153573974Y-111573974D01*
X153740205Y-111540909D01*
X153959840Y-111394154D01*
X153996800Y-111338839D01*
X153996800Y-112091568D01*
X153996800Y-112091568D01*
G37*
X153996800Y-112091568D02*
X151491568Y-114596800D01*
X151197600Y-114596800D01*
X151005034Y-114635104D01*
X150841784Y-114744184D01*
X147769184Y-117816784D01*
X147705480Y-117912124D01*
X147666763Y-117919409D01*
X147521433Y-118012927D01*
X147499255Y-118045386D01*
X147416876Y-117963007D01*
X147259935Y-117898000D01*
X147004750Y-117898000D01*
X146898000Y-118004750D01*
X146898000Y-119202000D01*
X146918000Y-119202000D01*
X146918000Y-119248000D01*
X146898000Y-119248000D01*
X146898000Y-119268000D01*
X146852000Y-119268000D01*
X146852000Y-119248000D01*
X146254750Y-119248000D01*
X146148000Y-119354750D01*
X146148000Y-119690578D01*
X145177000Y-118719578D01*
X145177000Y-118240064D01*
X146148000Y-118240064D01*
X146148000Y-119095250D01*
X146254750Y-119202000D01*
X146852000Y-119202000D01*
X146852000Y-118004750D01*
X146745250Y-117898000D01*
X146490065Y-117898000D01*
X146333124Y-117963007D01*
X146213007Y-118083124D01*
X146148000Y-118240064D01*
X145177000Y-118240064D01*
X145177000Y-117550000D01*
X145125466Y-117290923D01*
X145041372Y-117165067D01*
X144978711Y-117071288D01*
X144728711Y-116821289D01*
X144662428Y-116777000D01*
X144648107Y-116767431D01*
X144859077Y-116725466D01*
X145078711Y-116578711D01*
X145578711Y-116078711D01*
X145725467Y-115859076D01*
X145777000Y-115600000D01*
X145777000Y-115136203D01*
X146013292Y-115372495D01*
X146146236Y-115463331D01*
X146315128Y-115499968D01*
X146484967Y-115468011D01*
X146494499Y-115461690D01*
X146459827Y-115545395D01*
X146459827Y-115715266D01*
X146524834Y-115872207D01*
X146634567Y-115981939D01*
X146785534Y-115981939D01*
X147667473Y-115100000D01*
X147653331Y-115085858D01*
X147685858Y-115053331D01*
X147700000Y-115067473D01*
X148581939Y-114185534D01*
X148581939Y-114034567D01*
X148472207Y-113924834D01*
X148315266Y-113859827D01*
X148145395Y-113859827D01*
X148063862Y-113893599D01*
X148099968Y-113727156D01*
X148071036Y-113573393D01*
X148176583Y-113467846D01*
X148302902Y-113656896D01*
X148522537Y-113803651D01*
X148781613Y-113855185D01*
X148821958Y-113847160D01*
X148821958Y-114274585D01*
X148765433Y-114218061D01*
X148614466Y-114218061D01*
X147732527Y-115100000D01*
X147746669Y-115114142D01*
X147714142Y-115146669D01*
X147700000Y-115132527D01*
X146818061Y-116014466D01*
X146818061Y-116165433D01*
X146927793Y-116275166D01*
X147084734Y-116340173D01*
X147254605Y-116340173D01*
X147336138Y-116306401D01*
X147300032Y-116472844D01*
X147331989Y-116642683D01*
X147427505Y-116786708D01*
X147710348Y-117069551D01*
X147843292Y-117160387D01*
X148012184Y-117197024D01*
X148182023Y-117165067D01*
X148326048Y-117069551D01*
X149669551Y-115726048D01*
X149760387Y-115593104D01*
X149772026Y-115539448D01*
X149806959Y-115504515D01*
X149932036Y-115317322D01*
X149975959Y-115096514D01*
X149975958Y-115096509D01*
X149975958Y-113055817D01*
X149975959Y-113055812D01*
X149956953Y-112960267D01*
X150000000Y-112917220D01*
X150739676Y-113656896D01*
X150959311Y-113803651D01*
X151218387Y-113855184D01*
X151477463Y-113803651D01*
X151697098Y-113656896D01*
X151843853Y-113437261D01*
X151876918Y-113271031D01*
X152043149Y-113237966D01*
X152262784Y-113091211D01*
X152409539Y-112871576D01*
X152442604Y-112705345D01*
X152608834Y-112672280D01*
X152828469Y-112525525D01*
X152975224Y-112305890D01*
X153008289Y-112139660D01*
X153174519Y-112106595D01*
X153394154Y-111959840D01*
X153540909Y-111740205D01*
X153573974Y-111573974D01*
X153740205Y-111540909D01*
X153959840Y-111394154D01*
X153996800Y-111338839D01*
X153996800Y-112091568D01*
M02*
