G04 #@! TF.FileFunction,Legend,Top*
%FSLAX46Y46*%
G04 Gerber Fmt 4.6, Leading zero omitted, Abs format (unit mm)*
G04 Created by KiCad (PCBNEW 4.0.7) date 07/31/18 09:39:55*
%MOMM*%
%LPD*%
G01*
G04 APERTURE LIST*
%ADD10C,0.100000*%
%ADD11C,0.150000*%
%ADD12C,0.300000*%
%ADD13C,0.120000*%
%ADD14C,0.500000*%
%ADD15C,0.066040*%
%ADD16C,0.127000*%
%ADD17C,0.101600*%
G04 APERTURE END LIST*
D10*
D11*
X147019048Y-97471429D02*
X147780953Y-97471429D01*
X147400001Y-97852381D02*
X147400001Y-97090476D01*
X147538095Y-93352381D02*
X147538095Y-92352381D01*
X148109524Y-93352381D02*
X147680952Y-92780952D01*
X148109524Y-92352381D02*
X147538095Y-92923810D01*
X147538095Y-88652381D02*
X147538095Y-87652381D01*
X148109524Y-88652381D02*
X147680952Y-88080952D01*
X148109524Y-87652381D02*
X147538095Y-88223810D01*
D12*
X150158858Y-96011429D02*
X150016000Y-95940000D01*
X149944572Y-95868571D01*
X149873143Y-95725714D01*
X149873143Y-95654286D01*
X149944572Y-95511429D01*
X150016000Y-95440000D01*
X150158858Y-95368571D01*
X150444572Y-95368571D01*
X150587429Y-95440000D01*
X150658858Y-95511429D01*
X150730286Y-95654286D01*
X150730286Y-95725714D01*
X150658858Y-95868571D01*
X150587429Y-95940000D01*
X150444572Y-96011429D01*
X150158858Y-96011429D01*
X150016000Y-96082857D01*
X149944572Y-96154286D01*
X149873143Y-96297143D01*
X149873143Y-96582857D01*
X149944572Y-96725714D01*
X150016000Y-96797143D01*
X150158858Y-96868571D01*
X150444572Y-96868571D01*
X150587429Y-96797143D01*
X150658858Y-96725714D01*
X150730286Y-96582857D01*
X150730286Y-96297143D01*
X150658858Y-96154286D01*
X150587429Y-96082857D01*
X150444572Y-96011429D01*
X149801715Y-92828571D02*
X150801715Y-92828571D01*
X150158858Y-94328571D01*
X150587429Y-90288571D02*
X150301715Y-90288571D01*
X150158858Y-90360000D01*
X150087429Y-90431429D01*
X149944572Y-90645714D01*
X149873143Y-90931429D01*
X149873143Y-91502857D01*
X149944572Y-91645714D01*
X150016000Y-91717143D01*
X150158858Y-91788571D01*
X150444572Y-91788571D01*
X150587429Y-91717143D01*
X150658858Y-91645714D01*
X150730286Y-91502857D01*
X150730286Y-91145714D01*
X150658858Y-91002857D01*
X150587429Y-90931429D01*
X150444572Y-90860000D01*
X150158858Y-90860000D01*
X150016000Y-90931429D01*
X149944572Y-91002857D01*
X149873143Y-91145714D01*
X150658858Y-87748571D02*
X149944572Y-87748571D01*
X149873143Y-88462857D01*
X149944572Y-88391429D01*
X150087429Y-88320000D01*
X150444572Y-88320000D01*
X150587429Y-88391429D01*
X150658858Y-88462857D01*
X150730286Y-88605714D01*
X150730286Y-88962857D01*
X150658858Y-89105714D01*
X150587429Y-89177143D01*
X150444572Y-89248571D01*
X150087429Y-89248571D01*
X149944572Y-89177143D01*
X149873143Y-89105714D01*
X150587429Y-85708571D02*
X150587429Y-86708571D01*
X150230286Y-85137143D02*
X149873143Y-86208571D01*
X150801715Y-86208571D01*
X149801715Y-82668571D02*
X150730286Y-82668571D01*
X150230286Y-83240000D01*
X150444572Y-83240000D01*
X150587429Y-83311429D01*
X150658858Y-83382857D01*
X150730286Y-83525714D01*
X150730286Y-83882857D01*
X150658858Y-84025714D01*
X150587429Y-84097143D01*
X150444572Y-84168571D01*
X150016000Y-84168571D01*
X149873143Y-84097143D01*
X149801715Y-84025714D01*
X149873143Y-80271429D02*
X149944572Y-80200000D01*
X150087429Y-80128571D01*
X150444572Y-80128571D01*
X150587429Y-80200000D01*
X150658858Y-80271429D01*
X150730286Y-80414286D01*
X150730286Y-80557143D01*
X150658858Y-80771429D01*
X149801715Y-81628571D01*
X150730286Y-81628571D01*
X150730286Y-79088571D02*
X149873143Y-79088571D01*
X150301715Y-79088571D02*
X150301715Y-77588571D01*
X150158858Y-77802857D01*
X150016000Y-77945714D01*
X149873143Y-78017143D01*
X157048572Y-98583143D02*
X158191429Y-98583143D01*
X154508572Y-98583143D02*
X155651429Y-98583143D01*
X155080000Y-99154571D02*
X155080000Y-98011714D01*
X147777428Y-77232857D02*
X146634571Y-77232857D01*
X145237428Y-77232857D02*
X144094571Y-77232857D01*
X144666000Y-76661429D02*
X144666000Y-77804286D01*
D13*
X142125000Y-122000000D02*
X142125000Y-120000000D01*
X140075000Y-120000000D02*
X140075000Y-122000000D01*
X153750000Y-124025000D02*
X146250000Y-124025000D01*
X146250000Y-124025000D02*
X146250000Y-123525000D01*
X146250000Y-123525000D02*
X153750000Y-123525000D01*
X153750000Y-123525000D02*
X153750000Y-124025000D01*
X155450000Y-120675000D02*
X155450000Y-119475000D01*
X155450000Y-119475000D02*
X153800000Y-119475000D01*
X153800000Y-119475000D02*
X153800000Y-119975000D01*
X153800000Y-119975000D02*
X154950000Y-119975000D01*
X154950000Y-119975000D02*
X154950000Y-120675000D01*
X154950000Y-120675000D02*
X155450000Y-120675000D01*
X144550000Y-120675000D02*
X144550000Y-119475000D01*
X144550000Y-119475000D02*
X146200000Y-119475000D01*
X146200000Y-119475000D02*
X146200000Y-119975000D01*
X146200000Y-119975000D02*
X145050000Y-119975000D01*
X145050000Y-119975000D02*
X145050000Y-120675000D01*
X145050000Y-120675000D02*
X144550000Y-120675000D01*
X154125000Y-118725000D02*
X154725000Y-118425000D01*
X154725000Y-118425000D02*
X154725000Y-119025000D01*
X154725000Y-119025000D02*
X154125000Y-118725000D01*
D11*
X159900000Y-119900000D02*
X158900000Y-120900000D01*
X158800000Y-120800000D02*
X159800000Y-119800000D01*
X159700000Y-119700000D02*
X158700000Y-120700000D01*
X158600000Y-120600000D02*
X159600000Y-119600000D01*
X159500000Y-119500000D02*
X158500000Y-120500000D01*
X158400000Y-120400000D02*
X159400000Y-119400000D01*
X159300000Y-119300000D02*
X158300000Y-120300000D01*
X158200000Y-120200000D02*
X159200000Y-119200000D01*
X159100000Y-119100000D02*
X158100000Y-120100000D01*
X160900000Y-119100000D02*
X160900000Y-122100000D01*
X160800000Y-122200000D02*
X160800000Y-119200000D01*
X160700000Y-119300000D02*
X160700000Y-122300000D01*
X160600000Y-122400000D02*
X160600000Y-119400000D01*
X160500000Y-119500000D02*
X160500000Y-122500000D01*
X160400000Y-122600000D02*
X160400000Y-119600000D01*
X160300000Y-119700000D02*
X160300000Y-122700000D01*
X160200000Y-122800000D02*
X160200000Y-119800000D01*
X160100000Y-119900000D02*
X160100000Y-122900000D01*
X160000000Y-123000000D02*
X160000000Y-120000000D01*
X159900000Y-120100000D02*
X159900000Y-123000000D01*
X159800000Y-123200000D02*
X159800000Y-120200000D01*
X159700000Y-120300000D02*
X159700000Y-123300000D01*
X159600000Y-123400000D02*
X159600000Y-120400000D01*
X159500000Y-120500000D02*
X159500000Y-123500000D01*
X159400000Y-123600000D02*
X159400000Y-120600000D01*
X159300000Y-120700000D02*
X159300000Y-123700000D01*
X159200000Y-123800000D02*
X159200000Y-120800000D01*
X159100000Y-120900000D02*
X159100000Y-123900000D01*
X157000000Y-119000000D02*
X159000000Y-121000000D01*
X159000000Y-121000000D02*
X159000000Y-124000000D01*
X159000000Y-124000000D02*
X157000000Y-122000000D01*
X157000000Y-122000000D02*
X157000000Y-119000000D01*
X161000000Y-119000000D02*
X159000000Y-121000000D01*
X159000000Y-121000000D02*
X159000000Y-124000000D01*
X159000000Y-124000000D02*
X161000000Y-122000000D01*
X161000000Y-122000000D02*
X161000000Y-119000000D01*
X159000000Y-119000000D02*
X158000000Y-120000000D01*
X158000000Y-120000000D02*
X159000000Y-121000000D01*
X159000000Y-121000000D02*
X160000000Y-120000000D01*
X160000000Y-120000000D02*
X159000000Y-119000000D01*
D13*
X143250000Y-117980000D02*
X142250000Y-117980000D01*
X142250000Y-116620000D02*
X143250000Y-116620000D01*
D14*
X147206000Y-81150000D02*
X147206000Y-83690000D01*
X144666000Y-81150000D02*
X144666000Y-83690000D01*
D15*
X153810000Y-97460000D02*
X156350000Y-97460000D01*
X156350000Y-97460000D02*
X156350000Y-77140000D01*
X153810000Y-77140000D02*
X156350000Y-77140000D01*
X153810000Y-97460000D02*
X153810000Y-77140000D01*
D16*
X153810000Y-77140000D02*
X156350000Y-77140000D01*
X156350000Y-77140000D02*
X156350000Y-97460000D01*
X156350000Y-97460000D02*
X153810000Y-97460000D01*
X153810000Y-97460000D02*
X153810000Y-77140000D01*
D15*
X156350000Y-97460000D02*
X158890000Y-97460000D01*
X158890000Y-97460000D02*
X158890000Y-77140000D01*
X156350000Y-77140000D02*
X158890000Y-77140000D01*
X156350000Y-97460000D02*
X156350000Y-77140000D01*
D16*
X156350000Y-77140000D02*
X158890000Y-77140000D01*
X158890000Y-77140000D02*
X158890000Y-97460000D01*
X158890000Y-97460000D02*
X156350000Y-97460000D01*
X156350000Y-97460000D02*
X156350000Y-77140000D01*
D15*
X151270000Y-97460000D02*
X153810000Y-97460000D01*
X153810000Y-97460000D02*
X153810000Y-77140000D01*
X151270000Y-77140000D02*
X153810000Y-77140000D01*
X151270000Y-97460000D02*
X151270000Y-77140000D01*
D16*
X151270000Y-77140000D02*
X153810000Y-77140000D01*
X153810000Y-77140000D02*
X153810000Y-97460000D01*
X153810000Y-97460000D02*
X151270000Y-97460000D01*
X151270000Y-97460000D02*
X151270000Y-77140000D01*
D13*
X147250000Y-91950000D02*
X147250000Y-87650000D01*
X147250000Y-87650000D02*
X141550000Y-87650000D01*
X147250000Y-91950000D02*
X141550000Y-91950000D01*
X147250000Y-96550000D02*
X147250000Y-92250000D01*
X147250000Y-92250000D02*
X141550000Y-92250000D01*
X147250000Y-96550000D02*
X141550000Y-96550000D01*
D11*
X144625988Y-108282843D02*
X144625988Y-107717157D01*
X149717157Y-102625988D02*
X150000000Y-102343146D01*
X150000000Y-102343146D02*
X150282843Y-102625988D01*
X150282843Y-113374012D02*
X150000000Y-113656854D01*
X150000000Y-113656854D02*
X149717157Y-113374012D01*
X155374012Y-108282843D02*
X155656854Y-108000000D01*
X155656854Y-108000000D02*
X155374012Y-107717157D01*
D13*
X146800000Y-100550000D02*
X139700000Y-100550000D01*
X146800000Y-96850000D02*
X139700000Y-96850000D01*
X146800000Y-100550000D02*
X146800000Y-96850000D01*
D10*
X144202513Y-111636827D02*
X145263173Y-112697487D01*
X143636827Y-112202513D02*
X144202513Y-111636827D01*
X144697487Y-113263173D02*
X143636827Y-112202513D01*
X145263173Y-112697487D02*
X144697487Y-113263173D01*
X143300000Y-115300000D02*
X141800000Y-115300000D01*
X143300000Y-114500000D02*
X143300000Y-115300000D01*
X141800000Y-114500000D02*
X143300000Y-114500000D01*
X141800000Y-115300000D02*
X141800000Y-114500000D01*
X149255635Y-115807107D02*
X149184924Y-115736396D01*
X148407107Y-116655635D02*
X149255635Y-115807107D01*
X148336396Y-116584924D02*
X148407107Y-116655635D01*
X147487868Y-115736396D02*
X147912132Y-116160660D01*
X148336396Y-114887868D02*
X148760660Y-115312132D01*
X147487868Y-114039340D02*
X147912132Y-114463604D01*
X146639340Y-114887868D02*
X147063604Y-115312132D01*
X146144365Y-114392893D02*
X146215076Y-114463604D01*
X146992893Y-113544365D02*
X147063604Y-113615076D01*
X146144365Y-114392893D02*
X146992893Y-113544365D01*
D11*
X143457143Y-121166666D02*
X143504762Y-121214285D01*
X143552381Y-121357142D01*
X143552381Y-121452380D01*
X143504762Y-121595238D01*
X143409524Y-121690476D01*
X143314286Y-121738095D01*
X143123810Y-121785714D01*
X142980952Y-121785714D01*
X142790476Y-121738095D01*
X142695238Y-121690476D01*
X142600000Y-121595238D01*
X142552381Y-121452380D01*
X142552381Y-121357142D01*
X142600000Y-121214285D01*
X142647619Y-121166666D01*
X142647619Y-120785714D02*
X142600000Y-120738095D01*
X142552381Y-120642857D01*
X142552381Y-120404761D01*
X142600000Y-120309523D01*
X142647619Y-120261904D01*
X142742857Y-120214285D01*
X142838095Y-120214285D01*
X142980952Y-120261904D01*
X143552381Y-120833333D01*
X143552381Y-120214285D01*
X142661905Y-124052381D02*
X142661905Y-123052381D01*
X143042858Y-123052381D01*
X143138096Y-123100000D01*
X143185715Y-123147619D01*
X143233334Y-123242857D01*
X143233334Y-123385714D01*
X143185715Y-123480952D01*
X143138096Y-123528571D01*
X143042858Y-123576190D01*
X142661905Y-123576190D01*
X144185715Y-124052381D02*
X143614286Y-124052381D01*
X143900000Y-124052381D02*
X143900000Y-123052381D01*
X143804762Y-123195238D01*
X143709524Y-123290476D01*
X143614286Y-123338095D01*
X140433334Y-117752381D02*
X139957143Y-117752381D01*
X139957143Y-116752381D01*
X141290477Y-117752381D02*
X140719048Y-117752381D01*
X141004762Y-117752381D02*
X141004762Y-116752381D01*
X140909524Y-116895238D01*
X140814286Y-116990476D01*
X140719048Y-117038095D01*
D17*
X157577667Y-100402166D02*
X156688667Y-100402166D01*
X156688667Y-100190500D01*
X156731000Y-100063500D01*
X156815667Y-99978833D01*
X156900333Y-99936500D01*
X157069667Y-99894166D01*
X157196667Y-99894166D01*
X157366000Y-99936500D01*
X157450667Y-99978833D01*
X157535333Y-100063500D01*
X157577667Y-100190500D01*
X157577667Y-100402166D01*
X157577667Y-99513166D02*
X156688667Y-99513166D01*
X157577667Y-99089833D02*
X156688667Y-99089833D01*
X156688667Y-98751167D01*
X156731000Y-98666500D01*
X156773333Y-98624167D01*
X156858000Y-98581833D01*
X156985000Y-98581833D01*
X157069667Y-98624167D01*
X157112000Y-98666500D01*
X157154333Y-98751167D01*
X157154333Y-99089833D01*
X157239000Y-98200833D02*
X157239000Y-97523500D01*
X157112000Y-96803833D02*
X157154333Y-96676833D01*
X157196667Y-96634500D01*
X157281333Y-96592166D01*
X157408333Y-96592166D01*
X157493000Y-96634500D01*
X157535333Y-96676833D01*
X157577667Y-96761500D01*
X157577667Y-97100166D01*
X156688667Y-97100166D01*
X156688667Y-96803833D01*
X156731000Y-96719166D01*
X156773333Y-96676833D01*
X156858000Y-96634500D01*
X156942667Y-96634500D01*
X157027333Y-96676833D01*
X157069667Y-96719166D01*
X157112000Y-96803833D01*
X157112000Y-97100166D01*
X157577667Y-95787833D02*
X157577667Y-96211166D01*
X156688667Y-96211166D01*
X157323667Y-95533833D02*
X157323667Y-95110499D01*
X157577667Y-95618499D02*
X156688667Y-95322166D01*
X157577667Y-95025833D01*
X157493000Y-94221499D02*
X157535333Y-94263833D01*
X157577667Y-94390833D01*
X157577667Y-94475499D01*
X157535333Y-94602499D01*
X157450667Y-94687166D01*
X157366000Y-94729499D01*
X157196667Y-94771833D01*
X157069667Y-94771833D01*
X156900333Y-94729499D01*
X156815667Y-94687166D01*
X156731000Y-94602499D01*
X156688667Y-94475499D01*
X156688667Y-94390833D01*
X156731000Y-94263833D01*
X156773333Y-94221499D01*
X157577667Y-93840499D02*
X156688667Y-93840499D01*
X157577667Y-93332499D02*
X157069667Y-93713499D01*
X156688667Y-93332499D02*
X157196667Y-93840499D01*
X157239000Y-92951499D02*
X157239000Y-92274166D01*
X157577667Y-91850832D02*
X156688667Y-91850832D01*
X157323667Y-91554499D01*
X156688667Y-91258166D01*
X157577667Y-91258166D01*
X157323667Y-90877166D02*
X157323667Y-90453832D01*
X157577667Y-90961832D02*
X156688667Y-90665499D01*
X157577667Y-90369166D01*
X157577667Y-89649499D02*
X157577667Y-90072832D01*
X156688667Y-90072832D01*
X157112000Y-89353165D02*
X157112000Y-89056832D01*
X157577667Y-88929832D02*
X157577667Y-89353165D01*
X156688667Y-89353165D01*
X156688667Y-88929832D01*
X157239000Y-88548832D02*
X157239000Y-87871499D01*
X157577667Y-87448165D02*
X156688667Y-87448165D01*
X157112000Y-87448165D02*
X157112000Y-86940165D01*
X157577667Y-86940165D02*
X156688667Y-86940165D01*
X157112000Y-86516832D02*
X157112000Y-86220499D01*
X157577667Y-86093499D02*
X157577667Y-86516832D01*
X156688667Y-86516832D01*
X156688667Y-86093499D01*
X157323667Y-85754833D02*
X157323667Y-85331499D01*
X157577667Y-85839499D02*
X156688667Y-85543166D01*
X157577667Y-85246833D01*
X157577667Y-84950499D02*
X156688667Y-84950499D01*
X156688667Y-84738833D01*
X156731000Y-84611833D01*
X156815667Y-84527166D01*
X156900333Y-84484833D01*
X157069667Y-84442499D01*
X157196667Y-84442499D01*
X157366000Y-84484833D01*
X157450667Y-84527166D01*
X157535333Y-84611833D01*
X157577667Y-84738833D01*
X157577667Y-84950499D01*
X157112000Y-84061499D02*
X157112000Y-83765166D01*
X157577667Y-83638166D02*
X157577667Y-84061499D01*
X156688667Y-84061499D01*
X156688667Y-83638166D01*
X157577667Y-82749166D02*
X157154333Y-83045500D01*
X157577667Y-83257166D02*
X156688667Y-83257166D01*
X156688667Y-82918500D01*
X156731000Y-82833833D01*
X156773333Y-82791500D01*
X156858000Y-82749166D01*
X156985000Y-82749166D01*
X157069667Y-82791500D01*
X157112000Y-82833833D01*
X157154333Y-82918500D01*
X157154333Y-83257166D01*
X157239000Y-82368166D02*
X157239000Y-81690833D01*
X156688667Y-81394499D02*
X157577667Y-81098166D01*
X156688667Y-80801833D01*
X157112000Y-80505499D02*
X157112000Y-80209166D01*
X157577667Y-80082166D02*
X157577667Y-80505499D01*
X156688667Y-80505499D01*
X156688667Y-80082166D01*
X157577667Y-79193166D02*
X157154333Y-79489500D01*
X157577667Y-79701166D02*
X156688667Y-79701166D01*
X156688667Y-79362500D01*
X156731000Y-79277833D01*
X156773333Y-79235500D01*
X156858000Y-79193166D01*
X156985000Y-79193166D01*
X157069667Y-79235500D01*
X157112000Y-79277833D01*
X157154333Y-79362500D01*
X157154333Y-79701166D01*
X156688667Y-78939166D02*
X156688667Y-78431166D01*
X157577667Y-78685166D02*
X156688667Y-78685166D01*
X157662333Y-78346500D02*
X157662333Y-77669167D01*
X157069667Y-77330500D02*
X157027333Y-77415167D01*
X156985000Y-77457500D01*
X156900333Y-77499834D01*
X156858000Y-77499834D01*
X156773333Y-77457500D01*
X156731000Y-77415167D01*
X156688667Y-77330500D01*
X156688667Y-77161167D01*
X156731000Y-77076500D01*
X156773333Y-77034167D01*
X156858000Y-76991834D01*
X156900333Y-76991834D01*
X156985000Y-77034167D01*
X157027333Y-77076500D01*
X157069667Y-77161167D01*
X157069667Y-77330500D01*
X157112000Y-77415167D01*
X157154333Y-77457500D01*
X157239000Y-77499834D01*
X157408333Y-77499834D01*
X157493000Y-77457500D01*
X157535333Y-77415167D01*
X157577667Y-77330500D01*
X157577667Y-77161167D01*
X157535333Y-77076500D01*
X157493000Y-77034167D01*
X157408333Y-76991834D01*
X157239000Y-76991834D01*
X157154333Y-77034167D01*
X157112000Y-77076500D01*
X157069667Y-77161167D01*
X157577667Y-76610833D02*
X156688667Y-76610833D01*
X156688667Y-76272167D01*
X156731000Y-76187500D01*
X156773333Y-76145167D01*
X156858000Y-76102833D01*
X156985000Y-76102833D01*
X157069667Y-76145167D01*
X157112000Y-76187500D01*
X157154333Y-76272167D01*
X157154333Y-76610833D01*
X157239000Y-75721833D02*
X157239000Y-75044500D01*
X156773333Y-74663500D02*
X156731000Y-74621166D01*
X156688667Y-74536500D01*
X156688667Y-74324833D01*
X156731000Y-74240166D01*
X156773333Y-74197833D01*
X156858000Y-74155500D01*
X156942667Y-74155500D01*
X157069667Y-74197833D01*
X157577667Y-74705833D01*
X157577667Y-74155500D01*
X157493000Y-73774499D02*
X157535333Y-73732166D01*
X157577667Y-73774499D01*
X157535333Y-73816833D01*
X157493000Y-73774499D01*
X157577667Y-73774499D01*
X156688667Y-72927833D02*
X156688667Y-73351166D01*
X157112000Y-73393500D01*
X157069667Y-73351166D01*
X157027333Y-73266500D01*
X157027333Y-73054833D01*
X157069667Y-72970166D01*
X157112000Y-72927833D01*
X157196667Y-72885500D01*
X157408333Y-72885500D01*
X157493000Y-72927833D01*
X157535333Y-72970166D01*
X157577667Y-73054833D01*
X157577667Y-73266500D01*
X157535333Y-73351166D01*
X157493000Y-73393500D01*
X156985000Y-72123499D02*
X157577667Y-72123499D01*
X156646333Y-72335166D02*
X157281333Y-72546833D01*
X157281333Y-71996499D01*
X157662333Y-71869499D02*
X157662333Y-71192166D01*
X160117667Y-100402166D02*
X159228667Y-100402166D01*
X159228667Y-100190500D01*
X159271000Y-100063500D01*
X159355667Y-99978833D01*
X159440333Y-99936500D01*
X159609667Y-99894166D01*
X159736667Y-99894166D01*
X159906000Y-99936500D01*
X159990667Y-99978833D01*
X160075333Y-100063500D01*
X160117667Y-100190500D01*
X160117667Y-100402166D01*
X160117667Y-99513166D02*
X159228667Y-99513166D01*
X160117667Y-99089833D02*
X159228667Y-99089833D01*
X159228667Y-98751167D01*
X159271000Y-98666500D01*
X159313333Y-98624167D01*
X159398000Y-98581833D01*
X159525000Y-98581833D01*
X159609667Y-98624167D01*
X159652000Y-98666500D01*
X159694333Y-98751167D01*
X159694333Y-99089833D01*
X159779000Y-98200833D02*
X159779000Y-97523500D01*
X159652000Y-96803833D02*
X159694333Y-96676833D01*
X159736667Y-96634500D01*
X159821333Y-96592166D01*
X159948333Y-96592166D01*
X160033000Y-96634500D01*
X160075333Y-96676833D01*
X160117667Y-96761500D01*
X160117667Y-97100166D01*
X159228667Y-97100166D01*
X159228667Y-96803833D01*
X159271000Y-96719166D01*
X159313333Y-96676833D01*
X159398000Y-96634500D01*
X159482667Y-96634500D01*
X159567333Y-96676833D01*
X159609667Y-96719166D01*
X159652000Y-96803833D01*
X159652000Y-97100166D01*
X160117667Y-95787833D02*
X160117667Y-96211166D01*
X159228667Y-96211166D01*
X159863667Y-95533833D02*
X159863667Y-95110499D01*
X160117667Y-95618499D02*
X159228667Y-95322166D01*
X160117667Y-95025833D01*
X160033000Y-94221499D02*
X160075333Y-94263833D01*
X160117667Y-94390833D01*
X160117667Y-94475499D01*
X160075333Y-94602499D01*
X159990667Y-94687166D01*
X159906000Y-94729499D01*
X159736667Y-94771833D01*
X159609667Y-94771833D01*
X159440333Y-94729499D01*
X159355667Y-94687166D01*
X159271000Y-94602499D01*
X159228667Y-94475499D01*
X159228667Y-94390833D01*
X159271000Y-94263833D01*
X159313333Y-94221499D01*
X160117667Y-93840499D02*
X159228667Y-93840499D01*
X160117667Y-93332499D02*
X159609667Y-93713499D01*
X159228667Y-93332499D02*
X159736667Y-93840499D01*
X159779000Y-92951499D02*
X159779000Y-92274166D01*
X160117667Y-91850832D02*
X159228667Y-91850832D01*
X159863667Y-91554499D01*
X159228667Y-91258166D01*
X160117667Y-91258166D01*
X159863667Y-90877166D02*
X159863667Y-90453832D01*
X160117667Y-90961832D02*
X159228667Y-90665499D01*
X160117667Y-90369166D01*
X160117667Y-89649499D02*
X160117667Y-90072832D01*
X159228667Y-90072832D01*
X159652000Y-89353165D02*
X159652000Y-89056832D01*
X160117667Y-88929832D02*
X160117667Y-89353165D01*
X159228667Y-89353165D01*
X159228667Y-88929832D01*
X159779000Y-88548832D02*
X159779000Y-87871499D01*
X160117667Y-87448165D02*
X159228667Y-87448165D01*
X159652000Y-87448165D02*
X159652000Y-86940165D01*
X160117667Y-86940165D02*
X159228667Y-86940165D01*
X159652000Y-86516832D02*
X159652000Y-86220499D01*
X160117667Y-86093499D02*
X160117667Y-86516832D01*
X159228667Y-86516832D01*
X159228667Y-86093499D01*
X159863667Y-85754833D02*
X159863667Y-85331499D01*
X160117667Y-85839499D02*
X159228667Y-85543166D01*
X160117667Y-85246833D01*
X160117667Y-84950499D02*
X159228667Y-84950499D01*
X159228667Y-84738833D01*
X159271000Y-84611833D01*
X159355667Y-84527166D01*
X159440333Y-84484833D01*
X159609667Y-84442499D01*
X159736667Y-84442499D01*
X159906000Y-84484833D01*
X159990667Y-84527166D01*
X160075333Y-84611833D01*
X160117667Y-84738833D01*
X160117667Y-84950499D01*
X159652000Y-84061499D02*
X159652000Y-83765166D01*
X160117667Y-83638166D02*
X160117667Y-84061499D01*
X159228667Y-84061499D01*
X159228667Y-83638166D01*
X160117667Y-82749166D02*
X159694333Y-83045500D01*
X160117667Y-83257166D02*
X159228667Y-83257166D01*
X159228667Y-82918500D01*
X159271000Y-82833833D01*
X159313333Y-82791500D01*
X159398000Y-82749166D01*
X159525000Y-82749166D01*
X159609667Y-82791500D01*
X159652000Y-82833833D01*
X159694333Y-82918500D01*
X159694333Y-83257166D01*
X159779000Y-82368166D02*
X159779000Y-81690833D01*
X159228667Y-81394499D02*
X160117667Y-81098166D01*
X159228667Y-80801833D01*
X159652000Y-80505499D02*
X159652000Y-80209166D01*
X160117667Y-80082166D02*
X160117667Y-80505499D01*
X159228667Y-80505499D01*
X159228667Y-80082166D01*
X160117667Y-79193166D02*
X159694333Y-79489500D01*
X160117667Y-79701166D02*
X159228667Y-79701166D01*
X159228667Y-79362500D01*
X159271000Y-79277833D01*
X159313333Y-79235500D01*
X159398000Y-79193166D01*
X159525000Y-79193166D01*
X159609667Y-79235500D01*
X159652000Y-79277833D01*
X159694333Y-79362500D01*
X159694333Y-79701166D01*
X159228667Y-78939166D02*
X159228667Y-78431166D01*
X160117667Y-78685166D02*
X159228667Y-78685166D01*
X160202333Y-78346500D02*
X160202333Y-77669167D01*
X159609667Y-77330500D02*
X159567333Y-77415167D01*
X159525000Y-77457500D01*
X159440333Y-77499834D01*
X159398000Y-77499834D01*
X159313333Y-77457500D01*
X159271000Y-77415167D01*
X159228667Y-77330500D01*
X159228667Y-77161167D01*
X159271000Y-77076500D01*
X159313333Y-77034167D01*
X159398000Y-76991834D01*
X159440333Y-76991834D01*
X159525000Y-77034167D01*
X159567333Y-77076500D01*
X159609667Y-77161167D01*
X159609667Y-77330500D01*
X159652000Y-77415167D01*
X159694333Y-77457500D01*
X159779000Y-77499834D01*
X159948333Y-77499834D01*
X160033000Y-77457500D01*
X160075333Y-77415167D01*
X160117667Y-77330500D01*
X160117667Y-77161167D01*
X160075333Y-77076500D01*
X160033000Y-77034167D01*
X159948333Y-76991834D01*
X159779000Y-76991834D01*
X159694333Y-77034167D01*
X159652000Y-77076500D01*
X159609667Y-77161167D01*
X160117667Y-76610833D02*
X159228667Y-76610833D01*
X159228667Y-76272167D01*
X159271000Y-76187500D01*
X159313333Y-76145167D01*
X159398000Y-76102833D01*
X159525000Y-76102833D01*
X159609667Y-76145167D01*
X159652000Y-76187500D01*
X159694333Y-76272167D01*
X159694333Y-76610833D01*
X159779000Y-75721833D02*
X159779000Y-75044500D01*
X159313333Y-74663500D02*
X159271000Y-74621166D01*
X159228667Y-74536500D01*
X159228667Y-74324833D01*
X159271000Y-74240166D01*
X159313333Y-74197833D01*
X159398000Y-74155500D01*
X159482667Y-74155500D01*
X159609667Y-74197833D01*
X160117667Y-74705833D01*
X160117667Y-74155500D01*
X160033000Y-73774499D02*
X160075333Y-73732166D01*
X160117667Y-73774499D01*
X160075333Y-73816833D01*
X160033000Y-73774499D01*
X160117667Y-73774499D01*
X159228667Y-72927833D02*
X159228667Y-73351166D01*
X159652000Y-73393500D01*
X159609667Y-73351166D01*
X159567333Y-73266500D01*
X159567333Y-73054833D01*
X159609667Y-72970166D01*
X159652000Y-72927833D01*
X159736667Y-72885500D01*
X159948333Y-72885500D01*
X160033000Y-72927833D01*
X160075333Y-72970166D01*
X160117667Y-73054833D01*
X160117667Y-73266500D01*
X160075333Y-73351166D01*
X160033000Y-73393500D01*
X159525000Y-72123499D02*
X160117667Y-72123499D01*
X159186333Y-72335166D02*
X159821333Y-72546833D01*
X159821333Y-71996499D01*
X160202333Y-71869499D02*
X160202333Y-71192166D01*
X155037667Y-100402166D02*
X154148667Y-100402166D01*
X154148667Y-100190500D01*
X154191000Y-100063500D01*
X154275667Y-99978833D01*
X154360333Y-99936500D01*
X154529667Y-99894166D01*
X154656667Y-99894166D01*
X154826000Y-99936500D01*
X154910667Y-99978833D01*
X154995333Y-100063500D01*
X155037667Y-100190500D01*
X155037667Y-100402166D01*
X155037667Y-99513166D02*
X154148667Y-99513166D01*
X155037667Y-99089833D02*
X154148667Y-99089833D01*
X154148667Y-98751167D01*
X154191000Y-98666500D01*
X154233333Y-98624167D01*
X154318000Y-98581833D01*
X154445000Y-98581833D01*
X154529667Y-98624167D01*
X154572000Y-98666500D01*
X154614333Y-98751167D01*
X154614333Y-99089833D01*
X154699000Y-98200833D02*
X154699000Y-97523500D01*
X154572000Y-96803833D02*
X154614333Y-96676833D01*
X154656667Y-96634500D01*
X154741333Y-96592166D01*
X154868333Y-96592166D01*
X154953000Y-96634500D01*
X154995333Y-96676833D01*
X155037667Y-96761500D01*
X155037667Y-97100166D01*
X154148667Y-97100166D01*
X154148667Y-96803833D01*
X154191000Y-96719166D01*
X154233333Y-96676833D01*
X154318000Y-96634500D01*
X154402667Y-96634500D01*
X154487333Y-96676833D01*
X154529667Y-96719166D01*
X154572000Y-96803833D01*
X154572000Y-97100166D01*
X155037667Y-95787833D02*
X155037667Y-96211166D01*
X154148667Y-96211166D01*
X154783667Y-95533833D02*
X154783667Y-95110499D01*
X155037667Y-95618499D02*
X154148667Y-95322166D01*
X155037667Y-95025833D01*
X154953000Y-94221499D02*
X154995333Y-94263833D01*
X155037667Y-94390833D01*
X155037667Y-94475499D01*
X154995333Y-94602499D01*
X154910667Y-94687166D01*
X154826000Y-94729499D01*
X154656667Y-94771833D01*
X154529667Y-94771833D01*
X154360333Y-94729499D01*
X154275667Y-94687166D01*
X154191000Y-94602499D01*
X154148667Y-94475499D01*
X154148667Y-94390833D01*
X154191000Y-94263833D01*
X154233333Y-94221499D01*
X155037667Y-93840499D02*
X154148667Y-93840499D01*
X155037667Y-93332499D02*
X154529667Y-93713499D01*
X154148667Y-93332499D02*
X154656667Y-93840499D01*
X154699000Y-92951499D02*
X154699000Y-92274166D01*
X155037667Y-91850832D02*
X154148667Y-91850832D01*
X154783667Y-91554499D01*
X154148667Y-91258166D01*
X155037667Y-91258166D01*
X154783667Y-90877166D02*
X154783667Y-90453832D01*
X155037667Y-90961832D02*
X154148667Y-90665499D01*
X155037667Y-90369166D01*
X155037667Y-89649499D02*
X155037667Y-90072832D01*
X154148667Y-90072832D01*
X154572000Y-89353165D02*
X154572000Y-89056832D01*
X155037667Y-88929832D02*
X155037667Y-89353165D01*
X154148667Y-89353165D01*
X154148667Y-88929832D01*
X154699000Y-88548832D02*
X154699000Y-87871499D01*
X155037667Y-87448165D02*
X154148667Y-87448165D01*
X154572000Y-87448165D02*
X154572000Y-86940165D01*
X155037667Y-86940165D02*
X154148667Y-86940165D01*
X154572000Y-86516832D02*
X154572000Y-86220499D01*
X155037667Y-86093499D02*
X155037667Y-86516832D01*
X154148667Y-86516832D01*
X154148667Y-86093499D01*
X154783667Y-85754833D02*
X154783667Y-85331499D01*
X155037667Y-85839499D02*
X154148667Y-85543166D01*
X155037667Y-85246833D01*
X155037667Y-84950499D02*
X154148667Y-84950499D01*
X154148667Y-84738833D01*
X154191000Y-84611833D01*
X154275667Y-84527166D01*
X154360333Y-84484833D01*
X154529667Y-84442499D01*
X154656667Y-84442499D01*
X154826000Y-84484833D01*
X154910667Y-84527166D01*
X154995333Y-84611833D01*
X155037667Y-84738833D01*
X155037667Y-84950499D01*
X154572000Y-84061499D02*
X154572000Y-83765166D01*
X155037667Y-83638166D02*
X155037667Y-84061499D01*
X154148667Y-84061499D01*
X154148667Y-83638166D01*
X155037667Y-82749166D02*
X154614333Y-83045500D01*
X155037667Y-83257166D02*
X154148667Y-83257166D01*
X154148667Y-82918500D01*
X154191000Y-82833833D01*
X154233333Y-82791500D01*
X154318000Y-82749166D01*
X154445000Y-82749166D01*
X154529667Y-82791500D01*
X154572000Y-82833833D01*
X154614333Y-82918500D01*
X154614333Y-83257166D01*
X154699000Y-82368166D02*
X154699000Y-81690833D01*
X154148667Y-81394499D02*
X155037667Y-81098166D01*
X154148667Y-80801833D01*
X154572000Y-80505499D02*
X154572000Y-80209166D01*
X155037667Y-80082166D02*
X155037667Y-80505499D01*
X154148667Y-80505499D01*
X154148667Y-80082166D01*
X155037667Y-79193166D02*
X154614333Y-79489500D01*
X155037667Y-79701166D02*
X154148667Y-79701166D01*
X154148667Y-79362500D01*
X154191000Y-79277833D01*
X154233333Y-79235500D01*
X154318000Y-79193166D01*
X154445000Y-79193166D01*
X154529667Y-79235500D01*
X154572000Y-79277833D01*
X154614333Y-79362500D01*
X154614333Y-79701166D01*
X154148667Y-78939166D02*
X154148667Y-78431166D01*
X155037667Y-78685166D02*
X154148667Y-78685166D01*
X155122333Y-78346500D02*
X155122333Y-77669167D01*
X154529667Y-77330500D02*
X154487333Y-77415167D01*
X154445000Y-77457500D01*
X154360333Y-77499834D01*
X154318000Y-77499834D01*
X154233333Y-77457500D01*
X154191000Y-77415167D01*
X154148667Y-77330500D01*
X154148667Y-77161167D01*
X154191000Y-77076500D01*
X154233333Y-77034167D01*
X154318000Y-76991834D01*
X154360333Y-76991834D01*
X154445000Y-77034167D01*
X154487333Y-77076500D01*
X154529667Y-77161167D01*
X154529667Y-77330500D01*
X154572000Y-77415167D01*
X154614333Y-77457500D01*
X154699000Y-77499834D01*
X154868333Y-77499834D01*
X154953000Y-77457500D01*
X154995333Y-77415167D01*
X155037667Y-77330500D01*
X155037667Y-77161167D01*
X154995333Y-77076500D01*
X154953000Y-77034167D01*
X154868333Y-76991834D01*
X154699000Y-76991834D01*
X154614333Y-77034167D01*
X154572000Y-77076500D01*
X154529667Y-77161167D01*
X155037667Y-76610833D02*
X154148667Y-76610833D01*
X154148667Y-76272167D01*
X154191000Y-76187500D01*
X154233333Y-76145167D01*
X154318000Y-76102833D01*
X154445000Y-76102833D01*
X154529667Y-76145167D01*
X154572000Y-76187500D01*
X154614333Y-76272167D01*
X154614333Y-76610833D01*
X154699000Y-75721833D02*
X154699000Y-75044500D01*
X154233333Y-74663500D02*
X154191000Y-74621166D01*
X154148667Y-74536500D01*
X154148667Y-74324833D01*
X154191000Y-74240166D01*
X154233333Y-74197833D01*
X154318000Y-74155500D01*
X154402667Y-74155500D01*
X154529667Y-74197833D01*
X155037667Y-74705833D01*
X155037667Y-74155500D01*
X154953000Y-73774499D02*
X154995333Y-73732166D01*
X155037667Y-73774499D01*
X154995333Y-73816833D01*
X154953000Y-73774499D01*
X155037667Y-73774499D01*
X154148667Y-72927833D02*
X154148667Y-73351166D01*
X154572000Y-73393500D01*
X154529667Y-73351166D01*
X154487333Y-73266500D01*
X154487333Y-73054833D01*
X154529667Y-72970166D01*
X154572000Y-72927833D01*
X154656667Y-72885500D01*
X154868333Y-72885500D01*
X154953000Y-72927833D01*
X154995333Y-72970166D01*
X155037667Y-73054833D01*
X155037667Y-73266500D01*
X154995333Y-73351166D01*
X154953000Y-73393500D01*
X154445000Y-72123499D02*
X155037667Y-72123499D01*
X154106333Y-72335166D02*
X154741333Y-72546833D01*
X154741333Y-71996499D01*
X155122333Y-71869499D02*
X155122333Y-71192166D01*
D11*
X147461905Y-90252381D02*
X147461905Y-89252381D01*
X147700000Y-89252381D01*
X147842858Y-89300000D01*
X147938096Y-89395238D01*
X147985715Y-89490476D01*
X148033334Y-89680952D01*
X148033334Y-89823810D01*
X147985715Y-90014286D01*
X147938096Y-90109524D01*
X147842858Y-90204762D01*
X147700000Y-90252381D01*
X147461905Y-90252381D01*
X148985715Y-90252381D02*
X148414286Y-90252381D01*
X148700000Y-90252381D02*
X148700000Y-89252381D01*
X148604762Y-89395238D01*
X148509524Y-89490476D01*
X148414286Y-89538095D01*
X147461905Y-94852381D02*
X147461905Y-93852381D01*
X147700000Y-93852381D01*
X147842858Y-93900000D01*
X147938096Y-93995238D01*
X147985715Y-94090476D01*
X148033334Y-94280952D01*
X148033334Y-94423810D01*
X147985715Y-94614286D01*
X147938096Y-94709524D01*
X147842858Y-94804762D01*
X147700000Y-94852381D01*
X147461905Y-94852381D01*
X148414286Y-93947619D02*
X148461905Y-93900000D01*
X148557143Y-93852381D01*
X148795239Y-93852381D01*
X148890477Y-93900000D01*
X148938096Y-93947619D01*
X148985715Y-94042857D01*
X148985715Y-94138095D01*
X148938096Y-94280952D01*
X148366667Y-94852381D01*
X148985715Y-94852381D01*
X145348247Y-105004898D02*
X144499719Y-104156370D01*
X146156370Y-104035151D02*
X146156370Y-104115963D01*
X146075558Y-104277588D01*
X145994745Y-104358400D01*
X145833121Y-104439212D01*
X145671497Y-104439213D01*
X145550278Y-104398807D01*
X145348247Y-104277588D01*
X145227030Y-104156370D01*
X145105811Y-103954339D01*
X145065405Y-103833121D01*
X145065405Y-103671496D01*
X145146217Y-103509872D01*
X145227030Y-103429060D01*
X145388654Y-103348247D01*
X145469467Y-103348247D01*
X147045304Y-103307841D02*
X146560431Y-103792715D01*
X146802868Y-103550278D02*
X145954340Y-102701750D01*
X145994746Y-102903781D01*
X145994745Y-103065405D01*
X145954339Y-103186623D01*
X147733334Y-99057143D02*
X147685715Y-99104762D01*
X147542858Y-99152381D01*
X147447620Y-99152381D01*
X147304762Y-99104762D01*
X147209524Y-99009524D01*
X147161905Y-98914286D01*
X147114286Y-98723810D01*
X147114286Y-98580952D01*
X147161905Y-98390476D01*
X147209524Y-98295238D01*
X147304762Y-98200000D01*
X147447620Y-98152381D01*
X147542858Y-98152381D01*
X147685715Y-98200000D01*
X147733334Y-98247619D01*
X148066667Y-98152381D02*
X148685715Y-98152381D01*
X148352381Y-98533333D01*
X148495239Y-98533333D01*
X148590477Y-98580952D01*
X148638096Y-98628571D01*
X148685715Y-98723810D01*
X148685715Y-98961905D01*
X148638096Y-99057143D01*
X148590477Y-99104762D01*
X148495239Y-99152381D01*
X148209524Y-99152381D01*
X148114286Y-99104762D01*
X148066667Y-99057143D01*
X145609993Y-113845694D02*
X145609993Y-113913037D01*
X145542649Y-114047724D01*
X145475306Y-114115068D01*
X145340618Y-114182412D01*
X145205931Y-114182412D01*
X145104916Y-114148740D01*
X144936558Y-114047725D01*
X144835542Y-113946709D01*
X144734527Y-113778350D01*
X144700855Y-113677335D01*
X144700855Y-113542648D01*
X144768199Y-113407961D01*
X144835542Y-113340617D01*
X144970229Y-113273274D01*
X145037573Y-113273274D01*
X146350771Y-113239602D02*
X145946710Y-113643664D01*
X146148740Y-113441633D02*
X145441633Y-112734527D01*
X145475305Y-112902885D01*
X145475305Y-113037572D01*
X145441633Y-113138587D01*
X141552381Y-115066666D02*
X141076190Y-115400000D01*
X141552381Y-115638095D02*
X140552381Y-115638095D01*
X140552381Y-115257142D01*
X140600000Y-115161904D01*
X140647619Y-115114285D01*
X140742857Y-115066666D01*
X140885714Y-115066666D01*
X140980952Y-115114285D01*
X141028571Y-115161904D01*
X141076190Y-115257142D01*
X141076190Y-115638095D01*
X141552381Y-114114285D02*
X141552381Y-114685714D01*
X141552381Y-114400000D02*
X140552381Y-114400000D01*
X140695238Y-114495238D01*
X140790476Y-114590476D01*
X140838095Y-114685714D01*
X146178036Y-115948528D02*
X145841318Y-116285246D01*
X146312723Y-115342437D02*
X146178036Y-115948528D01*
X146784128Y-115813842D01*
X146683113Y-117127040D02*
X146279051Y-116722979D01*
X146481082Y-116925009D02*
X147188189Y-116217902D01*
X147019830Y-116251574D01*
X146885143Y-116251574D01*
X146784128Y-116217902D01*
M02*
