G04 #@! TF.FileFunction,Paste,Top*
%FSLAX46Y46*%
G04 Gerber Fmt 4.6, Leading zero omitted, Abs format (unit mm)*
G04 Created by KiCad (PCBNEW 4.0.7) date 07/31/18 09:39:55*
%MOMM*%
%LPD*%
G01*
G04 APERTURE LIST*
%ADD10C,0.100000*%
%ADD11R,1.600000X1.000000*%
%ADD12R,0.600000X1.800000*%
%ADD13R,1.000000X2.800000*%
%ADD14R,0.500000X0.900000*%
%ADD15R,1.651000X1.651000*%
%ADD16C,1.651000*%
%ADD17R,2.500000X2.300000*%
%ADD18C,0.500000*%
%ADD19R,2.550000X2.500000*%
%ADD20R,0.400000X0.500000*%
G04 APERTURE END LIST*
D10*
D11*
X141100000Y-119500000D03*
X141100000Y-122500000D03*
D12*
X153125000Y-119225000D03*
X151875000Y-119225000D03*
X150625000Y-119225000D03*
X149375000Y-119225000D03*
X148125000Y-119225000D03*
X146875000Y-119225000D03*
D13*
X145150000Y-122575000D03*
X154850000Y-122575000D03*
D14*
X142000000Y-117300000D03*
X143500000Y-117300000D03*
D15*
X155080000Y-78410000D03*
D16*
X155080000Y-80950000D03*
X155080000Y-83490000D03*
X155080000Y-86030000D03*
X155080000Y-88570000D03*
X155080000Y-91110000D03*
X155080000Y-93650000D03*
X155080000Y-96190000D03*
D15*
X157620000Y-78410000D03*
D16*
X157620000Y-80950000D03*
X157620000Y-83490000D03*
X157620000Y-86030000D03*
X157620000Y-88570000D03*
X157620000Y-91110000D03*
X157620000Y-93650000D03*
X157620000Y-96190000D03*
D15*
X152540000Y-78410000D03*
D16*
X152540000Y-80950000D03*
X152540000Y-83490000D03*
X152540000Y-86030000D03*
X152540000Y-88570000D03*
X152540000Y-91110000D03*
X152540000Y-93650000D03*
X152540000Y-96190000D03*
D17*
X145850000Y-89800000D03*
X141550000Y-89800000D03*
X145850000Y-94400000D03*
X141550000Y-94400000D03*
D18*
X144838121Y-109202081D02*
X145545227Y-108494975D01*
X145403806Y-109767767D02*
X146110912Y-109060661D01*
X145969492Y-110333452D02*
X146676598Y-109626346D01*
X146535177Y-110899137D02*
X147242283Y-110192031D01*
X147100863Y-111464823D02*
X147807969Y-110757717D01*
X147666548Y-112030508D02*
X148373654Y-111323402D01*
X148232233Y-112596194D02*
X148939339Y-111889088D01*
X148797919Y-113161879D02*
X149505025Y-112454773D01*
X150494975Y-112454773D02*
X151202081Y-113161879D01*
X151060661Y-111889088D02*
X151767767Y-112596194D01*
X151626346Y-111323402D02*
X152333452Y-112030508D01*
X152192031Y-110757717D02*
X152899137Y-111464823D01*
X152757717Y-110192031D02*
X153464823Y-110899137D01*
X153323402Y-109626346D02*
X154030508Y-110333452D01*
X153889088Y-109060661D02*
X154596194Y-109767767D01*
X154454773Y-108494975D02*
X155161879Y-109202081D01*
X154454773Y-107505025D02*
X155161879Y-106797919D01*
X153889088Y-106939339D02*
X154596194Y-106232233D01*
X153323402Y-106373654D02*
X154030508Y-105666548D01*
X152757717Y-105807969D02*
X153464823Y-105100863D01*
X152192031Y-105242283D02*
X152899137Y-104535177D01*
X151626346Y-104676598D02*
X152333452Y-103969492D01*
X151060661Y-104110912D02*
X151767767Y-103403806D01*
X150494975Y-103545227D02*
X151202081Y-102838121D01*
X148797919Y-102838121D02*
X149505025Y-103545227D01*
X148232233Y-103403806D02*
X148939339Y-104110912D01*
X147666548Y-103969492D02*
X148373654Y-104676598D01*
X147100863Y-104535177D02*
X147807969Y-105242283D01*
X146535177Y-105100863D02*
X147242283Y-105807969D01*
X145969492Y-105666548D02*
X146676598Y-106373654D01*
X145403806Y-106232233D02*
X146110912Y-106939339D01*
X144838121Y-106797919D02*
X145545227Y-107505025D01*
D19*
X145225000Y-98700000D03*
X140175000Y-98700000D03*
D10*
G36*
X144768198Y-112414645D02*
X145051041Y-112697488D01*
X144697488Y-113051041D01*
X144414645Y-112768198D01*
X144768198Y-112414645D01*
X144768198Y-112414645D01*
G37*
G36*
X144202512Y-111848959D02*
X144485355Y-112131802D01*
X144131802Y-112485355D01*
X143848959Y-112202512D01*
X144202512Y-111848959D01*
X144202512Y-111848959D01*
G37*
D20*
X142150000Y-114900000D03*
X142950000Y-114900000D03*
D10*
G36*
X149361701Y-115418198D02*
X148018198Y-116761701D01*
X147735355Y-116478858D01*
X149078858Y-115135355D01*
X149361701Y-115418198D01*
X149361701Y-115418198D01*
G37*
G36*
X148513173Y-114569670D02*
X147169670Y-115913173D01*
X146886827Y-115630330D01*
X148230330Y-114286827D01*
X148513173Y-114569670D01*
X148513173Y-114569670D01*
G37*
G36*
X147664645Y-113721142D02*
X146321142Y-115064645D01*
X146038299Y-114781802D01*
X147381802Y-113438299D01*
X147664645Y-113721142D01*
X147664645Y-113721142D01*
G37*
M02*
