G04 #@! TF.FileFunction,Copper,L2,Bot,Signal*
%FSLAX46Y46*%
G04 Gerber Fmt 4.6, Leading zero omitted, Abs format (unit mm)*
G04 Created by KiCad (PCBNEW 4.0.7) date 07/31/18 09:39:55*
%MOMM*%
%LPD*%
G01*
G04 APERTURE LIST*
%ADD10C,0.100000*%
%ADD11C,1.200000*%
%ADD12C,1.800000*%
%ADD13R,1.651000X1.651000*%
%ADD14C,1.651000*%
%ADD15C,0.500000*%
%ADD16C,0.800000*%
%ADD17C,0.600000*%
%ADD18C,0.700000*%
%ADD19C,0.152400*%
%ADD20C,0.600000*%
%ADD21C,0.500000*%
%ADD22C,0.254000*%
G04 APERTURE END LIST*
D10*
D11*
X155080000Y-120230000D03*
X155080000Y-122770000D03*
X152540000Y-120230000D03*
X152540000Y-122770000D03*
X150000000Y-120230000D03*
X150000000Y-122770000D03*
X147460000Y-120230000D03*
X147460000Y-122770000D03*
X144920000Y-120230000D03*
X144920000Y-122770000D03*
D12*
X144666000Y-79880000D03*
X147206000Y-79880000D03*
X144666000Y-84960000D03*
X147206000Y-84960000D03*
D13*
X155080000Y-78410000D03*
D14*
X155080000Y-80950000D03*
X155080000Y-83490000D03*
X155080000Y-86030000D03*
X155080000Y-88570000D03*
X155080000Y-91110000D03*
X155080000Y-93650000D03*
X155080000Y-96190000D03*
D13*
X157620000Y-78410000D03*
D14*
X157620000Y-80950000D03*
X157620000Y-83490000D03*
X157620000Y-86030000D03*
X157620000Y-88570000D03*
X157620000Y-91110000D03*
X157620000Y-93650000D03*
X157620000Y-96190000D03*
D13*
X152540000Y-78410000D03*
D14*
X152540000Y-80950000D03*
X152540000Y-83490000D03*
X152540000Y-86030000D03*
X152540000Y-88570000D03*
X152540000Y-91110000D03*
X152540000Y-93650000D03*
X152540000Y-96190000D03*
D15*
X148300000Y-121000000D03*
X149000000Y-121000000D03*
X153600000Y-121200000D03*
X155600000Y-110500000D03*
X155500000Y-113200000D03*
X151200000Y-120900000D03*
D16*
X139100000Y-101100000D03*
X145700000Y-117600000D03*
X142700000Y-122500000D03*
D17*
X143400000Y-112900000D03*
X153500000Y-103900000D03*
X146400000Y-112100000D03*
X148700000Y-114100000D03*
D15*
X145700000Y-104500000D03*
X142400000Y-104500000D03*
X144400000Y-115200000D03*
X154100000Y-118700000D03*
X153900000Y-115700000D03*
X145100000Y-105000000D03*
X154800000Y-114800000D03*
X155100000Y-118700000D03*
X144600000Y-105500000D03*
D16*
X139300000Y-96200000D03*
D18*
X150500000Y-121500000D03*
D15*
X149200000Y-99200000D03*
X149700000Y-98600000D03*
X150000000Y-111800000D03*
X150500000Y-111300000D03*
X151000000Y-110700000D03*
X151600000Y-110200000D03*
X152200000Y-109600000D03*
X148300000Y-99500000D03*
D19*
X147460000Y-122770000D02*
X147460000Y-121840000D01*
X147460000Y-121840000D02*
X148300000Y-121000000D01*
X150000000Y-122770000D02*
X149000000Y-121770000D01*
X149000000Y-121770000D02*
X149000000Y-121000000D01*
X155080000Y-122770000D02*
X153600000Y-121290000D01*
X153600000Y-121290000D02*
X153600000Y-121200000D01*
X155600000Y-110500000D02*
X155600000Y-113100000D01*
X155600000Y-113100000D02*
X155500000Y-113200000D01*
X152540000Y-122770000D02*
X151200000Y-121430000D01*
X151200000Y-121430000D02*
X151200000Y-120900000D01*
D20*
X140400000Y-111400000D02*
X139100000Y-110100000D01*
X139100000Y-110100000D02*
X139100000Y-101100000D01*
X140400000Y-117300000D02*
X140400000Y-111400000D01*
X142730001Y-119630001D02*
X140400000Y-117300000D01*
X144920000Y-120230000D02*
X144320001Y-119630001D01*
X144320001Y-119630001D02*
X142730001Y-119630001D01*
X147206000Y-79880000D02*
X147206000Y-84960000D01*
D19*
X142400000Y-104500000D02*
X145700000Y-104500000D01*
X147460000Y-117660000D02*
X145000000Y-115200000D01*
X145000000Y-115200000D02*
X144400000Y-115200000D01*
X147460000Y-120230000D02*
X147460000Y-117660000D01*
X145100000Y-105000000D02*
X144200000Y-105000000D01*
X144200000Y-105000000D02*
X144000000Y-105200000D01*
X144000000Y-108100000D02*
X151600000Y-115700000D01*
X144000000Y-105200000D02*
X144000000Y-108100000D01*
X151600000Y-115700000D02*
X153900000Y-115700000D01*
X152540000Y-120230000D02*
X154070000Y-118700000D01*
X154070000Y-118700000D02*
X154100000Y-118700000D01*
X144600000Y-105500000D02*
X144600000Y-108100000D01*
X144600000Y-108100000D02*
X151300000Y-114800000D01*
X151300000Y-114800000D02*
X154800000Y-114800000D01*
X155080000Y-120230000D02*
X155080000Y-118720000D01*
X155080000Y-118720000D02*
X155100000Y-118700000D01*
D20*
X140000000Y-102000000D02*
X140000000Y-96900000D01*
X140000000Y-96900000D02*
X139300000Y-96200000D01*
X143200000Y-113900000D02*
X141152411Y-111852411D01*
X141152411Y-111852411D02*
X141152411Y-111088342D01*
X144547568Y-113900000D02*
X143200000Y-113900000D01*
X150000000Y-119352432D02*
X144547568Y-113900000D01*
X150000000Y-120230000D02*
X150000000Y-119352432D01*
D21*
X150000000Y-120230000D02*
X150000000Y-121000000D01*
X150000000Y-121000000D02*
X150500000Y-121500000D01*
X150000000Y-120230000D02*
X150000000Y-120300000D01*
D20*
X140000000Y-109935931D02*
X140000000Y-102565685D01*
X140000000Y-102565685D02*
X140000000Y-102000000D01*
X141152411Y-111088342D02*
X140000000Y-109935931D01*
D19*
X150900000Y-87400000D02*
X150900000Y-82590000D01*
X150900000Y-82590000D02*
X152540000Y-80950000D01*
X149200000Y-89100000D02*
X150900000Y-87400000D01*
X149200000Y-99200000D02*
X149200000Y-89100000D01*
X151714501Y-84315499D02*
X152540000Y-83490000D01*
X151204809Y-84825191D02*
X151714501Y-84315499D01*
X151204809Y-87526257D02*
X151204809Y-84825191D01*
X149700000Y-98600000D02*
X149700000Y-89031066D01*
X149700000Y-89031066D02*
X151204809Y-87526257D01*
X151714501Y-87447631D02*
X151714501Y-86855499D01*
X150078601Y-98270271D02*
X150078601Y-89083531D01*
X150178601Y-98370271D02*
X150078601Y-98270271D01*
X150078601Y-89083531D02*
X151714501Y-87447631D01*
X150178601Y-98829729D02*
X150178601Y-98370271D01*
X150000000Y-99008330D02*
X150178601Y-98829729D01*
X150000000Y-111800000D02*
X150000000Y-99008330D01*
X151714501Y-86855499D02*
X152540000Y-86030000D01*
X150500000Y-111300000D02*
X150500000Y-90610000D01*
X150500000Y-90610000D02*
X152540000Y-88570000D01*
X151000000Y-110700000D02*
X151000000Y-97300000D01*
X151000000Y-97300000D02*
X150900000Y-97200000D01*
X150900000Y-97200000D02*
X150900000Y-92750000D01*
X150900000Y-92750000D02*
X152540000Y-91110000D01*
X151600000Y-110200000D02*
X151600000Y-97400000D01*
X151600000Y-97400000D02*
X151300000Y-97100000D01*
X151300000Y-97100000D02*
X151300000Y-94890000D01*
X151300000Y-94890000D02*
X152540000Y-93650000D01*
X152200000Y-109600000D02*
X152200000Y-99700000D01*
X152200000Y-99700000D02*
X152540000Y-99360000D01*
X152540000Y-99360000D02*
X152540000Y-96190000D01*
X150500000Y-79400000D02*
X151490000Y-78410000D01*
X151490000Y-78410000D02*
X152540000Y-78410000D01*
X150500000Y-87200000D02*
X150500000Y-79400000D01*
X148700000Y-89000000D02*
X150500000Y-87200000D01*
X148700000Y-98500000D02*
X148700000Y-89000000D01*
X148300000Y-98900000D02*
X148700000Y-98500000D01*
X148300000Y-99500000D02*
X148300000Y-98900000D01*
D20*
X144666000Y-79880000D02*
X144666000Y-84960000D01*
D22*
G36*
X161373000Y-84947394D02*
X159910197Y-86410197D01*
X159883006Y-86450590D01*
X159873000Y-86500000D01*
X159873000Y-88500000D01*
X159882334Y-88547789D01*
X159910197Y-88589803D01*
X161373000Y-90052606D01*
X161373000Y-99873000D01*
X152738632Y-99873000D01*
X152895816Y-99715816D01*
X153004896Y-99552566D01*
X153043200Y-99360000D01*
X153043200Y-97337289D01*
X153248557Y-97252437D01*
X153601199Y-96900411D01*
X153792282Y-96440231D01*
X153792283Y-96438045D01*
X153827283Y-96438045D01*
X154017563Y-96898557D01*
X154369589Y-97251199D01*
X154829769Y-97442282D01*
X155328045Y-97442717D01*
X155788557Y-97252437D01*
X156007754Y-97033622D01*
X156808905Y-97033622D01*
X156888105Y-97236497D01*
X157344294Y-97436921D01*
X157842457Y-97447513D01*
X158306753Y-97266660D01*
X158351895Y-97236497D01*
X158431095Y-97033622D01*
X157620000Y-96222527D01*
X156808905Y-97033622D01*
X156007754Y-97033622D01*
X156141199Y-96900411D01*
X156332282Y-96440231D01*
X156332306Y-96412457D01*
X156362487Y-96412457D01*
X156543340Y-96876753D01*
X156573503Y-96921895D01*
X156776378Y-97001095D01*
X157587473Y-96190000D01*
X157652527Y-96190000D01*
X158463622Y-97001095D01*
X158666497Y-96921895D01*
X158866921Y-96465706D01*
X158877513Y-95967543D01*
X158696660Y-95503247D01*
X158666497Y-95458105D01*
X158463622Y-95378905D01*
X157652527Y-96190000D01*
X157587473Y-96190000D01*
X156776378Y-95378905D01*
X156573503Y-95458105D01*
X156373079Y-95914294D01*
X156362487Y-96412457D01*
X156332306Y-96412457D01*
X156332717Y-95941955D01*
X156142437Y-95481443D01*
X156007608Y-95346378D01*
X156808905Y-95346378D01*
X157620000Y-96157473D01*
X158431095Y-95346378D01*
X158351895Y-95143503D01*
X157895706Y-94943079D01*
X157397543Y-94932487D01*
X156933247Y-95113340D01*
X156888105Y-95143503D01*
X156808905Y-95346378D01*
X156007608Y-95346378D01*
X155790411Y-95128801D01*
X155330231Y-94937718D01*
X154831955Y-94937283D01*
X154371443Y-95127563D01*
X154018801Y-95479589D01*
X153827718Y-95939769D01*
X153827283Y-96438045D01*
X153792283Y-96438045D01*
X153792717Y-95941955D01*
X153602437Y-95481443D01*
X153250411Y-95128801D01*
X152790231Y-94937718D01*
X152291955Y-94937283D01*
X151831443Y-95127563D01*
X151803200Y-95155757D01*
X151803200Y-95098432D01*
X152084560Y-94817072D01*
X152289769Y-94902282D01*
X152788045Y-94902717D01*
X153248557Y-94712437D01*
X153601199Y-94360411D01*
X153792282Y-93900231D01*
X153792283Y-93898045D01*
X153827283Y-93898045D01*
X154017563Y-94358557D01*
X154369589Y-94711199D01*
X154829769Y-94902282D01*
X155328045Y-94902717D01*
X155788557Y-94712437D01*
X156007754Y-94493622D01*
X156808905Y-94493622D01*
X156888105Y-94696497D01*
X157344294Y-94896921D01*
X157842457Y-94907513D01*
X158306753Y-94726660D01*
X158351895Y-94696497D01*
X158431095Y-94493622D01*
X157620000Y-93682527D01*
X156808905Y-94493622D01*
X156007754Y-94493622D01*
X156141199Y-94360411D01*
X156332282Y-93900231D01*
X156332306Y-93872457D01*
X156362487Y-93872457D01*
X156543340Y-94336753D01*
X156573503Y-94381895D01*
X156776378Y-94461095D01*
X157587473Y-93650000D01*
X157652527Y-93650000D01*
X158463622Y-94461095D01*
X158666497Y-94381895D01*
X158866921Y-93925706D01*
X158877513Y-93427543D01*
X158696660Y-92963247D01*
X158666497Y-92918105D01*
X158463622Y-92838905D01*
X157652527Y-93650000D01*
X157587473Y-93650000D01*
X156776378Y-92838905D01*
X156573503Y-92918105D01*
X156373079Y-93374294D01*
X156362487Y-93872457D01*
X156332306Y-93872457D01*
X156332717Y-93401955D01*
X156142437Y-92941443D01*
X156007608Y-92806378D01*
X156808905Y-92806378D01*
X157620000Y-93617473D01*
X158431095Y-92806378D01*
X158351895Y-92603503D01*
X157895706Y-92403079D01*
X157397543Y-92392487D01*
X156933247Y-92573340D01*
X156888105Y-92603503D01*
X156808905Y-92806378D01*
X156007608Y-92806378D01*
X155790411Y-92588801D01*
X155330231Y-92397718D01*
X154831955Y-92397283D01*
X154371443Y-92587563D01*
X154018801Y-92939589D01*
X153827718Y-93399769D01*
X153827283Y-93898045D01*
X153792283Y-93898045D01*
X153792717Y-93401955D01*
X153602437Y-92941443D01*
X153250411Y-92588801D01*
X152790231Y-92397718D01*
X152291955Y-92397283D01*
X151831443Y-92587563D01*
X151478801Y-92939589D01*
X151403200Y-93121657D01*
X151403200Y-92958432D01*
X152084560Y-92277072D01*
X152289769Y-92362282D01*
X152788045Y-92362717D01*
X153248557Y-92172437D01*
X153601199Y-91820411D01*
X153792282Y-91360231D01*
X153792283Y-91358045D01*
X153827283Y-91358045D01*
X154017563Y-91818557D01*
X154369589Y-92171199D01*
X154829769Y-92362282D01*
X155328045Y-92362717D01*
X155788557Y-92172437D01*
X156007754Y-91953622D01*
X156808905Y-91953622D01*
X156888105Y-92156497D01*
X157344294Y-92356921D01*
X157842457Y-92367513D01*
X158306753Y-92186660D01*
X158351895Y-92156497D01*
X158431095Y-91953622D01*
X157620000Y-91142527D01*
X156808905Y-91953622D01*
X156007754Y-91953622D01*
X156141199Y-91820411D01*
X156332282Y-91360231D01*
X156332306Y-91332457D01*
X156362487Y-91332457D01*
X156543340Y-91796753D01*
X156573503Y-91841895D01*
X156776378Y-91921095D01*
X157587473Y-91110000D01*
X157652527Y-91110000D01*
X158463622Y-91921095D01*
X158666497Y-91841895D01*
X158866921Y-91385706D01*
X158877513Y-90887543D01*
X158696660Y-90423247D01*
X158666497Y-90378105D01*
X158463622Y-90298905D01*
X157652527Y-91110000D01*
X157587473Y-91110000D01*
X156776378Y-90298905D01*
X156573503Y-90378105D01*
X156373079Y-90834294D01*
X156362487Y-91332457D01*
X156332306Y-91332457D01*
X156332717Y-90861955D01*
X156142437Y-90401443D01*
X156007608Y-90266378D01*
X156808905Y-90266378D01*
X157620000Y-91077473D01*
X158431095Y-90266378D01*
X158351895Y-90063503D01*
X157895706Y-89863079D01*
X157397543Y-89852487D01*
X156933247Y-90033340D01*
X156888105Y-90063503D01*
X156808905Y-90266378D01*
X156007608Y-90266378D01*
X155790411Y-90048801D01*
X155330231Y-89857718D01*
X154831955Y-89857283D01*
X154371443Y-90047563D01*
X154018801Y-90399589D01*
X153827718Y-90859769D01*
X153827283Y-91358045D01*
X153792283Y-91358045D01*
X153792717Y-90861955D01*
X153602437Y-90401443D01*
X153250411Y-90048801D01*
X152790231Y-89857718D01*
X152291955Y-89857283D01*
X151831443Y-90047563D01*
X151478801Y-90399589D01*
X151287718Y-90859769D01*
X151287283Y-91358045D01*
X151372963Y-91565405D01*
X151003200Y-91935168D01*
X151003200Y-90818432D01*
X152084560Y-89737072D01*
X152289769Y-89822282D01*
X152788045Y-89822717D01*
X153248557Y-89632437D01*
X153601199Y-89280411D01*
X153792282Y-88820231D01*
X153792283Y-88818045D01*
X153827283Y-88818045D01*
X154017563Y-89278557D01*
X154369589Y-89631199D01*
X154829769Y-89822282D01*
X155328045Y-89822717D01*
X155788557Y-89632437D01*
X156007754Y-89413622D01*
X156808905Y-89413622D01*
X156888105Y-89616497D01*
X157344294Y-89816921D01*
X157842457Y-89827513D01*
X158306753Y-89646660D01*
X158351895Y-89616497D01*
X158431095Y-89413622D01*
X157620000Y-88602527D01*
X156808905Y-89413622D01*
X156007754Y-89413622D01*
X156141199Y-89280411D01*
X156332282Y-88820231D01*
X156332306Y-88792457D01*
X156362487Y-88792457D01*
X156543340Y-89256753D01*
X156573503Y-89301895D01*
X156776378Y-89381095D01*
X157587473Y-88570000D01*
X157652527Y-88570000D01*
X158463622Y-89381095D01*
X158666497Y-89301895D01*
X158866921Y-88845706D01*
X158877513Y-88347543D01*
X158696660Y-87883247D01*
X158666497Y-87838105D01*
X158463622Y-87758905D01*
X157652527Y-88570000D01*
X157587473Y-88570000D01*
X156776378Y-87758905D01*
X156573503Y-87838105D01*
X156373079Y-88294294D01*
X156362487Y-88792457D01*
X156332306Y-88792457D01*
X156332717Y-88321955D01*
X156142437Y-87861443D01*
X156007608Y-87726378D01*
X156808905Y-87726378D01*
X157620000Y-88537473D01*
X158431095Y-87726378D01*
X158351895Y-87523503D01*
X157895706Y-87323079D01*
X157397543Y-87312487D01*
X156933247Y-87493340D01*
X156888105Y-87523503D01*
X156808905Y-87726378D01*
X156007608Y-87726378D01*
X155790411Y-87508801D01*
X155330231Y-87317718D01*
X154831955Y-87317283D01*
X154371443Y-87507563D01*
X154018801Y-87859589D01*
X153827718Y-88319769D01*
X153827283Y-88818045D01*
X153792283Y-88818045D01*
X153792717Y-88321955D01*
X153602437Y-87861443D01*
X153250411Y-87508801D01*
X152790231Y-87317718D01*
X152291955Y-87317283D01*
X152217701Y-87347964D01*
X152217701Y-87252357D01*
X152289769Y-87282282D01*
X152788045Y-87282717D01*
X153248557Y-87092437D01*
X153601199Y-86740411D01*
X153792282Y-86280231D01*
X153792283Y-86278045D01*
X153827283Y-86278045D01*
X154017563Y-86738557D01*
X154369589Y-87091199D01*
X154829769Y-87282282D01*
X155328045Y-87282717D01*
X155788557Y-87092437D01*
X156007754Y-86873622D01*
X156808905Y-86873622D01*
X156888105Y-87076497D01*
X157344294Y-87276921D01*
X157842457Y-87287513D01*
X158306753Y-87106660D01*
X158351895Y-87076497D01*
X158431095Y-86873622D01*
X157620000Y-86062527D01*
X156808905Y-86873622D01*
X156007754Y-86873622D01*
X156141199Y-86740411D01*
X156332282Y-86280231D01*
X156332306Y-86252457D01*
X156362487Y-86252457D01*
X156543340Y-86716753D01*
X156573503Y-86761895D01*
X156776378Y-86841095D01*
X157587473Y-86030000D01*
X157652527Y-86030000D01*
X158463622Y-86841095D01*
X158666497Y-86761895D01*
X158866921Y-86305706D01*
X158877513Y-85807543D01*
X158696660Y-85343247D01*
X158666497Y-85298105D01*
X158463622Y-85218905D01*
X157652527Y-86030000D01*
X157587473Y-86030000D01*
X156776378Y-85218905D01*
X156573503Y-85298105D01*
X156373079Y-85754294D01*
X156362487Y-86252457D01*
X156332306Y-86252457D01*
X156332717Y-85781955D01*
X156142437Y-85321443D01*
X156007608Y-85186378D01*
X156808905Y-85186378D01*
X157620000Y-85997473D01*
X158431095Y-85186378D01*
X158351895Y-84983503D01*
X157895706Y-84783079D01*
X157397543Y-84772487D01*
X156933247Y-84953340D01*
X156888105Y-84983503D01*
X156808905Y-85186378D01*
X156007608Y-85186378D01*
X155790411Y-84968801D01*
X155330231Y-84777718D01*
X154831955Y-84777283D01*
X154371443Y-84967563D01*
X154018801Y-85319589D01*
X153827718Y-85779769D01*
X153827283Y-86278045D01*
X153792283Y-86278045D01*
X153792717Y-85781955D01*
X153602437Y-85321443D01*
X153250411Y-84968801D01*
X152790231Y-84777718D01*
X152291955Y-84777283D01*
X151831443Y-84967563D01*
X151708009Y-85090781D01*
X151708009Y-85033623D01*
X152084560Y-84657072D01*
X152289769Y-84742282D01*
X152788045Y-84742717D01*
X153248557Y-84552437D01*
X153601199Y-84200411D01*
X153792282Y-83740231D01*
X153792283Y-83738045D01*
X153827283Y-83738045D01*
X154017563Y-84198557D01*
X154369589Y-84551199D01*
X154829769Y-84742282D01*
X155328045Y-84742717D01*
X155788557Y-84552437D01*
X156007754Y-84333622D01*
X156808905Y-84333622D01*
X156888105Y-84536497D01*
X157344294Y-84736921D01*
X157842457Y-84747513D01*
X158306753Y-84566660D01*
X158351895Y-84536497D01*
X158431095Y-84333622D01*
X157620000Y-83522527D01*
X156808905Y-84333622D01*
X156007754Y-84333622D01*
X156141199Y-84200411D01*
X156332282Y-83740231D01*
X156332306Y-83712457D01*
X156362487Y-83712457D01*
X156543340Y-84176753D01*
X156573503Y-84221895D01*
X156776378Y-84301095D01*
X157587473Y-83490000D01*
X157652527Y-83490000D01*
X158463622Y-84301095D01*
X158666497Y-84221895D01*
X158866921Y-83765706D01*
X158877513Y-83267543D01*
X158696660Y-82803247D01*
X158666497Y-82758105D01*
X158463622Y-82678905D01*
X157652527Y-83490000D01*
X157587473Y-83490000D01*
X156776378Y-82678905D01*
X156573503Y-82758105D01*
X156373079Y-83214294D01*
X156362487Y-83712457D01*
X156332306Y-83712457D01*
X156332717Y-83241955D01*
X156142437Y-82781443D01*
X156007608Y-82646378D01*
X156808905Y-82646378D01*
X157620000Y-83457473D01*
X158431095Y-82646378D01*
X158351895Y-82443503D01*
X157895706Y-82243079D01*
X157397543Y-82232487D01*
X156933247Y-82413340D01*
X156888105Y-82443503D01*
X156808905Y-82646378D01*
X156007608Y-82646378D01*
X155790411Y-82428801D01*
X155330231Y-82237718D01*
X154831955Y-82237283D01*
X154371443Y-82427563D01*
X154018801Y-82779589D01*
X153827718Y-83239769D01*
X153827283Y-83738045D01*
X153792283Y-83738045D01*
X153792717Y-83241955D01*
X153602437Y-82781443D01*
X153250411Y-82428801D01*
X152790231Y-82237718D01*
X152291955Y-82237283D01*
X151831443Y-82427563D01*
X151478801Y-82779589D01*
X151403200Y-82961657D01*
X151403200Y-82798432D01*
X152084560Y-82117072D01*
X152289769Y-82202282D01*
X152788045Y-82202717D01*
X153248557Y-82012437D01*
X153601199Y-81660411D01*
X153792282Y-81200231D01*
X153792283Y-81198045D01*
X153827283Y-81198045D01*
X154017563Y-81658557D01*
X154369589Y-82011199D01*
X154829769Y-82202282D01*
X155328045Y-82202717D01*
X155788557Y-82012437D01*
X156007754Y-81793622D01*
X156808905Y-81793622D01*
X156888105Y-81996497D01*
X157344294Y-82196921D01*
X157842457Y-82207513D01*
X158306753Y-82026660D01*
X158351895Y-81996497D01*
X158431095Y-81793622D01*
X157620000Y-80982527D01*
X156808905Y-81793622D01*
X156007754Y-81793622D01*
X156141199Y-81660411D01*
X156332282Y-81200231D01*
X156332306Y-81172457D01*
X156362487Y-81172457D01*
X156543340Y-81636753D01*
X156573503Y-81681895D01*
X156776378Y-81761095D01*
X157587473Y-80950000D01*
X157652527Y-80950000D01*
X158463622Y-81761095D01*
X158666497Y-81681895D01*
X158866921Y-81225706D01*
X158877513Y-80727543D01*
X158696660Y-80263247D01*
X158666497Y-80218105D01*
X158463622Y-80138905D01*
X157652527Y-80950000D01*
X157587473Y-80950000D01*
X156776378Y-80138905D01*
X156573503Y-80218105D01*
X156373079Y-80674294D01*
X156362487Y-81172457D01*
X156332306Y-81172457D01*
X156332717Y-80701955D01*
X156142437Y-80241443D01*
X156007608Y-80106378D01*
X156808905Y-80106378D01*
X157620000Y-80917473D01*
X158431095Y-80106378D01*
X158351895Y-79903503D01*
X157895706Y-79703079D01*
X157397543Y-79692487D01*
X156933247Y-79873340D01*
X156888105Y-79903503D01*
X156808905Y-80106378D01*
X156007608Y-80106378D01*
X155790411Y-79888801D01*
X155330231Y-79697718D01*
X154831955Y-79697283D01*
X154371443Y-79887563D01*
X154018801Y-80239589D01*
X153827718Y-80699769D01*
X153827283Y-81198045D01*
X153792283Y-81198045D01*
X153792717Y-80701955D01*
X153602437Y-80241443D01*
X153250411Y-79888801D01*
X152790231Y-79697718D01*
X152291955Y-79697283D01*
X151831443Y-79887563D01*
X151478801Y-80239589D01*
X151287718Y-80699769D01*
X151287283Y-81198045D01*
X151372963Y-81405405D01*
X151003200Y-81775168D01*
X151003200Y-79608432D01*
X151294496Y-79317136D01*
X151308909Y-79393737D01*
X151402427Y-79539067D01*
X151545119Y-79636564D01*
X151714500Y-79670865D01*
X153365500Y-79670865D01*
X153523737Y-79641091D01*
X153669067Y-79547573D01*
X153766564Y-79404881D01*
X153800865Y-79235500D01*
X153800865Y-77584500D01*
X153819135Y-77584500D01*
X153819135Y-79235500D01*
X153848909Y-79393737D01*
X153942427Y-79539067D01*
X154085119Y-79636564D01*
X154254500Y-79670865D01*
X155905500Y-79670865D01*
X156063737Y-79641091D01*
X156209067Y-79547573D01*
X156306564Y-79404881D01*
X156340865Y-79235500D01*
X156340865Y-78539750D01*
X156367500Y-78539750D01*
X156367500Y-79320436D01*
X156432507Y-79477376D01*
X156552624Y-79597493D01*
X156709565Y-79662500D01*
X157490250Y-79662500D01*
X157597000Y-79555750D01*
X157597000Y-78433000D01*
X157643000Y-78433000D01*
X157643000Y-79555750D01*
X157749750Y-79662500D01*
X158530435Y-79662500D01*
X158687376Y-79597493D01*
X158807493Y-79477376D01*
X158872500Y-79320436D01*
X158872500Y-78539750D01*
X158765750Y-78433000D01*
X157643000Y-78433000D01*
X157597000Y-78433000D01*
X156474250Y-78433000D01*
X156367500Y-78539750D01*
X156340865Y-78539750D01*
X156340865Y-77584500D01*
X156324884Y-77499564D01*
X156367500Y-77499564D01*
X156367500Y-78280250D01*
X156474250Y-78387000D01*
X157597000Y-78387000D01*
X157597000Y-77264250D01*
X157643000Y-77264250D01*
X157643000Y-78387000D01*
X158765750Y-78387000D01*
X158872500Y-78280250D01*
X158872500Y-77499564D01*
X158807493Y-77342624D01*
X158687376Y-77222507D01*
X158530435Y-77157500D01*
X157749750Y-77157500D01*
X157643000Y-77264250D01*
X157597000Y-77264250D01*
X157490250Y-77157500D01*
X156709565Y-77157500D01*
X156552624Y-77222507D01*
X156432507Y-77342624D01*
X156367500Y-77499564D01*
X156324884Y-77499564D01*
X156311091Y-77426263D01*
X156217573Y-77280933D01*
X156074881Y-77183436D01*
X155905500Y-77149135D01*
X154254500Y-77149135D01*
X154096263Y-77178909D01*
X153950933Y-77272427D01*
X153853436Y-77415119D01*
X153819135Y-77584500D01*
X153800865Y-77584500D01*
X153771091Y-77426263D01*
X153677573Y-77280933D01*
X153534881Y-77183436D01*
X153365500Y-77149135D01*
X151714500Y-77149135D01*
X151556263Y-77178909D01*
X151410933Y-77272427D01*
X151313436Y-77415119D01*
X151279135Y-77584500D01*
X151279135Y-77957330D01*
X151134184Y-78054184D01*
X150144184Y-79044184D01*
X150035104Y-79207434D01*
X149996800Y-79400000D01*
X149996800Y-86991568D01*
X148344184Y-88644184D01*
X148235104Y-88807434D01*
X148196800Y-89000000D01*
X148196800Y-98291568D01*
X147944184Y-98544184D01*
X147835104Y-98707434D01*
X147796800Y-98900000D01*
X147796800Y-99045735D01*
X147726402Y-99116010D01*
X147623118Y-99364746D01*
X147622883Y-99634073D01*
X147725733Y-99882989D01*
X147916010Y-100073598D01*
X148164746Y-100176882D01*
X148434073Y-100177117D01*
X148682989Y-100074267D01*
X148873598Y-99883990D01*
X148904226Y-99810229D01*
X149055397Y-99873000D01*
X149000000Y-99873000D01*
X148950590Y-99883006D01*
X148910197Y-99910197D01*
X145947394Y-102873000D01*
X140727000Y-102873000D01*
X140727000Y-96900000D01*
X140671660Y-96621789D01*
X140514067Y-96385933D01*
X140514064Y-96385931D01*
X140100941Y-95972807D01*
X140001505Y-95732154D01*
X139769070Y-95499312D01*
X139465222Y-95373144D01*
X139136221Y-95372857D01*
X138832154Y-95498495D01*
X138627000Y-95703290D01*
X138627000Y-90052606D01*
X140089803Y-88589803D01*
X140116994Y-88549410D01*
X140127000Y-88500000D01*
X140127000Y-86500000D01*
X140117666Y-86452211D01*
X140089803Y-86410197D01*
X138627000Y-84947394D01*
X138627000Y-80142798D01*
X143338771Y-80142798D01*
X143540369Y-80630703D01*
X143913334Y-81004319D01*
X143939000Y-81014977D01*
X143939000Y-83824575D01*
X143915297Y-83834369D01*
X143541681Y-84207334D01*
X143339231Y-84694885D01*
X143338771Y-85222798D01*
X143540369Y-85710703D01*
X143913334Y-86084319D01*
X144400885Y-86286769D01*
X144928798Y-86287229D01*
X145416703Y-86085631D01*
X145645389Y-85857343D01*
X146341184Y-85857343D01*
X146429451Y-86067959D01*
X146912560Y-86280793D01*
X147440342Y-86292548D01*
X147932448Y-86101435D01*
X147982549Y-86067959D01*
X148070816Y-85857343D01*
X147206000Y-84992527D01*
X146341184Y-85857343D01*
X145645389Y-85857343D01*
X145790319Y-85712666D01*
X145937290Y-85358722D01*
X146064565Y-85686448D01*
X146098041Y-85736549D01*
X146308657Y-85824816D01*
X147173473Y-84960000D01*
X147238527Y-84960000D01*
X148103343Y-85824816D01*
X148313959Y-85736549D01*
X148526793Y-85253440D01*
X148538548Y-84725658D01*
X148347435Y-84233552D01*
X148313959Y-84183451D01*
X148103343Y-84095184D01*
X147238527Y-84960000D01*
X147173473Y-84960000D01*
X146308657Y-84095184D01*
X146098041Y-84183451D01*
X145934416Y-84554862D01*
X145791631Y-84209297D01*
X145645247Y-84062657D01*
X146341184Y-84062657D01*
X147206000Y-84927473D01*
X148070816Y-84062657D01*
X147982549Y-83852041D01*
X147499440Y-83639207D01*
X146971658Y-83627452D01*
X146479552Y-83818565D01*
X146429451Y-83852041D01*
X146341184Y-84062657D01*
X145645247Y-84062657D01*
X145418666Y-83835681D01*
X145393000Y-83825023D01*
X145393000Y-81015425D01*
X145416703Y-81005631D01*
X145645389Y-80777343D01*
X146341184Y-80777343D01*
X146429451Y-80987959D01*
X146912560Y-81200793D01*
X147440342Y-81212548D01*
X147932448Y-81021435D01*
X147982549Y-80987959D01*
X148070816Y-80777343D01*
X147206000Y-79912527D01*
X146341184Y-80777343D01*
X145645389Y-80777343D01*
X145790319Y-80632666D01*
X145937290Y-80278722D01*
X146064565Y-80606448D01*
X146098041Y-80656549D01*
X146308657Y-80744816D01*
X147173473Y-79880000D01*
X147238527Y-79880000D01*
X148103343Y-80744816D01*
X148313959Y-80656549D01*
X148526793Y-80173440D01*
X148538548Y-79645658D01*
X148347435Y-79153552D01*
X148313959Y-79103451D01*
X148103343Y-79015184D01*
X147238527Y-79880000D01*
X147173473Y-79880000D01*
X146308657Y-79015184D01*
X146098041Y-79103451D01*
X145934416Y-79474862D01*
X145791631Y-79129297D01*
X145645247Y-78982657D01*
X146341184Y-78982657D01*
X147206000Y-79847473D01*
X148070816Y-78982657D01*
X147982549Y-78772041D01*
X147499440Y-78559207D01*
X146971658Y-78547452D01*
X146479552Y-78738565D01*
X146429451Y-78772041D01*
X146341184Y-78982657D01*
X145645247Y-78982657D01*
X145418666Y-78755681D01*
X144931115Y-78553231D01*
X144403202Y-78552771D01*
X143915297Y-78754369D01*
X143541681Y-79127334D01*
X143339231Y-79614885D01*
X143338771Y-80142798D01*
X138627000Y-80142798D01*
X138627000Y-76127000D01*
X161373000Y-76127000D01*
X161373000Y-84947394D01*
X161373000Y-84947394D01*
G37*
X161373000Y-84947394D02*
X159910197Y-86410197D01*
X159883006Y-86450590D01*
X159873000Y-86500000D01*
X159873000Y-88500000D01*
X159882334Y-88547789D01*
X159910197Y-88589803D01*
X161373000Y-90052606D01*
X161373000Y-99873000D01*
X152738632Y-99873000D01*
X152895816Y-99715816D01*
X153004896Y-99552566D01*
X153043200Y-99360000D01*
X153043200Y-97337289D01*
X153248557Y-97252437D01*
X153601199Y-96900411D01*
X153792282Y-96440231D01*
X153792283Y-96438045D01*
X153827283Y-96438045D01*
X154017563Y-96898557D01*
X154369589Y-97251199D01*
X154829769Y-97442282D01*
X155328045Y-97442717D01*
X155788557Y-97252437D01*
X156007754Y-97033622D01*
X156808905Y-97033622D01*
X156888105Y-97236497D01*
X157344294Y-97436921D01*
X157842457Y-97447513D01*
X158306753Y-97266660D01*
X158351895Y-97236497D01*
X158431095Y-97033622D01*
X157620000Y-96222527D01*
X156808905Y-97033622D01*
X156007754Y-97033622D01*
X156141199Y-96900411D01*
X156332282Y-96440231D01*
X156332306Y-96412457D01*
X156362487Y-96412457D01*
X156543340Y-96876753D01*
X156573503Y-96921895D01*
X156776378Y-97001095D01*
X157587473Y-96190000D01*
X157652527Y-96190000D01*
X158463622Y-97001095D01*
X158666497Y-96921895D01*
X158866921Y-96465706D01*
X158877513Y-95967543D01*
X158696660Y-95503247D01*
X158666497Y-95458105D01*
X158463622Y-95378905D01*
X157652527Y-96190000D01*
X157587473Y-96190000D01*
X156776378Y-95378905D01*
X156573503Y-95458105D01*
X156373079Y-95914294D01*
X156362487Y-96412457D01*
X156332306Y-96412457D01*
X156332717Y-95941955D01*
X156142437Y-95481443D01*
X156007608Y-95346378D01*
X156808905Y-95346378D01*
X157620000Y-96157473D01*
X158431095Y-95346378D01*
X158351895Y-95143503D01*
X157895706Y-94943079D01*
X157397543Y-94932487D01*
X156933247Y-95113340D01*
X156888105Y-95143503D01*
X156808905Y-95346378D01*
X156007608Y-95346378D01*
X155790411Y-95128801D01*
X155330231Y-94937718D01*
X154831955Y-94937283D01*
X154371443Y-95127563D01*
X154018801Y-95479589D01*
X153827718Y-95939769D01*
X153827283Y-96438045D01*
X153792283Y-96438045D01*
X153792717Y-95941955D01*
X153602437Y-95481443D01*
X153250411Y-95128801D01*
X152790231Y-94937718D01*
X152291955Y-94937283D01*
X151831443Y-95127563D01*
X151803200Y-95155757D01*
X151803200Y-95098432D01*
X152084560Y-94817072D01*
X152289769Y-94902282D01*
X152788045Y-94902717D01*
X153248557Y-94712437D01*
X153601199Y-94360411D01*
X153792282Y-93900231D01*
X153792283Y-93898045D01*
X153827283Y-93898045D01*
X154017563Y-94358557D01*
X154369589Y-94711199D01*
X154829769Y-94902282D01*
X155328045Y-94902717D01*
X155788557Y-94712437D01*
X156007754Y-94493622D01*
X156808905Y-94493622D01*
X156888105Y-94696497D01*
X157344294Y-94896921D01*
X157842457Y-94907513D01*
X158306753Y-94726660D01*
X158351895Y-94696497D01*
X158431095Y-94493622D01*
X157620000Y-93682527D01*
X156808905Y-94493622D01*
X156007754Y-94493622D01*
X156141199Y-94360411D01*
X156332282Y-93900231D01*
X156332306Y-93872457D01*
X156362487Y-93872457D01*
X156543340Y-94336753D01*
X156573503Y-94381895D01*
X156776378Y-94461095D01*
X157587473Y-93650000D01*
X157652527Y-93650000D01*
X158463622Y-94461095D01*
X158666497Y-94381895D01*
X158866921Y-93925706D01*
X158877513Y-93427543D01*
X158696660Y-92963247D01*
X158666497Y-92918105D01*
X158463622Y-92838905D01*
X157652527Y-93650000D01*
X157587473Y-93650000D01*
X156776378Y-92838905D01*
X156573503Y-92918105D01*
X156373079Y-93374294D01*
X156362487Y-93872457D01*
X156332306Y-93872457D01*
X156332717Y-93401955D01*
X156142437Y-92941443D01*
X156007608Y-92806378D01*
X156808905Y-92806378D01*
X157620000Y-93617473D01*
X158431095Y-92806378D01*
X158351895Y-92603503D01*
X157895706Y-92403079D01*
X157397543Y-92392487D01*
X156933247Y-92573340D01*
X156888105Y-92603503D01*
X156808905Y-92806378D01*
X156007608Y-92806378D01*
X155790411Y-92588801D01*
X155330231Y-92397718D01*
X154831955Y-92397283D01*
X154371443Y-92587563D01*
X154018801Y-92939589D01*
X153827718Y-93399769D01*
X153827283Y-93898045D01*
X153792283Y-93898045D01*
X153792717Y-93401955D01*
X153602437Y-92941443D01*
X153250411Y-92588801D01*
X152790231Y-92397718D01*
X152291955Y-92397283D01*
X151831443Y-92587563D01*
X151478801Y-92939589D01*
X151403200Y-93121657D01*
X151403200Y-92958432D01*
X152084560Y-92277072D01*
X152289769Y-92362282D01*
X152788045Y-92362717D01*
X153248557Y-92172437D01*
X153601199Y-91820411D01*
X153792282Y-91360231D01*
X153792283Y-91358045D01*
X153827283Y-91358045D01*
X154017563Y-91818557D01*
X154369589Y-92171199D01*
X154829769Y-92362282D01*
X155328045Y-92362717D01*
X155788557Y-92172437D01*
X156007754Y-91953622D01*
X156808905Y-91953622D01*
X156888105Y-92156497D01*
X157344294Y-92356921D01*
X157842457Y-92367513D01*
X158306753Y-92186660D01*
X158351895Y-92156497D01*
X158431095Y-91953622D01*
X157620000Y-91142527D01*
X156808905Y-91953622D01*
X156007754Y-91953622D01*
X156141199Y-91820411D01*
X156332282Y-91360231D01*
X156332306Y-91332457D01*
X156362487Y-91332457D01*
X156543340Y-91796753D01*
X156573503Y-91841895D01*
X156776378Y-91921095D01*
X157587473Y-91110000D01*
X157652527Y-91110000D01*
X158463622Y-91921095D01*
X158666497Y-91841895D01*
X158866921Y-91385706D01*
X158877513Y-90887543D01*
X158696660Y-90423247D01*
X158666497Y-90378105D01*
X158463622Y-90298905D01*
X157652527Y-91110000D01*
X157587473Y-91110000D01*
X156776378Y-90298905D01*
X156573503Y-90378105D01*
X156373079Y-90834294D01*
X156362487Y-91332457D01*
X156332306Y-91332457D01*
X156332717Y-90861955D01*
X156142437Y-90401443D01*
X156007608Y-90266378D01*
X156808905Y-90266378D01*
X157620000Y-91077473D01*
X158431095Y-90266378D01*
X158351895Y-90063503D01*
X157895706Y-89863079D01*
X157397543Y-89852487D01*
X156933247Y-90033340D01*
X156888105Y-90063503D01*
X156808905Y-90266378D01*
X156007608Y-90266378D01*
X155790411Y-90048801D01*
X155330231Y-89857718D01*
X154831955Y-89857283D01*
X154371443Y-90047563D01*
X154018801Y-90399589D01*
X153827718Y-90859769D01*
X153827283Y-91358045D01*
X153792283Y-91358045D01*
X153792717Y-90861955D01*
X153602437Y-90401443D01*
X153250411Y-90048801D01*
X152790231Y-89857718D01*
X152291955Y-89857283D01*
X151831443Y-90047563D01*
X151478801Y-90399589D01*
X151287718Y-90859769D01*
X151287283Y-91358045D01*
X151372963Y-91565405D01*
X151003200Y-91935168D01*
X151003200Y-90818432D01*
X152084560Y-89737072D01*
X152289769Y-89822282D01*
X152788045Y-89822717D01*
X153248557Y-89632437D01*
X153601199Y-89280411D01*
X153792282Y-88820231D01*
X153792283Y-88818045D01*
X153827283Y-88818045D01*
X154017563Y-89278557D01*
X154369589Y-89631199D01*
X154829769Y-89822282D01*
X155328045Y-89822717D01*
X155788557Y-89632437D01*
X156007754Y-89413622D01*
X156808905Y-89413622D01*
X156888105Y-89616497D01*
X157344294Y-89816921D01*
X157842457Y-89827513D01*
X158306753Y-89646660D01*
X158351895Y-89616497D01*
X158431095Y-89413622D01*
X157620000Y-88602527D01*
X156808905Y-89413622D01*
X156007754Y-89413622D01*
X156141199Y-89280411D01*
X156332282Y-88820231D01*
X156332306Y-88792457D01*
X156362487Y-88792457D01*
X156543340Y-89256753D01*
X156573503Y-89301895D01*
X156776378Y-89381095D01*
X157587473Y-88570000D01*
X157652527Y-88570000D01*
X158463622Y-89381095D01*
X158666497Y-89301895D01*
X158866921Y-88845706D01*
X158877513Y-88347543D01*
X158696660Y-87883247D01*
X158666497Y-87838105D01*
X158463622Y-87758905D01*
X157652527Y-88570000D01*
X157587473Y-88570000D01*
X156776378Y-87758905D01*
X156573503Y-87838105D01*
X156373079Y-88294294D01*
X156362487Y-88792457D01*
X156332306Y-88792457D01*
X156332717Y-88321955D01*
X156142437Y-87861443D01*
X156007608Y-87726378D01*
X156808905Y-87726378D01*
X157620000Y-88537473D01*
X158431095Y-87726378D01*
X158351895Y-87523503D01*
X157895706Y-87323079D01*
X157397543Y-87312487D01*
X156933247Y-87493340D01*
X156888105Y-87523503D01*
X156808905Y-87726378D01*
X156007608Y-87726378D01*
X155790411Y-87508801D01*
X155330231Y-87317718D01*
X154831955Y-87317283D01*
X154371443Y-87507563D01*
X154018801Y-87859589D01*
X153827718Y-88319769D01*
X153827283Y-88818045D01*
X153792283Y-88818045D01*
X153792717Y-88321955D01*
X153602437Y-87861443D01*
X153250411Y-87508801D01*
X152790231Y-87317718D01*
X152291955Y-87317283D01*
X152217701Y-87347964D01*
X152217701Y-87252357D01*
X152289769Y-87282282D01*
X152788045Y-87282717D01*
X153248557Y-87092437D01*
X153601199Y-86740411D01*
X153792282Y-86280231D01*
X153792283Y-86278045D01*
X153827283Y-86278045D01*
X154017563Y-86738557D01*
X154369589Y-87091199D01*
X154829769Y-87282282D01*
X155328045Y-87282717D01*
X155788557Y-87092437D01*
X156007754Y-86873622D01*
X156808905Y-86873622D01*
X156888105Y-87076497D01*
X157344294Y-87276921D01*
X157842457Y-87287513D01*
X158306753Y-87106660D01*
X158351895Y-87076497D01*
X158431095Y-86873622D01*
X157620000Y-86062527D01*
X156808905Y-86873622D01*
X156007754Y-86873622D01*
X156141199Y-86740411D01*
X156332282Y-86280231D01*
X156332306Y-86252457D01*
X156362487Y-86252457D01*
X156543340Y-86716753D01*
X156573503Y-86761895D01*
X156776378Y-86841095D01*
X157587473Y-86030000D01*
X157652527Y-86030000D01*
X158463622Y-86841095D01*
X158666497Y-86761895D01*
X158866921Y-86305706D01*
X158877513Y-85807543D01*
X158696660Y-85343247D01*
X158666497Y-85298105D01*
X158463622Y-85218905D01*
X157652527Y-86030000D01*
X157587473Y-86030000D01*
X156776378Y-85218905D01*
X156573503Y-85298105D01*
X156373079Y-85754294D01*
X156362487Y-86252457D01*
X156332306Y-86252457D01*
X156332717Y-85781955D01*
X156142437Y-85321443D01*
X156007608Y-85186378D01*
X156808905Y-85186378D01*
X157620000Y-85997473D01*
X158431095Y-85186378D01*
X158351895Y-84983503D01*
X157895706Y-84783079D01*
X157397543Y-84772487D01*
X156933247Y-84953340D01*
X156888105Y-84983503D01*
X156808905Y-85186378D01*
X156007608Y-85186378D01*
X155790411Y-84968801D01*
X155330231Y-84777718D01*
X154831955Y-84777283D01*
X154371443Y-84967563D01*
X154018801Y-85319589D01*
X153827718Y-85779769D01*
X153827283Y-86278045D01*
X153792283Y-86278045D01*
X153792717Y-85781955D01*
X153602437Y-85321443D01*
X153250411Y-84968801D01*
X152790231Y-84777718D01*
X152291955Y-84777283D01*
X151831443Y-84967563D01*
X151708009Y-85090781D01*
X151708009Y-85033623D01*
X152084560Y-84657072D01*
X152289769Y-84742282D01*
X152788045Y-84742717D01*
X153248557Y-84552437D01*
X153601199Y-84200411D01*
X153792282Y-83740231D01*
X153792283Y-83738045D01*
X153827283Y-83738045D01*
X154017563Y-84198557D01*
X154369589Y-84551199D01*
X154829769Y-84742282D01*
X155328045Y-84742717D01*
X155788557Y-84552437D01*
X156007754Y-84333622D01*
X156808905Y-84333622D01*
X156888105Y-84536497D01*
X157344294Y-84736921D01*
X157842457Y-84747513D01*
X158306753Y-84566660D01*
X158351895Y-84536497D01*
X158431095Y-84333622D01*
X157620000Y-83522527D01*
X156808905Y-84333622D01*
X156007754Y-84333622D01*
X156141199Y-84200411D01*
X156332282Y-83740231D01*
X156332306Y-83712457D01*
X156362487Y-83712457D01*
X156543340Y-84176753D01*
X156573503Y-84221895D01*
X156776378Y-84301095D01*
X157587473Y-83490000D01*
X157652527Y-83490000D01*
X158463622Y-84301095D01*
X158666497Y-84221895D01*
X158866921Y-83765706D01*
X158877513Y-83267543D01*
X158696660Y-82803247D01*
X158666497Y-82758105D01*
X158463622Y-82678905D01*
X157652527Y-83490000D01*
X157587473Y-83490000D01*
X156776378Y-82678905D01*
X156573503Y-82758105D01*
X156373079Y-83214294D01*
X156362487Y-83712457D01*
X156332306Y-83712457D01*
X156332717Y-83241955D01*
X156142437Y-82781443D01*
X156007608Y-82646378D01*
X156808905Y-82646378D01*
X157620000Y-83457473D01*
X158431095Y-82646378D01*
X158351895Y-82443503D01*
X157895706Y-82243079D01*
X157397543Y-82232487D01*
X156933247Y-82413340D01*
X156888105Y-82443503D01*
X156808905Y-82646378D01*
X156007608Y-82646378D01*
X155790411Y-82428801D01*
X155330231Y-82237718D01*
X154831955Y-82237283D01*
X154371443Y-82427563D01*
X154018801Y-82779589D01*
X153827718Y-83239769D01*
X153827283Y-83738045D01*
X153792283Y-83738045D01*
X153792717Y-83241955D01*
X153602437Y-82781443D01*
X153250411Y-82428801D01*
X152790231Y-82237718D01*
X152291955Y-82237283D01*
X151831443Y-82427563D01*
X151478801Y-82779589D01*
X151403200Y-82961657D01*
X151403200Y-82798432D01*
X152084560Y-82117072D01*
X152289769Y-82202282D01*
X152788045Y-82202717D01*
X153248557Y-82012437D01*
X153601199Y-81660411D01*
X153792282Y-81200231D01*
X153792283Y-81198045D01*
X153827283Y-81198045D01*
X154017563Y-81658557D01*
X154369589Y-82011199D01*
X154829769Y-82202282D01*
X155328045Y-82202717D01*
X155788557Y-82012437D01*
X156007754Y-81793622D01*
X156808905Y-81793622D01*
X156888105Y-81996497D01*
X157344294Y-82196921D01*
X157842457Y-82207513D01*
X158306753Y-82026660D01*
X158351895Y-81996497D01*
X158431095Y-81793622D01*
X157620000Y-80982527D01*
X156808905Y-81793622D01*
X156007754Y-81793622D01*
X156141199Y-81660411D01*
X156332282Y-81200231D01*
X156332306Y-81172457D01*
X156362487Y-81172457D01*
X156543340Y-81636753D01*
X156573503Y-81681895D01*
X156776378Y-81761095D01*
X157587473Y-80950000D01*
X157652527Y-80950000D01*
X158463622Y-81761095D01*
X158666497Y-81681895D01*
X158866921Y-81225706D01*
X158877513Y-80727543D01*
X158696660Y-80263247D01*
X158666497Y-80218105D01*
X158463622Y-80138905D01*
X157652527Y-80950000D01*
X157587473Y-80950000D01*
X156776378Y-80138905D01*
X156573503Y-80218105D01*
X156373079Y-80674294D01*
X156362487Y-81172457D01*
X156332306Y-81172457D01*
X156332717Y-80701955D01*
X156142437Y-80241443D01*
X156007608Y-80106378D01*
X156808905Y-80106378D01*
X157620000Y-80917473D01*
X158431095Y-80106378D01*
X158351895Y-79903503D01*
X157895706Y-79703079D01*
X157397543Y-79692487D01*
X156933247Y-79873340D01*
X156888105Y-79903503D01*
X156808905Y-80106378D01*
X156007608Y-80106378D01*
X155790411Y-79888801D01*
X155330231Y-79697718D01*
X154831955Y-79697283D01*
X154371443Y-79887563D01*
X154018801Y-80239589D01*
X153827718Y-80699769D01*
X153827283Y-81198045D01*
X153792283Y-81198045D01*
X153792717Y-80701955D01*
X153602437Y-80241443D01*
X153250411Y-79888801D01*
X152790231Y-79697718D01*
X152291955Y-79697283D01*
X151831443Y-79887563D01*
X151478801Y-80239589D01*
X151287718Y-80699769D01*
X151287283Y-81198045D01*
X151372963Y-81405405D01*
X151003200Y-81775168D01*
X151003200Y-79608432D01*
X151294496Y-79317136D01*
X151308909Y-79393737D01*
X151402427Y-79539067D01*
X151545119Y-79636564D01*
X151714500Y-79670865D01*
X153365500Y-79670865D01*
X153523737Y-79641091D01*
X153669067Y-79547573D01*
X153766564Y-79404881D01*
X153800865Y-79235500D01*
X153800865Y-77584500D01*
X153819135Y-77584500D01*
X153819135Y-79235500D01*
X153848909Y-79393737D01*
X153942427Y-79539067D01*
X154085119Y-79636564D01*
X154254500Y-79670865D01*
X155905500Y-79670865D01*
X156063737Y-79641091D01*
X156209067Y-79547573D01*
X156306564Y-79404881D01*
X156340865Y-79235500D01*
X156340865Y-78539750D01*
X156367500Y-78539750D01*
X156367500Y-79320436D01*
X156432507Y-79477376D01*
X156552624Y-79597493D01*
X156709565Y-79662500D01*
X157490250Y-79662500D01*
X157597000Y-79555750D01*
X157597000Y-78433000D01*
X157643000Y-78433000D01*
X157643000Y-79555750D01*
X157749750Y-79662500D01*
X158530435Y-79662500D01*
X158687376Y-79597493D01*
X158807493Y-79477376D01*
X158872500Y-79320436D01*
X158872500Y-78539750D01*
X158765750Y-78433000D01*
X157643000Y-78433000D01*
X157597000Y-78433000D01*
X156474250Y-78433000D01*
X156367500Y-78539750D01*
X156340865Y-78539750D01*
X156340865Y-77584500D01*
X156324884Y-77499564D01*
X156367500Y-77499564D01*
X156367500Y-78280250D01*
X156474250Y-78387000D01*
X157597000Y-78387000D01*
X157597000Y-77264250D01*
X157643000Y-77264250D01*
X157643000Y-78387000D01*
X158765750Y-78387000D01*
X158872500Y-78280250D01*
X158872500Y-77499564D01*
X158807493Y-77342624D01*
X158687376Y-77222507D01*
X158530435Y-77157500D01*
X157749750Y-77157500D01*
X157643000Y-77264250D01*
X157597000Y-77264250D01*
X157490250Y-77157500D01*
X156709565Y-77157500D01*
X156552624Y-77222507D01*
X156432507Y-77342624D01*
X156367500Y-77499564D01*
X156324884Y-77499564D01*
X156311091Y-77426263D01*
X156217573Y-77280933D01*
X156074881Y-77183436D01*
X155905500Y-77149135D01*
X154254500Y-77149135D01*
X154096263Y-77178909D01*
X153950933Y-77272427D01*
X153853436Y-77415119D01*
X153819135Y-77584500D01*
X153800865Y-77584500D01*
X153771091Y-77426263D01*
X153677573Y-77280933D01*
X153534881Y-77183436D01*
X153365500Y-77149135D01*
X151714500Y-77149135D01*
X151556263Y-77178909D01*
X151410933Y-77272427D01*
X151313436Y-77415119D01*
X151279135Y-77584500D01*
X151279135Y-77957330D01*
X151134184Y-78054184D01*
X150144184Y-79044184D01*
X150035104Y-79207434D01*
X149996800Y-79400000D01*
X149996800Y-86991568D01*
X148344184Y-88644184D01*
X148235104Y-88807434D01*
X148196800Y-89000000D01*
X148196800Y-98291568D01*
X147944184Y-98544184D01*
X147835104Y-98707434D01*
X147796800Y-98900000D01*
X147796800Y-99045735D01*
X147726402Y-99116010D01*
X147623118Y-99364746D01*
X147622883Y-99634073D01*
X147725733Y-99882989D01*
X147916010Y-100073598D01*
X148164746Y-100176882D01*
X148434073Y-100177117D01*
X148682989Y-100074267D01*
X148873598Y-99883990D01*
X148904226Y-99810229D01*
X149055397Y-99873000D01*
X149000000Y-99873000D01*
X148950590Y-99883006D01*
X148910197Y-99910197D01*
X145947394Y-102873000D01*
X140727000Y-102873000D01*
X140727000Y-96900000D01*
X140671660Y-96621789D01*
X140514067Y-96385933D01*
X140514064Y-96385931D01*
X140100941Y-95972807D01*
X140001505Y-95732154D01*
X139769070Y-95499312D01*
X139465222Y-95373144D01*
X139136221Y-95372857D01*
X138832154Y-95498495D01*
X138627000Y-95703290D01*
X138627000Y-90052606D01*
X140089803Y-88589803D01*
X140116994Y-88549410D01*
X140127000Y-88500000D01*
X140127000Y-86500000D01*
X140117666Y-86452211D01*
X140089803Y-86410197D01*
X138627000Y-84947394D01*
X138627000Y-80142798D01*
X143338771Y-80142798D01*
X143540369Y-80630703D01*
X143913334Y-81004319D01*
X143939000Y-81014977D01*
X143939000Y-83824575D01*
X143915297Y-83834369D01*
X143541681Y-84207334D01*
X143339231Y-84694885D01*
X143338771Y-85222798D01*
X143540369Y-85710703D01*
X143913334Y-86084319D01*
X144400885Y-86286769D01*
X144928798Y-86287229D01*
X145416703Y-86085631D01*
X145645389Y-85857343D01*
X146341184Y-85857343D01*
X146429451Y-86067959D01*
X146912560Y-86280793D01*
X147440342Y-86292548D01*
X147932448Y-86101435D01*
X147982549Y-86067959D01*
X148070816Y-85857343D01*
X147206000Y-84992527D01*
X146341184Y-85857343D01*
X145645389Y-85857343D01*
X145790319Y-85712666D01*
X145937290Y-85358722D01*
X146064565Y-85686448D01*
X146098041Y-85736549D01*
X146308657Y-85824816D01*
X147173473Y-84960000D01*
X147238527Y-84960000D01*
X148103343Y-85824816D01*
X148313959Y-85736549D01*
X148526793Y-85253440D01*
X148538548Y-84725658D01*
X148347435Y-84233552D01*
X148313959Y-84183451D01*
X148103343Y-84095184D01*
X147238527Y-84960000D01*
X147173473Y-84960000D01*
X146308657Y-84095184D01*
X146098041Y-84183451D01*
X145934416Y-84554862D01*
X145791631Y-84209297D01*
X145645247Y-84062657D01*
X146341184Y-84062657D01*
X147206000Y-84927473D01*
X148070816Y-84062657D01*
X147982549Y-83852041D01*
X147499440Y-83639207D01*
X146971658Y-83627452D01*
X146479552Y-83818565D01*
X146429451Y-83852041D01*
X146341184Y-84062657D01*
X145645247Y-84062657D01*
X145418666Y-83835681D01*
X145393000Y-83825023D01*
X145393000Y-81015425D01*
X145416703Y-81005631D01*
X145645389Y-80777343D01*
X146341184Y-80777343D01*
X146429451Y-80987959D01*
X146912560Y-81200793D01*
X147440342Y-81212548D01*
X147932448Y-81021435D01*
X147982549Y-80987959D01*
X148070816Y-80777343D01*
X147206000Y-79912527D01*
X146341184Y-80777343D01*
X145645389Y-80777343D01*
X145790319Y-80632666D01*
X145937290Y-80278722D01*
X146064565Y-80606448D01*
X146098041Y-80656549D01*
X146308657Y-80744816D01*
X147173473Y-79880000D01*
X147238527Y-79880000D01*
X148103343Y-80744816D01*
X148313959Y-80656549D01*
X148526793Y-80173440D01*
X148538548Y-79645658D01*
X148347435Y-79153552D01*
X148313959Y-79103451D01*
X148103343Y-79015184D01*
X147238527Y-79880000D01*
X147173473Y-79880000D01*
X146308657Y-79015184D01*
X146098041Y-79103451D01*
X145934416Y-79474862D01*
X145791631Y-79129297D01*
X145645247Y-78982657D01*
X146341184Y-78982657D01*
X147206000Y-79847473D01*
X148070816Y-78982657D01*
X147982549Y-78772041D01*
X147499440Y-78559207D01*
X146971658Y-78547452D01*
X146479552Y-78738565D01*
X146429451Y-78772041D01*
X146341184Y-78982657D01*
X145645247Y-78982657D01*
X145418666Y-78755681D01*
X144931115Y-78553231D01*
X144403202Y-78552771D01*
X143915297Y-78754369D01*
X143541681Y-79127334D01*
X143339231Y-79614885D01*
X143338771Y-80142798D01*
X138627000Y-80142798D01*
X138627000Y-76127000D01*
X161373000Y-76127000D01*
X161373000Y-84947394D01*
G36*
X138830930Y-96900688D02*
X139073120Y-97001253D01*
X139273000Y-97201133D01*
X139273000Y-102873000D01*
X138627000Y-102873000D01*
X138627000Y-96696401D01*
X138830930Y-96900688D01*
X138830930Y-96900688D01*
G37*
X138830930Y-96900688D02*
X139073120Y-97001253D01*
X139273000Y-97201133D01*
X139273000Y-102873000D01*
X138627000Y-102873000D01*
X138627000Y-96696401D01*
X138830930Y-96900688D01*
G36*
X161373000Y-109947394D02*
X159910197Y-111410197D01*
X159883006Y-111450590D01*
X159873000Y-111500000D01*
X159873000Y-123873000D01*
X140127000Y-123873000D01*
X140127000Y-123451007D01*
X144271520Y-123451007D01*
X144323275Y-123630452D01*
X144697978Y-123793311D01*
X145106483Y-123800380D01*
X145486598Y-123650583D01*
X145516725Y-123630452D01*
X145568480Y-123451007D01*
X144920000Y-122802527D01*
X144271520Y-123451007D01*
X140127000Y-123451007D01*
X140127000Y-122956483D01*
X143889620Y-122956483D01*
X144039417Y-123336598D01*
X144059548Y-123366725D01*
X144238993Y-123418480D01*
X144887473Y-122770000D01*
X144952527Y-122770000D01*
X145601007Y-123418480D01*
X145780452Y-123366725D01*
X145943311Y-122992022D01*
X145950380Y-122583517D01*
X145800583Y-122203402D01*
X145780452Y-122173275D01*
X145601007Y-122121520D01*
X144952527Y-122770000D01*
X144887473Y-122770000D01*
X144238993Y-122121520D01*
X144059548Y-122173275D01*
X143896689Y-122547978D01*
X143889620Y-122956483D01*
X140127000Y-122956483D01*
X140127000Y-122088993D01*
X144271520Y-122088993D01*
X144920000Y-122737473D01*
X145568480Y-122088993D01*
X145516725Y-121909548D01*
X145142022Y-121746689D01*
X144733517Y-121739620D01*
X144353402Y-121889417D01*
X144323275Y-121909548D01*
X144271520Y-122088993D01*
X140127000Y-122088993D01*
X140127000Y-120911007D01*
X144271520Y-120911007D01*
X144323275Y-121090452D01*
X144697978Y-121253311D01*
X145106483Y-121260380D01*
X145486598Y-121110583D01*
X145516725Y-121090452D01*
X145568480Y-120911007D01*
X144920000Y-120262527D01*
X144271520Y-120911007D01*
X140127000Y-120911007D01*
X140127000Y-120416483D01*
X143889620Y-120416483D01*
X144039417Y-120796598D01*
X144059548Y-120826725D01*
X144238993Y-120878480D01*
X144887473Y-120230000D01*
X144952527Y-120230000D01*
X145601007Y-120878480D01*
X145780452Y-120826725D01*
X145943311Y-120452022D01*
X145950380Y-120043517D01*
X145800583Y-119663402D01*
X145780452Y-119633275D01*
X145601007Y-119581520D01*
X144952527Y-120230000D01*
X144887473Y-120230000D01*
X144238993Y-119581520D01*
X144059548Y-119633275D01*
X143896689Y-120007978D01*
X143889620Y-120416483D01*
X140127000Y-120416483D01*
X140127000Y-119548993D01*
X144271520Y-119548993D01*
X144920000Y-120197473D01*
X145568480Y-119548993D01*
X145516725Y-119369548D01*
X145142022Y-119206689D01*
X144733517Y-119199620D01*
X144353402Y-119349417D01*
X144323275Y-119369548D01*
X144271520Y-119548993D01*
X140127000Y-119548993D01*
X140127000Y-111500000D01*
X140117666Y-111452211D01*
X140089803Y-111410197D01*
X138627000Y-109947394D01*
X138627000Y-104127000D01*
X139273000Y-104127000D01*
X139273000Y-109935926D01*
X139272999Y-109935931D01*
X139298858Y-110065927D01*
X139328340Y-110214142D01*
X139463672Y-110416682D01*
X139485933Y-110449998D01*
X140425411Y-111389475D01*
X140425411Y-111852406D01*
X140425410Y-111852411D01*
X140469946Y-112076300D01*
X140480751Y-112130622D01*
X140596063Y-112303200D01*
X140638344Y-112366478D01*
X142685933Y-114414067D01*
X142921789Y-114571660D01*
X143200000Y-114627000D01*
X144015742Y-114627000D01*
X143826402Y-114816010D01*
X143723118Y-115064746D01*
X143722883Y-115334073D01*
X143825733Y-115582989D01*
X144016010Y-115773598D01*
X144264746Y-115876882D01*
X144534073Y-115877117D01*
X144782989Y-115774267D01*
X144822847Y-115734479D01*
X146956800Y-117868432D01*
X146956800Y-119326702D01*
X146879011Y-119358844D01*
X146589860Y-119647492D01*
X146433179Y-120024821D01*
X146432822Y-120433387D01*
X146588844Y-120810989D01*
X146877492Y-121100140D01*
X147254821Y-121256821D01*
X147331480Y-121256888D01*
X147104184Y-121484184D01*
X146995104Y-121647434D01*
X146956800Y-121840000D01*
X146956800Y-121866702D01*
X146879011Y-121898844D01*
X146589860Y-122187492D01*
X146433179Y-122564821D01*
X146432822Y-122973387D01*
X146588844Y-123350989D01*
X146877492Y-123640140D01*
X147254821Y-123796821D01*
X147663387Y-123797178D01*
X148040989Y-123641156D01*
X148330140Y-123352508D01*
X148486821Y-122975179D01*
X148487178Y-122566613D01*
X148331156Y-122189011D01*
X148077110Y-121934522D01*
X148334602Y-121677030D01*
X148434073Y-121677117D01*
X148496800Y-121651199D01*
X148496800Y-121770000D01*
X148535104Y-121962566D01*
X148644184Y-122125816D01*
X149005456Y-122487088D01*
X148973179Y-122564821D01*
X148972822Y-122973387D01*
X149128844Y-123350989D01*
X149417492Y-123640140D01*
X149794821Y-123796821D01*
X150203387Y-123797178D01*
X150580989Y-123641156D01*
X150870140Y-123352508D01*
X151026821Y-122975179D01*
X151027178Y-122566613D01*
X150871156Y-122189011D01*
X150869986Y-122187839D01*
X150939560Y-122159092D01*
X151078631Y-122020263D01*
X151545456Y-122487088D01*
X151513179Y-122564821D01*
X151512822Y-122973387D01*
X151668844Y-123350989D01*
X151957492Y-123640140D01*
X152334821Y-123796821D01*
X152743387Y-123797178D01*
X153120989Y-123641156D01*
X153410140Y-123352508D01*
X153566821Y-122975179D01*
X153567178Y-122566613D01*
X153411156Y-122189011D01*
X153122508Y-121899860D01*
X152745179Y-121743179D01*
X152336613Y-121742822D01*
X152257247Y-121775615D01*
X151769607Y-121287975D01*
X151773598Y-121283990D01*
X151876882Y-121035254D01*
X151876896Y-121019403D01*
X151957492Y-121100140D01*
X152334821Y-121256821D01*
X152743387Y-121257178D01*
X152923015Y-121182957D01*
X152922883Y-121334073D01*
X153025733Y-121582989D01*
X153216010Y-121773598D01*
X153464746Y-121876882D01*
X153475259Y-121876891D01*
X154085456Y-122487088D01*
X154053179Y-122564821D01*
X154052822Y-122973387D01*
X154208844Y-123350989D01*
X154497492Y-123640140D01*
X154874821Y-123796821D01*
X155283387Y-123797178D01*
X155660989Y-123641156D01*
X155950140Y-123352508D01*
X156106821Y-122975179D01*
X156107178Y-122566613D01*
X155951156Y-122189011D01*
X155662508Y-121899860D01*
X155285179Y-121743179D01*
X154876613Y-121742822D01*
X154797247Y-121775615D01*
X154276952Y-121255320D01*
X154277117Y-121065927D01*
X154174267Y-120817011D01*
X153983990Y-120626402D01*
X153735254Y-120523118D01*
X153530380Y-120522939D01*
X153566821Y-120435179D01*
X153567178Y-120026613D01*
X153534385Y-119947247D01*
X154104628Y-119377004D01*
X154234073Y-119377117D01*
X154482989Y-119274267D01*
X154576800Y-119180619D01*
X154576800Y-119326702D01*
X154499011Y-119358844D01*
X154209860Y-119647492D01*
X154053179Y-120024821D01*
X154052822Y-120433387D01*
X154208844Y-120810989D01*
X154497492Y-121100140D01*
X154874821Y-121256821D01*
X155283387Y-121257178D01*
X155660989Y-121101156D01*
X155950140Y-120812508D01*
X156106821Y-120435179D01*
X156107178Y-120026613D01*
X155951156Y-119649011D01*
X155662508Y-119359860D01*
X155583200Y-119326928D01*
X155583200Y-119174231D01*
X155673598Y-119083990D01*
X155776882Y-118835254D01*
X155777117Y-118565927D01*
X155674267Y-118317011D01*
X155483990Y-118126402D01*
X155235254Y-118023118D01*
X154965927Y-118022883D01*
X154717011Y-118125733D01*
X154599963Y-118242577D01*
X154483990Y-118126402D01*
X154235254Y-118023118D01*
X153965927Y-118022883D01*
X153717011Y-118125733D01*
X153526402Y-118316010D01*
X153423118Y-118564746D01*
X153423056Y-118635312D01*
X152822912Y-119235456D01*
X152745179Y-119203179D01*
X152336613Y-119202822D01*
X151959011Y-119358844D01*
X151669860Y-119647492D01*
X151513179Y-120024821D01*
X151512941Y-120296900D01*
X151335254Y-120223118D01*
X151065927Y-120222883D01*
X151026992Y-120238970D01*
X151027178Y-120026613D01*
X150871156Y-119649011D01*
X150727000Y-119504604D01*
X150727000Y-119352432D01*
X150671660Y-119074221D01*
X150514067Y-118838365D01*
X150514064Y-118838363D01*
X145061635Y-113385933D01*
X144985788Y-113335254D01*
X144825779Y-113228340D01*
X144779620Y-113219158D01*
X144547568Y-113172999D01*
X144547563Y-113173000D01*
X143501134Y-113173000D01*
X141879411Y-111551277D01*
X141879411Y-111088342D01*
X141824071Y-110810131D01*
X141666478Y-110574275D01*
X141666475Y-110574273D01*
X140727000Y-109634797D01*
X140727000Y-104127000D01*
X141821839Y-104127000D01*
X141723118Y-104364746D01*
X141722883Y-104634073D01*
X141825733Y-104882989D01*
X142016010Y-105073598D01*
X142264746Y-105176882D01*
X142534073Y-105177117D01*
X142782989Y-105074267D01*
X142854180Y-105003200D01*
X143537933Y-105003200D01*
X143535104Y-105007434D01*
X143496800Y-105200000D01*
X143496800Y-108100000D01*
X143535104Y-108292566D01*
X143644184Y-108455816D01*
X151244184Y-116055816D01*
X151407434Y-116164896D01*
X151600000Y-116203200D01*
X153445735Y-116203200D01*
X153516010Y-116273598D01*
X153764746Y-116376882D01*
X154034073Y-116377117D01*
X154282989Y-116274267D01*
X154473598Y-116083990D01*
X154576882Y-115835254D01*
X154577117Y-115565927D01*
X154514556Y-115414518D01*
X154664746Y-115476882D01*
X154934073Y-115477117D01*
X155182989Y-115374267D01*
X155373598Y-115183990D01*
X155476882Y-114935254D01*
X155477117Y-114665927D01*
X155374267Y-114417011D01*
X155183990Y-114226402D01*
X154935254Y-114123118D01*
X154665927Y-114122883D01*
X154417011Y-114225733D01*
X154345820Y-114296800D01*
X151508432Y-114296800D01*
X150545705Y-113334073D01*
X154822883Y-113334073D01*
X154925733Y-113582989D01*
X155116010Y-113773598D01*
X155364746Y-113876882D01*
X155634073Y-113877117D01*
X155882989Y-113774267D01*
X156073598Y-113583990D01*
X156176882Y-113335254D01*
X156177117Y-113065927D01*
X156103200Y-112887034D01*
X156103200Y-110954265D01*
X156173598Y-110883990D01*
X156276882Y-110635254D01*
X156277117Y-110365927D01*
X156174267Y-110117011D01*
X155983990Y-109926402D01*
X155735254Y-109823118D01*
X155465927Y-109822883D01*
X155217011Y-109925733D01*
X155026402Y-110116010D01*
X154923118Y-110364746D01*
X154922883Y-110634073D01*
X155025733Y-110882989D01*
X155096800Y-110954180D01*
X155096800Y-112645909D01*
X154926402Y-112816010D01*
X154823118Y-113064746D01*
X154822883Y-113334073D01*
X150545705Y-113334073D01*
X145103200Y-107891568D01*
X145103200Y-105954265D01*
X145173598Y-105883990D01*
X145264765Y-105664435D01*
X145482989Y-105574267D01*
X145673598Y-105383990D01*
X145759526Y-105177052D01*
X145834073Y-105177117D01*
X146082989Y-105074267D01*
X146273598Y-104883990D01*
X146376882Y-104635254D01*
X146377117Y-104365927D01*
X146278394Y-104127000D01*
X147000000Y-104127000D01*
X147049410Y-104116994D01*
X147089803Y-104089803D01*
X149496800Y-101682806D01*
X149496800Y-111345735D01*
X149426402Y-111416010D01*
X149323118Y-111664746D01*
X149322883Y-111934073D01*
X149425733Y-112182989D01*
X149616010Y-112373598D01*
X149864746Y-112476882D01*
X150134073Y-112477117D01*
X150382989Y-112374267D01*
X150573598Y-112183990D01*
X150664765Y-111964435D01*
X150882989Y-111874267D01*
X151073598Y-111683990D01*
X151176882Y-111435254D01*
X151176948Y-111359401D01*
X151382989Y-111274267D01*
X151573598Y-111083990D01*
X151659526Y-110877052D01*
X151734073Y-110877117D01*
X151982989Y-110774267D01*
X152173598Y-110583990D01*
X152276882Y-110335254D01*
X152276933Y-110277067D01*
X152334073Y-110277117D01*
X152582989Y-110174267D01*
X152773598Y-109983990D01*
X152876882Y-109735254D01*
X152877117Y-109465927D01*
X152774267Y-109217011D01*
X152703200Y-109145820D01*
X152703200Y-101127000D01*
X161373000Y-101127000D01*
X161373000Y-109947394D01*
X161373000Y-109947394D01*
G37*
X161373000Y-109947394D02*
X159910197Y-111410197D01*
X159883006Y-111450590D01*
X159873000Y-111500000D01*
X159873000Y-123873000D01*
X140127000Y-123873000D01*
X140127000Y-123451007D01*
X144271520Y-123451007D01*
X144323275Y-123630452D01*
X144697978Y-123793311D01*
X145106483Y-123800380D01*
X145486598Y-123650583D01*
X145516725Y-123630452D01*
X145568480Y-123451007D01*
X144920000Y-122802527D01*
X144271520Y-123451007D01*
X140127000Y-123451007D01*
X140127000Y-122956483D01*
X143889620Y-122956483D01*
X144039417Y-123336598D01*
X144059548Y-123366725D01*
X144238993Y-123418480D01*
X144887473Y-122770000D01*
X144952527Y-122770000D01*
X145601007Y-123418480D01*
X145780452Y-123366725D01*
X145943311Y-122992022D01*
X145950380Y-122583517D01*
X145800583Y-122203402D01*
X145780452Y-122173275D01*
X145601007Y-122121520D01*
X144952527Y-122770000D01*
X144887473Y-122770000D01*
X144238993Y-122121520D01*
X144059548Y-122173275D01*
X143896689Y-122547978D01*
X143889620Y-122956483D01*
X140127000Y-122956483D01*
X140127000Y-122088993D01*
X144271520Y-122088993D01*
X144920000Y-122737473D01*
X145568480Y-122088993D01*
X145516725Y-121909548D01*
X145142022Y-121746689D01*
X144733517Y-121739620D01*
X144353402Y-121889417D01*
X144323275Y-121909548D01*
X144271520Y-122088993D01*
X140127000Y-122088993D01*
X140127000Y-120911007D01*
X144271520Y-120911007D01*
X144323275Y-121090452D01*
X144697978Y-121253311D01*
X145106483Y-121260380D01*
X145486598Y-121110583D01*
X145516725Y-121090452D01*
X145568480Y-120911007D01*
X144920000Y-120262527D01*
X144271520Y-120911007D01*
X140127000Y-120911007D01*
X140127000Y-120416483D01*
X143889620Y-120416483D01*
X144039417Y-120796598D01*
X144059548Y-120826725D01*
X144238993Y-120878480D01*
X144887473Y-120230000D01*
X144952527Y-120230000D01*
X145601007Y-120878480D01*
X145780452Y-120826725D01*
X145943311Y-120452022D01*
X145950380Y-120043517D01*
X145800583Y-119663402D01*
X145780452Y-119633275D01*
X145601007Y-119581520D01*
X144952527Y-120230000D01*
X144887473Y-120230000D01*
X144238993Y-119581520D01*
X144059548Y-119633275D01*
X143896689Y-120007978D01*
X143889620Y-120416483D01*
X140127000Y-120416483D01*
X140127000Y-119548993D01*
X144271520Y-119548993D01*
X144920000Y-120197473D01*
X145568480Y-119548993D01*
X145516725Y-119369548D01*
X145142022Y-119206689D01*
X144733517Y-119199620D01*
X144353402Y-119349417D01*
X144323275Y-119369548D01*
X144271520Y-119548993D01*
X140127000Y-119548993D01*
X140127000Y-111500000D01*
X140117666Y-111452211D01*
X140089803Y-111410197D01*
X138627000Y-109947394D01*
X138627000Y-104127000D01*
X139273000Y-104127000D01*
X139273000Y-109935926D01*
X139272999Y-109935931D01*
X139298858Y-110065927D01*
X139328340Y-110214142D01*
X139463672Y-110416682D01*
X139485933Y-110449998D01*
X140425411Y-111389475D01*
X140425411Y-111852406D01*
X140425410Y-111852411D01*
X140469946Y-112076300D01*
X140480751Y-112130622D01*
X140596063Y-112303200D01*
X140638344Y-112366478D01*
X142685933Y-114414067D01*
X142921789Y-114571660D01*
X143200000Y-114627000D01*
X144015742Y-114627000D01*
X143826402Y-114816010D01*
X143723118Y-115064746D01*
X143722883Y-115334073D01*
X143825733Y-115582989D01*
X144016010Y-115773598D01*
X144264746Y-115876882D01*
X144534073Y-115877117D01*
X144782989Y-115774267D01*
X144822847Y-115734479D01*
X146956800Y-117868432D01*
X146956800Y-119326702D01*
X146879011Y-119358844D01*
X146589860Y-119647492D01*
X146433179Y-120024821D01*
X146432822Y-120433387D01*
X146588844Y-120810989D01*
X146877492Y-121100140D01*
X147254821Y-121256821D01*
X147331480Y-121256888D01*
X147104184Y-121484184D01*
X146995104Y-121647434D01*
X146956800Y-121840000D01*
X146956800Y-121866702D01*
X146879011Y-121898844D01*
X146589860Y-122187492D01*
X146433179Y-122564821D01*
X146432822Y-122973387D01*
X146588844Y-123350989D01*
X146877492Y-123640140D01*
X147254821Y-123796821D01*
X147663387Y-123797178D01*
X148040989Y-123641156D01*
X148330140Y-123352508D01*
X148486821Y-122975179D01*
X148487178Y-122566613D01*
X148331156Y-122189011D01*
X148077110Y-121934522D01*
X148334602Y-121677030D01*
X148434073Y-121677117D01*
X148496800Y-121651199D01*
X148496800Y-121770000D01*
X148535104Y-121962566D01*
X148644184Y-122125816D01*
X149005456Y-122487088D01*
X148973179Y-122564821D01*
X148972822Y-122973387D01*
X149128844Y-123350989D01*
X149417492Y-123640140D01*
X149794821Y-123796821D01*
X150203387Y-123797178D01*
X150580989Y-123641156D01*
X150870140Y-123352508D01*
X151026821Y-122975179D01*
X151027178Y-122566613D01*
X150871156Y-122189011D01*
X150869986Y-122187839D01*
X150939560Y-122159092D01*
X151078631Y-122020263D01*
X151545456Y-122487088D01*
X151513179Y-122564821D01*
X151512822Y-122973387D01*
X151668844Y-123350989D01*
X151957492Y-123640140D01*
X152334821Y-123796821D01*
X152743387Y-123797178D01*
X153120989Y-123641156D01*
X153410140Y-123352508D01*
X153566821Y-122975179D01*
X153567178Y-122566613D01*
X153411156Y-122189011D01*
X153122508Y-121899860D01*
X152745179Y-121743179D01*
X152336613Y-121742822D01*
X152257247Y-121775615D01*
X151769607Y-121287975D01*
X151773598Y-121283990D01*
X151876882Y-121035254D01*
X151876896Y-121019403D01*
X151957492Y-121100140D01*
X152334821Y-121256821D01*
X152743387Y-121257178D01*
X152923015Y-121182957D01*
X152922883Y-121334073D01*
X153025733Y-121582989D01*
X153216010Y-121773598D01*
X153464746Y-121876882D01*
X153475259Y-121876891D01*
X154085456Y-122487088D01*
X154053179Y-122564821D01*
X154052822Y-122973387D01*
X154208844Y-123350989D01*
X154497492Y-123640140D01*
X154874821Y-123796821D01*
X155283387Y-123797178D01*
X155660989Y-123641156D01*
X155950140Y-123352508D01*
X156106821Y-122975179D01*
X156107178Y-122566613D01*
X155951156Y-122189011D01*
X155662508Y-121899860D01*
X155285179Y-121743179D01*
X154876613Y-121742822D01*
X154797247Y-121775615D01*
X154276952Y-121255320D01*
X154277117Y-121065927D01*
X154174267Y-120817011D01*
X153983990Y-120626402D01*
X153735254Y-120523118D01*
X153530380Y-120522939D01*
X153566821Y-120435179D01*
X153567178Y-120026613D01*
X153534385Y-119947247D01*
X154104628Y-119377004D01*
X154234073Y-119377117D01*
X154482989Y-119274267D01*
X154576800Y-119180619D01*
X154576800Y-119326702D01*
X154499011Y-119358844D01*
X154209860Y-119647492D01*
X154053179Y-120024821D01*
X154052822Y-120433387D01*
X154208844Y-120810989D01*
X154497492Y-121100140D01*
X154874821Y-121256821D01*
X155283387Y-121257178D01*
X155660989Y-121101156D01*
X155950140Y-120812508D01*
X156106821Y-120435179D01*
X156107178Y-120026613D01*
X155951156Y-119649011D01*
X155662508Y-119359860D01*
X155583200Y-119326928D01*
X155583200Y-119174231D01*
X155673598Y-119083990D01*
X155776882Y-118835254D01*
X155777117Y-118565927D01*
X155674267Y-118317011D01*
X155483990Y-118126402D01*
X155235254Y-118023118D01*
X154965927Y-118022883D01*
X154717011Y-118125733D01*
X154599963Y-118242577D01*
X154483990Y-118126402D01*
X154235254Y-118023118D01*
X153965927Y-118022883D01*
X153717011Y-118125733D01*
X153526402Y-118316010D01*
X153423118Y-118564746D01*
X153423056Y-118635312D01*
X152822912Y-119235456D01*
X152745179Y-119203179D01*
X152336613Y-119202822D01*
X151959011Y-119358844D01*
X151669860Y-119647492D01*
X151513179Y-120024821D01*
X151512941Y-120296900D01*
X151335254Y-120223118D01*
X151065927Y-120222883D01*
X151026992Y-120238970D01*
X151027178Y-120026613D01*
X150871156Y-119649011D01*
X150727000Y-119504604D01*
X150727000Y-119352432D01*
X150671660Y-119074221D01*
X150514067Y-118838365D01*
X150514064Y-118838363D01*
X145061635Y-113385933D01*
X144985788Y-113335254D01*
X144825779Y-113228340D01*
X144779620Y-113219158D01*
X144547568Y-113172999D01*
X144547563Y-113173000D01*
X143501134Y-113173000D01*
X141879411Y-111551277D01*
X141879411Y-111088342D01*
X141824071Y-110810131D01*
X141666478Y-110574275D01*
X141666475Y-110574273D01*
X140727000Y-109634797D01*
X140727000Y-104127000D01*
X141821839Y-104127000D01*
X141723118Y-104364746D01*
X141722883Y-104634073D01*
X141825733Y-104882989D01*
X142016010Y-105073598D01*
X142264746Y-105176882D01*
X142534073Y-105177117D01*
X142782989Y-105074267D01*
X142854180Y-105003200D01*
X143537933Y-105003200D01*
X143535104Y-105007434D01*
X143496800Y-105200000D01*
X143496800Y-108100000D01*
X143535104Y-108292566D01*
X143644184Y-108455816D01*
X151244184Y-116055816D01*
X151407434Y-116164896D01*
X151600000Y-116203200D01*
X153445735Y-116203200D01*
X153516010Y-116273598D01*
X153764746Y-116376882D01*
X154034073Y-116377117D01*
X154282989Y-116274267D01*
X154473598Y-116083990D01*
X154576882Y-115835254D01*
X154577117Y-115565927D01*
X154514556Y-115414518D01*
X154664746Y-115476882D01*
X154934073Y-115477117D01*
X155182989Y-115374267D01*
X155373598Y-115183990D01*
X155476882Y-114935254D01*
X155477117Y-114665927D01*
X155374267Y-114417011D01*
X155183990Y-114226402D01*
X154935254Y-114123118D01*
X154665927Y-114122883D01*
X154417011Y-114225733D01*
X154345820Y-114296800D01*
X151508432Y-114296800D01*
X150545705Y-113334073D01*
X154822883Y-113334073D01*
X154925733Y-113582989D01*
X155116010Y-113773598D01*
X155364746Y-113876882D01*
X155634073Y-113877117D01*
X155882989Y-113774267D01*
X156073598Y-113583990D01*
X156176882Y-113335254D01*
X156177117Y-113065927D01*
X156103200Y-112887034D01*
X156103200Y-110954265D01*
X156173598Y-110883990D01*
X156276882Y-110635254D01*
X156277117Y-110365927D01*
X156174267Y-110117011D01*
X155983990Y-109926402D01*
X155735254Y-109823118D01*
X155465927Y-109822883D01*
X155217011Y-109925733D01*
X155026402Y-110116010D01*
X154923118Y-110364746D01*
X154922883Y-110634073D01*
X155025733Y-110882989D01*
X155096800Y-110954180D01*
X155096800Y-112645909D01*
X154926402Y-112816010D01*
X154823118Y-113064746D01*
X154822883Y-113334073D01*
X150545705Y-113334073D01*
X145103200Y-107891568D01*
X145103200Y-105954265D01*
X145173598Y-105883990D01*
X145264765Y-105664435D01*
X145482989Y-105574267D01*
X145673598Y-105383990D01*
X145759526Y-105177052D01*
X145834073Y-105177117D01*
X146082989Y-105074267D01*
X146273598Y-104883990D01*
X146376882Y-104635254D01*
X146377117Y-104365927D01*
X146278394Y-104127000D01*
X147000000Y-104127000D01*
X147049410Y-104116994D01*
X147089803Y-104089803D01*
X149496800Y-101682806D01*
X149496800Y-111345735D01*
X149426402Y-111416010D01*
X149323118Y-111664746D01*
X149322883Y-111934073D01*
X149425733Y-112182989D01*
X149616010Y-112373598D01*
X149864746Y-112476882D01*
X150134073Y-112477117D01*
X150382989Y-112374267D01*
X150573598Y-112183990D01*
X150664765Y-111964435D01*
X150882989Y-111874267D01*
X151073598Y-111683990D01*
X151176882Y-111435254D01*
X151176948Y-111359401D01*
X151382989Y-111274267D01*
X151573598Y-111083990D01*
X151659526Y-110877052D01*
X151734073Y-110877117D01*
X151982989Y-110774267D01*
X152173598Y-110583990D01*
X152276882Y-110335254D01*
X152276933Y-110277067D01*
X152334073Y-110277117D01*
X152582989Y-110174267D01*
X152773598Y-109983990D01*
X152876882Y-109735254D01*
X152877117Y-109465927D01*
X152774267Y-109217011D01*
X152703200Y-109145820D01*
X152703200Y-101127000D01*
X161373000Y-101127000D01*
X161373000Y-109947394D01*
M02*
