M48
;DRILL file {KiCad 4.0.7} date 07/31/18 09:39:59
;FORMAT={-:-/ absolute / metric / decimal}
FMAT,2
METRIC,TZ
T1C0.300
T2C0.400
T3C0.500
T4C0.600
T5C0.889
T6C1.200
%
G90
G05
M71
T1
X142.4Y-104.5
X144.4Y-115.2
X144.6Y-105.5
X145.1Y-105.
X145.7Y-104.5
X148.3Y-99.5
X148.3Y-121.
X149.Y-121.
X149.2Y-99.2
X149.7Y-98.6
X150.Y-111.8
X150.5Y-111.3
X151.Y-110.7
X151.2Y-120.9
X151.6Y-110.2
X152.2Y-109.6
X153.6Y-121.2
X153.9Y-115.7
X154.1Y-118.7
X154.8Y-114.8
X155.1Y-118.7
X155.5Y-113.2
X155.6Y-110.5
T2
X143.4Y-112.9
X146.4Y-112.1
X148.7Y-114.1
X153.5Y-103.9
T3
X150.5Y-121.5
T4
X139.1Y-101.1
X139.3Y-96.2
X142.7Y-122.5
X145.7Y-117.6
T5
X152.54Y-78.41
X152.54Y-80.95
X152.54Y-83.49
X152.54Y-86.03
X152.54Y-88.57
X152.54Y-91.11
X152.54Y-93.65
X152.54Y-96.19
X155.08Y-78.41
X155.08Y-80.95
X155.08Y-83.49
X155.08Y-86.03
X155.08Y-88.57
X155.08Y-91.11
X155.08Y-93.65
X155.08Y-96.19
X157.62Y-78.41
X157.62Y-80.95
X157.62Y-83.49
X157.62Y-86.03
X157.62Y-88.57
X157.62Y-91.11
X157.62Y-93.65
X157.62Y-96.19
T6
X144.666Y-79.88
X144.666Y-84.96
X147.206Y-79.88
X147.206Y-84.96
T0
M30
